<?xml version="1.0" standalone="no"?><!DOCTYPE svg PUBLIC "-//W3C//DTD SVG 1.1//EN" "http://www.w3.org/Graphics/SVG/1.1/DTD/svg11.dtd"><svg xmlns="http://www.w3.org/2000/svg" viewBox="0 0 650 400" version="1.1"><clipPath id="box"><rect x="0" y="0" width="650" height="400" style="fill:none;stroke:none;" /></clipPath><g clip-path="url(#box)"><rect x="0.00" y="0.00" width="650.00" height="400.00" style="fill:#FFFFFF;stroke:none;" /><path d="M0.00 350.00 L650.00 350.00 M0.00 300.00 L650.00 300.00 M0.00 250.00 L650.00 250.00 M0.00 200.00 L650.00 200.00 M0.00 149.00 L650.00 149.00 M0.00 99.00 L650.00 99.00 M0.00 49.00 L650.00 49.00 M24.00 0.00 L24.00 400.00 M74.00 0.00 L74.00 400.00 M124.00 0.00 L124.00 400.00 M174.00 0.00 L174.00 400.00 M224.00 0.00 L224.00 400.00 M274.00 0.00 L274.00 400.00 M325.00 0.00 L325.00 400.00 M375.00 0.00 L375.00 400.00 M425.00 0.00 L425.00 400.00 M475.00 0.00 L475.00 400.00 M525.00 0.00 L525.00 400.00 M575.00 0.00 L575.00 400.00 M625.00 0.00 L625.00 400.00 " style="fill:none;stroke:#D0D0D0;stroke-width:1;" /><path d="M325.00 0.00 L325.00 400.00 " style="fill:none;stroke:#000000;stroke-width:1;" /><path d="M318.50 400.00 L331.50 400.00 M318.50 350.00 L331.50 350.00 M318.50 300.00 L331.50 300.00 M318.50 250.00 L331.50 250.00 M318.50 200.00 L331.50 200.00 M318.50 150.00 L331.50 150.00 M318.50 100.00 L331.50 100.00 M318.50 50.00 L331.50 50.00 " style="fill:none;stroke:#000000;stroke-width:1;" /><path d="M0.00 200.00 L650.00 200.00 " style="fill:none;stroke:#000000;stroke-width:1;" /><path d="M-25.00 193.50 L-25.00 206.50 M25.00 193.50 L25.00 206.50 M75.00 193.50 L75.00 206.50 M125.00 193.50 L125.00 206.50 M175.00 193.50 L175.00 206.50 M225.00 193.50 L225.00 206.50 M275.00 193.50 L275.00 206.50 M325.00 193.50 L325.00 206.50 M375.00 193.50 L375.00 206.50 M425.00 193.50 L425.00 206.50 M475.00 193.50 L475.00 206.50 M525.00 193.50 L525.00 206.50 M575.00 193.50 L575.00 206.50 M625.00 193.50 L625.00 206.50 " style="fill:none;stroke:#000000;stroke-width:1;" /><text x="333.125" y="352.5000000000008" text-anchor="start" style="font:10px Droid Sans,Trebuchet MS,Arial,Helvetica,sans-serif;stroke:none;fill:#000000">-3</text><text x="333.125" y="302.5000000000005" text-anchor="start" style="font:10px Droid Sans,Trebuchet MS,Arial,Helvetica,sans-serif;stroke:none;fill:#000000">-2</text><text x="333.125" y="252.50000000000026" text-anchor="start" style="font:10px Droid Sans,Trebuchet MS,Arial,Helvetica,sans-serif;stroke:none;fill:#000000">-1</text><text x="333.125" y="202.5" text-anchor="start" style="font:10px Droid Sans,Trebuchet MS,Arial,Helvetica,sans-serif;stroke:none;fill:#000000">0</text><text x="333.125" y="152.49999999999974" text-anchor="start" style="font:10px Droid Sans,Trebuchet MS,Arial,Helvetica,sans-serif;stroke:none;fill:#000000">1</text><text x="333.125" y="102.49999999999946" text-anchor="start" style="font:10px Droid Sans,Trebuchet MS,Arial,Helvetica,sans-serif;stroke:none;fill:#000000">2</text><text x="333.125" y="52.499999999999204" text-anchor="start" style="font:10px Droid Sans,Trebuchet MS,Arial,Helvetica,sans-serif;stroke:none;fill:#000000">3</text><text x="24.99999999999836" y="216.125" text-anchor="middle" style="font:10px Droid Sans,Trebuchet MS,Arial,Helvetica,sans-serif;stroke:none;fill:#000000">-6</text><text x="74.99999999999864" y="216.125" text-anchor="middle" style="font:10px Droid Sans,Trebuchet MS,Arial,Helvetica,sans-serif;stroke:none;fill:#000000">-5</text><text x="124.9999999999989" y="216.125" text-anchor="middle" style="font:10px Droid Sans,Trebuchet MS,Arial,Helvetica,sans-serif;stroke:none;fill:#000000">-4</text><text x="174.9999999999992" y="216.125" text-anchor="middle" style="font:10px Droid Sans,Trebuchet MS,Arial,Helvetica,sans-serif;stroke:none;fill:#000000">-3</text><text x="224.99999999999946" y="216.125" text-anchor="middle" style="font:10px Droid Sans,Trebuchet MS,Arial,Helvetica,sans-serif;stroke:none;fill:#000000">-2</text><text x="274.9999999999998" y="216.125" text-anchor="middle" style="font:10px Droid Sans,Trebuchet MS,Arial,Helvetica,sans-serif;stroke:none;fill:#000000">-1</text><text x="325" y="216.125" text-anchor="middle" style="font:10px Droid Sans,Trebuchet MS,Arial,Helvetica,sans-serif;stroke:none;fill:#000000">0</text><text x="375.0000000000002" y="216.125" text-anchor="middle" style="font:10px Droid Sans,Trebuchet MS,Arial,Helvetica,sans-serif;stroke:none;fill:#000000">1</text><text x="425.0000000000005" y="216.125" text-anchor="middle" style="font:10px Droid Sans,Trebuchet MS,Arial,Helvetica,sans-serif;stroke:none;fill:#000000">2</text><text x="475.00000000000085" y="216.125" text-anchor="middle" style="font:10px Droid Sans,Trebuchet MS,Arial,Helvetica,sans-serif;stroke:none;fill:#000000">3</text><text x="525.0000000000011" y="216.125" text-anchor="middle" style="font:10px Droid Sans,Trebuchet MS,Arial,Helvetica,sans-serif;stroke:none;fill:#000000">4</text><text x="575.0000000000014" y="216.125" text-anchor="middle" style="font:10px Droid Sans,Trebuchet MS,Arial,Helvetica,sans-serif;stroke:none;fill:#000000">5</text><text x="625.0000000000016" y="216.125" text-anchor="middle" style="font:10px Droid Sans,Trebuchet MS,Arial,Helvetica,sans-serif;stroke:none;fill:#000000">6</text><path d="M375.00 199.68 L376.00 190.01 L376.10 189.51 L376.31 188.58 L376.53 187.66 L376.77 186.73 L377.03 185.80 L377.31 184.86 L377.61 183.93 L377.92 182.98 L378.26 182.04 L378.62 181.09 L378.99 180.14 L379.39 179.19 L379.81 178.24 L380.25 177.29 L380.71 176.33 L381.19 175.37 L381.69 174.41 L382.21 173.45 L382.76 172.49 L383.33 171.53 L383.92 170.57 L384.53 169.60 L385.16 168.64 L385.82 167.67 L386.50 166.71 L387.21 165.74 L387.93 164.77 L388.69 163.80 L389.46 162.83 L390.26 161.86 L391.09 160.89 L391.94 159.92 L392.82 158.95 L393.72 157.98 L394.65 157.01 L395.61 156.03 L396.59 155.06 L397.60 154.09 L398.64 153.11 L399.71 152.14 L400.80 151.17 L401.93 150.19 L403.08 149.22 L404.27 148.24 L405.48 147.27 L406.73 146.29 L408.00 145.32 L409.31 144.34 L410.66 143.36 L412.03 142.39 L413.44 141.41 L414.88 140.44 L416.36 139.46 L417.87 138.48 L419.41 137.50 L421.00 136.53 L422.62 135.55 L424.28 134.57 L425.97 133.59 L427.71 132.62 L429.48 131.64 L431.30 130.66 L433.15 129.68 L435.05 128.70 L436.99 127.73 L438.97 126.75 L440.97 125.78 L442.97 124.84 L444.97 123.91 L446.97 123.00 L448.97 122.11 L450.97 121.24 L452.97 120.38 L454.97 119.54 L456.97 118.71 L458.97 117.90 L460.97 117.11 L462.97 116.32 L464.97 115.55 L466.97 114.79 L468.97 114.04 L470.97 113.31 L472.97 112.59 L474.97 111.87 L476.97 111.17 L478.97 110.48 L480.97 109.80 L482.97 109.13 L484.97 108.46 L486.97 107.81 L488.97 107.17 L490.97 106.53 L492.97 105.90 L494.97 105.28 L496.97 104.67 L498.97 104.07 L500.97 103.47 L502.97 102.88 L504.97 102.30 L506.97 101.72 L508.97 101.16 L510.97 100.59 L512.97 100.04 L514.97 99.49 L516.97 98.95 L518.97 98.41 L520.97 97.88 L522.97 97.36 L524.97 96.84 L526.97 96.32 L528.97 95.81 L530.97 95.31 L532.97 94.81 L534.97 94.32 L536.97 93.83 L538.97 93.35 L540.97 92.87 L542.97 92.40 L544.97 91.93 L546.97 91.46 L548.97 91.00 L550.97 90.55 L552.97 90.10 L554.97 89.65 L556.97 89.20 L558.97 88.77 L560.97 88.33 L562.97 87.90 L564.97 87.47 L566.97 87.05 L568.97 86.63 L570.97 86.21 L572.97 85.79 L574.97 85.38 L576.97 84.98 L578.97 84.57 L580.97 84.17 L582.97 83.78 L584.97 83.38 L586.97 82.99 L588.97 82.61 L590.97 82.22 L592.97 81.84 L594.97 81.46 L596.97 81.09 L598.97 80.71 L600.97 80.34 L602.97 79.98 L604.97 79.61 L606.97 79.25 L608.97 78.89 L610.97 78.54 L612.97 78.18 L614.97 77.83 L616.97 77.48 L618.97 77.14 L620.97 76.79 L622.97 76.45 L624.97 76.11 L626.97 75.77 L628.97 75.44 L630.97 75.11 L632.97 74.78 L634.97 74.45 L636.97 74.12 L638.97 73.80 L640.97 73.48 L642.97 73.16 L644.97 72.84 L646.97 72.53 L648.97 72.21 " style="fill:none;stroke:#000000;stroke-width:1;" /></g></svg>