<?xml version="1.0" standalone="no"?><!DOCTYPE svg PUBLIC "-//W3C//DTD SVG 1.1//EN" "http://www.w3.org/Graphics/SVG/1.1/DTD/svg11.dtd"><svg xmlns="http://www.w3.org/2000/svg" viewBox="0 0 650 400" version="1.1"><clipPath id="box"><rect x="0" y="0" width="650" height="400" style="fill:none;stroke:none;" /></clipPath><g clip-path="url(#box)"><rect x="0.00" y="0.00" width="650.00" height="400.00" style="fill:#FFFFFF;stroke:none;" /><path d="M0.00 400.00 L650.00 400.00 M0.00 350.00 L650.00 350.00 M0.00 300.00 L650.00 300.00 M0.00 250.00 L650.00 250.00 M0.00 200.00 L650.00 200.00 M0.00 150.00 L650.00 150.00 M0.00 100.00 L650.00 100.00 M0.00 50.00 L650.00 50.00 M0.00 0.00 L650.00 0.00 M25.00 0.00 L25.00 400.00 M75.00 0.00 L75.00 400.00 M125.00 0.00 L125.00 400.00 M175.00 0.00 L175.00 400.00 M225.00 0.00 L225.00 400.00 M275.00 0.00 L275.00 400.00 M325.00 0.00 L325.00 400.00 M374.00 0.00 L374.00 400.00 M425.00 0.00 L425.00 400.00 M475.00 0.00 L475.00 400.00 M525.00 0.00 L525.00 400.00 M575.00 0.00 L575.00 400.00 M625.00 0.00 L625.00 400.00 " style="fill:none;stroke:#D0D0D0;stroke-width:1;" /><path d="M325.00 0.00 L325.00 400.00 " style="fill:none;stroke:#000000;stroke-width:1;" /><path d="M318.50 400.00 L331.50 400.00 M318.50 350.00 L331.50 350.00 M318.50 300.00 L331.50 300.00 M318.50 250.00 L331.50 250.00 M318.50 200.00 L331.50 200.00 M318.50 150.00 L331.50 150.00 M318.50 100.00 L331.50 100.00 M318.50 50.00 L331.50 50.00 M318.50 0.00 L331.50 0.00 " style="fill:none;stroke:#000000;stroke-width:1;" /><path d="M0.00 200.00 L650.00 200.00 " style="fill:none;stroke:#000000;stroke-width:1;" /><path d="M-25.00 193.50 L-25.00 206.50 M25.00 193.50 L25.00 206.50 M75.00 193.50 L75.00 206.50 M125.00 193.50 L125.00 206.50 M175.00 193.50 L175.00 206.50 M225.00 193.50 L225.00 206.50 M275.00 193.50 L275.00 206.50 M325.00 193.50 L325.00 206.50 M375.00 193.50 L375.00 206.50 M425.00 193.50 L425.00 206.50 M475.00 193.50 L475.00 206.50 M525.00 193.50 L525.00 206.50 M575.00 193.50 L575.00 206.50 M625.00 193.50 L625.00 206.50 " style="fill:none;stroke:#000000;stroke-width:1;" /><text x="333.125" y="352.5" text-anchor="start" style="font:10px Droid Sans,Trebuchet MS,Arial,Helvetica,sans-serif;stroke:none;fill:#000000">-3</text><text x="333.125" y="302.5" text-anchor="start" style="font:10px Droid Sans,Trebuchet MS,Arial,Helvetica,sans-serif;stroke:none;fill:#000000">-2</text><text x="333.125" y="252.5" text-anchor="start" style="font:10px Droid Sans,Trebuchet MS,Arial,Helvetica,sans-serif;stroke:none;fill:#000000">-1</text><text x="333.125" y="202.5" text-anchor="start" style="font:10px Droid Sans,Trebuchet MS,Arial,Helvetica,sans-serif;stroke:none;fill:#000000">0</text><text x="333.125" y="152.5" text-anchor="start" style="font:10px Droid Sans,Trebuchet MS,Arial,Helvetica,sans-serif;stroke:none;fill:#000000">1</text><text x="333.125" y="102.5" text-anchor="start" style="font:10px Droid Sans,Trebuchet MS,Arial,Helvetica,sans-serif;stroke:none;fill:#000000">2</text><text x="333.125" y="52.5" text-anchor="start" style="font:10px Droid Sans,Trebuchet MS,Arial,Helvetica,sans-serif;stroke:none;fill:#000000">3</text><text x="25" y="216.125" text-anchor="middle" style="font:10px Droid Sans,Trebuchet MS,Arial,Helvetica,sans-serif;stroke:none;fill:#000000">-6</text><text x="75" y="216.125" text-anchor="middle" style="font:10px Droid Sans,Trebuchet MS,Arial,Helvetica,sans-serif;stroke:none;fill:#000000">-5</text><text x="125" y="216.125" text-anchor="middle" style="font:10px Droid Sans,Trebuchet MS,Arial,Helvetica,sans-serif;stroke:none;fill:#000000">-4</text><text x="175" y="216.125" text-anchor="middle" style="font:10px Droid Sans,Trebuchet MS,Arial,Helvetica,sans-serif;stroke:none;fill:#000000">-3</text><text x="225" y="216.125" text-anchor="middle" style="font:10px Droid Sans,Trebuchet MS,Arial,Helvetica,sans-serif;stroke:none;fill:#000000">-2</text><text x="275" y="216.125" text-anchor="middle" style="font:10px Droid Sans,Trebuchet MS,Arial,Helvetica,sans-serif;stroke:none;fill:#000000">-1</text><text x="325" y="216.125" text-anchor="middle" style="font:10px Droid Sans,Trebuchet MS,Arial,Helvetica,sans-serif;stroke:none;fill:#000000">0</text><text x="374.99999999999994" y="216.125" text-anchor="middle" style="font:10px Droid Sans,Trebuchet MS,Arial,Helvetica,sans-serif;stroke:none;fill:#000000">1</text><text x="425" y="216.125" text-anchor="middle" style="font:10px Droid Sans,Trebuchet MS,Arial,Helvetica,sans-serif;stroke:none;fill:#000000">2</text><text x="475" y="216.125" text-anchor="middle" style="font:10px Droid Sans,Trebuchet MS,Arial,Helvetica,sans-serif;stroke:none;fill:#000000">3</text><text x="525" y="216.125" text-anchor="middle" style="font:10px Droid Sans,Trebuchet MS,Arial,Helvetica,sans-serif;stroke:none;fill:#000000">4</text><text x="575" y="216.125" text-anchor="middle" style="font:10px Droid Sans,Trebuchet MS,Arial,Helvetica,sans-serif;stroke:none;fill:#000000">5</text><text x="625" y="216.125" text-anchor="middle" style="font:10px Droid Sans,Trebuchet MS,Arial,Helvetica,sans-serif;stroke:none;fill:#000000">6</text><path d="M-10.00 200.00 L-0.25 151.22 L0.75 151.01 L2.75 150.65 L4.75 150.37 L6.75 150.17 L8.75 150.04 L10.75 150.00 L12.75 150.04 L14.75 150.15 L16.75 150.35 L18.75 150.62 L20.75 150.98 L22.75 151.41 L24.75 151.92 L26.75 152.51 L28.75 153.17 L30.75 153.91 L32.75 154.72 L34.75 155.61 L36.75 156.56 L38.75 157.59 L40.70 158.65 L42.53 159.71 L44.26 160.76 L45.91 161.81 L47.50 162.84 L49.02 163.88 L50.49 164.91 L51.91 165.94 L53.30 166.97 L54.64 167.99 L55.96 169.01 L57.25 170.03 L58.51 171.05 L59.75 172.07 L60.96 173.09 L62.16 174.10 L63.34 175.12 L64.50 176.13 L65.64 177.14 L66.77 178.16 L67.89 179.17 L69.00 180.18 L70.09 181.19 L71.18 182.20 L72.25 183.20 L73.32 184.21 L74.38 185.22 L75.43 186.23 L76.47 187.23 L77.51 188.24 L78.54 189.24 L79.56 190.25 L80.59 191.25 L81.60 192.25 L82.62 193.26 L83.63 194.26 L84.64 195.26 L85.64 196.26 L86.65 197.27 L87.65 198.27 L88.65 199.27 L89.65 200.27 L90.65 201.27 L91.65 202.27 L92.65 203.27 L93.65 204.27 L94.65 205.26 L95.66 206.26 L96.67 207.26 L97.67 208.26 L98.69 209.25 L99.70 210.25 L100.72 211.24 L101.75 212.24 L102.77 213.23 L103.81 214.23 L104.85 215.22 L105.90 216.22 L106.95 217.21 L108.01 218.20 L109.08 219.19 L110.16 220.18 L111.25 221.17 L112.34 222.16 L113.45 223.15 L114.58 224.14 L115.71 225.13 L116.86 226.12 L118.02 227.10 L119.21 228.09 L120.40 229.07 L121.62 230.05 L122.86 231.04 L124.13 232.02 L125.41 233.00 L126.73 233.97 L128.08 234.95 L129.46 235.92 L130.88 236.89 L132.33 237.86 L133.84 238.83 L135.40 239.79 L137.02 240.75 L138.71 241.70 L140.47 242.65 L142.34 243.60 L144.31 244.53 L146.31 245.40 L148.31 246.20 L150.31 246.93 L152.31 247.58 L154.31 248.16 L156.31 248.66 L158.31 249.08 L160.31 249.42 L162.31 249.69 L164.31 249.87 L166.31 249.97 L168.31 250.00 L170.31 249.94 L172.31 249.81 L174.31 249.59 L176.31 249.30 L178.31 248.92 L180.31 248.47 L182.31 247.94 L184.31 247.34 L186.31 246.65 L188.31 245.90 L190.31 245.07 L192.31 244.17 L194.31 243.19 L196.31 242.15 L198.23 241.09 L200.04 240.03 L201.75 238.99 L203.38 237.94 L204.95 236.91 L206.46 235.87 L207.91 234.84 L209.33 233.81 L210.70 232.79 L212.04 231.76 L213.35 230.74 L214.64 229.72 L215.89 228.70 L217.12 227.68 L218.33 226.67 L219.53 225.65 L220.70 224.64 L221.86 223.62 L223.00 222.61 L224.13 221.60 L225.24 220.59 L226.34 219.58 L227.44 218.57 L228.52 217.56 L229.59 216.55 L230.65 215.54 L231.71 214.54 L232.76 213.53 L233.80 212.53 L234.84 211.52 L235.87 210.52 L236.89 209.51 L237.91 208.51 L238.93 207.50 L239.94 206.50 L240.95 205.50 L241.96 204.50 L242.96 203.49 L243.97 202.49 L244.97 201.49 L245.97 200.49 L246.97 199.49 L247.97 198.49 L248.97 197.49 L249.97 196.49 L250.97 195.49 L251.98 194.50 L252.98 193.50 L253.99 192.50 L255.00 191.50 L256.01 190.51 L257.03 189.51 L258.05 188.52 L259.07 187.52 L260.10 186.53 L261.14 185.53 L262.18 184.54 L263.23 183.54 L264.28 182.55 L265.35 181.56 L266.42 180.57 L267.50 179.58 L268.59 178.59 L269.69 177.60 L270.80 176.61 L271.93 175.62 L273.07 174.63 L274.22 173.65 L275.39 172.66 L276.57 171.67 L277.78 170.69 L279.00 169.71 L280.25 168.73 L281.51 167.75 L282.81 166.77 L284.13 165.79 L285.49 164.82 L286.88 163.84 L288.30 162.87 L289.77 161.90 L291.29 160.94 L292.86 159.98 L294.50 159.02 L296.20 158.07 L297.99 157.12 L299.88 156.18 L301.88 155.25 L303.88 154.39 L305.88 153.61 L307.88 152.90 L309.88 152.27 L311.88 151.71 L313.88 151.23 L315.88 150.83 L317.88 150.51 L319.88 150.26 L321.88 150.10 L323.88 150.01 L325.88 150.01 L327.88 150.08 L329.88 150.24 L331.88 150.47 L333.88 150.79 L335.88 151.18 L337.88 151.65 L339.88 152.20 L341.88 152.82 L343.88 153.52 L345.88 154.30 L347.88 155.15 L349.88 156.06 L351.88 157.05 L353.88 158.11 L355.77 159.17 L357.55 160.23 L359.24 161.27 L360.86 162.32 L362.41 163.35 L363.90 164.39 L365.35 165.42 L366.75 166.44 L368.12 167.47 L369.45 168.49 L370.76 169.51 L372.03 170.53 L373.28 171.55 L374.51 172.57 L375.71 173.59 L376.90 174.60 L378.07 175.62 L379.22 176.63 L380.36 177.64 L381.48 178.65 L382.60 179.66 L383.70 180.67 L384.78 181.68 L385.86 182.69 L386.93 183.70 L388.00 184.71 L389.05 185.71 L390.10 186.72 L391.14 187.72 L392.17 188.73 L393.20 189.73 L394.23 190.74 L395.24 191.74 L396.26 192.75 L397.27 193.75 L398.28 194.75 L399.29 195.75 L400.29 196.76 L401.30 197.76 L402.30 198.76 L403.30 199.76 L404.30 200.76 L405.30 201.76 L406.30 202.76 L407.30 203.76 L408.30 204.75 L409.31 205.75 L410.31 206.75 L411.32 207.75 L412.33 208.74 L413.34 209.74 L414.36 210.74 L415.38 211.73 L416.41 212.73 L417.44 213.72 L418.48 214.72 L419.52 215.71 L420.57 216.70 L421.63 217.70 L422.69 218.69 L423.77 219.68 L424.85 220.67 L425.94 221.66 L427.05 222.65 L428.16 223.64 L429.29 224.63 L430.43 225.61 L431.59 226.60 L432.76 227.59 L433.95 228.57 L435.16 229.55 L436.39 230.54 L437.64 231.52 L438.91 232.50 L440.22 233.47 L441.55 234.45 L442.91 235.43 L444.31 236.40 L445.74 237.37 L447.23 238.34 L448.76 239.30 L450.34 240.26 L452.00 241.22 L453.72 242.17 L455.53 243.12 L457.45 244.06 L459.45 244.97 L461.45 245.80 L463.45 246.57 L465.45 247.26 L467.45 247.87 L469.45 248.41 L471.45 248.87 L473.45 249.26 L475.45 249.56 L477.45 249.79 L479.45 249.93 L481.45 250.00 L483.45 249.98 L485.45 249.89 L487.45 249.71 L489.45 249.46 L491.45 249.12 L493.45 248.71 L495.45 248.22 L497.45 247.66 L499.45 247.01 L501.45 246.29 L503.45 245.50 L505.45 244.64 L507.45 243.70 L509.45 242.69 L511.44 241.63 L513.30 240.57 L515.05 239.52 L516.72 238.47 L518.32 237.43 L519.86 236.39 L521.34 235.36 L522.78 234.33 L524.17 233.30 L525.53 232.28 L526.85 231.26 L528.15 230.24 L529.42 229.22 L530.66 228.20 L531.88 227.18 L533.08 226.16 L534.27 225.15 L535.43 224.14 L536.58 223.12 L537.72 222.11 L538.84 221.10 L539.95 220.09 L541.04 219.08 L542.13 218.07 L543.21 217.06 L544.28 216.05 L545.34 215.05 L546.39 214.04 L547.43 213.03 L548.47 212.03 L549.50 211.02 L550.53 210.02 L551.56 209.01 L552.57 208.01 L553.59 207.01 L554.60 206.00 L555.61 205.00 L556.61 204.00 L557.62 203.00 L558.62 202.00 L559.62 201.00 L560.62 200.00 L561.62 199.00 L562.62 198.00 L563.62 197.00 L564.63 196.00 L565.63 195.00 L566.63 194.00 L567.64 193.00 L568.65 192.01 L569.66 191.01 L570.67 190.01 L571.69 189.02 L572.71 188.02 L573.74 187.03 L574.77 186.03 L575.81 185.04 L576.86 184.05 L577.91 183.05 L578.97 182.06 L580.03 181.07 L581.11 180.08 L582.20 179.09 L583.29 178.10 L584.40 177.11 L585.52 176.12 L586.65 175.13 L587.79 174.14 L588.95 173.16 L590.13 172.17 L591.32 171.19 L592.54 170.21 L593.77 169.22 L595.03 168.24 L596.31 167.26 L597.62 166.29 L598.96 165.31 L600.33 164.34 L601.74 163.36 L603.18 162.39 L604.68 161.43 L606.22 160.46 L607.82 159.50 L609.49 158.55 L611.24 157.60 L613.07 156.65 L615.02 155.72 L617.02 154.82 L619.02 154.00 L621.02 153.26 L623.02 152.58 L625.02 151.99 L627.02 151.47 L629.02 151.03 L631.02 150.66 L633.02 150.38 L635.02 150.17 L637.02 150.05 L639.02 150.00 L641.02 150.03 L643.02 150.15 L645.02 150.34 L647.02 150.62 L649.02 150.97 " style="fill:none;stroke:#000000;stroke-width:1;" /></g></svg>