<?xml version="1.0" standalone="no"?><!DOCTYPE svg PUBLIC "-//W3C//DTD SVG 1.1//EN" "http://www.w3.org/Graphics/SVG/1.1/DTD/svg11.dtd"><svg xmlns="http://www.w3.org/2000/svg" viewBox="0 0 650 400" version="1.1"><clipPath id="box"><rect x="0" y="0" width="650" height="400" style="fill:none;stroke:none;" /></clipPath><g clip-path="url(#box)"><rect x="0.00" y="0.00" width="650.00" height="400.00" style="fill:#FFFFFF;stroke:none;" /><path d="M0.00 400.00 L650.00 400.00 M0.00 350.00 L650.00 350.00 M0.00 300.00 L650.00 300.00 M0.00 250.00 L650.00 250.00 M0.00 200.00 L650.00 200.00 M0.00 150.00 L650.00 150.00 M0.00 100.00 L650.00 100.00 M0.00 50.00 L650.00 50.00 M0.00 0.00 L650.00 0.00 M25.00 0.00 L25.00 400.00 M75.00 0.00 L75.00 400.00 M125.00 0.00 L125.00 400.00 M175.00 0.00 L175.00 400.00 M225.00 0.00 L225.00 400.00 M275.00 0.00 L275.00 400.00 M325.00 0.00 L325.00 400.00 M374.00 0.00 L374.00 400.00 M425.00 0.00 L425.00 400.00 M475.00 0.00 L475.00 400.00 M525.00 0.00 L525.00 400.00 M575.00 0.00 L575.00 400.00 M625.00 0.00 L625.00 400.00 " style="fill:none;stroke:#D0D0D0;stroke-width:1;" /><path d="M325.00 0.00 L325.00 400.00 " style="fill:none;stroke:#000000;stroke-width:1;" /><path d="M318.50 400.00 L331.50 400.00 M318.50 350.00 L331.50 350.00 M318.50 300.00 L331.50 300.00 M318.50 250.00 L331.50 250.00 M318.50 200.00 L331.50 200.00 M318.50 150.00 L331.50 150.00 M318.50 100.00 L331.50 100.00 M318.50 50.00 L331.50 50.00 M318.50 0.00 L331.50 0.00 " style="fill:none;stroke:#000000;stroke-width:1;" /><path d="M0.00 200.00 L650.00 200.00 " style="fill:none;stroke:#000000;stroke-width:1;" /><path d="M-25.00 193.50 L-25.00 206.50 M25.00 193.50 L25.00 206.50 M75.00 193.50 L75.00 206.50 M125.00 193.50 L125.00 206.50 M175.00 193.50 L175.00 206.50 M225.00 193.50 L225.00 206.50 M275.00 193.50 L275.00 206.50 M325.00 193.50 L325.00 206.50 M375.00 193.50 L375.00 206.50 M425.00 193.50 L425.00 206.50 M475.00 193.50 L475.00 206.50 M525.00 193.50 L525.00 206.50 M575.00 193.50 L575.00 206.50 M625.00 193.50 L625.00 206.50 " style="fill:none;stroke:#000000;stroke-width:1;" /><text x="333.125" y="352.5" text-anchor="start" style="font:10px Droid Sans,Trebuchet MS,Arial,Helvetica,sans-serif;stroke:none;fill:#000000">-3</text><text x="333.125" y="302.5" text-anchor="start" style="font:10px Droid Sans,Trebuchet MS,Arial,Helvetica,sans-serif;stroke:none;fill:#000000">-2</text><text x="333.125" y="252.5" text-anchor="start" style="font:10px Droid Sans,Trebuchet MS,Arial,Helvetica,sans-serif;stroke:none;fill:#000000">-1</text><text x="333.125" y="202.5" text-anchor="start" style="font:10px Droid Sans,Trebuchet MS,Arial,Helvetica,sans-serif;stroke:none;fill:#000000">0</text><text x="333.125" y="152.5" text-anchor="start" style="font:10px Droid Sans,Trebuchet MS,Arial,Helvetica,sans-serif;stroke:none;fill:#000000">1</text><text x="333.125" y="102.5" text-anchor="start" style="font:10px Droid Sans,Trebuchet MS,Arial,Helvetica,sans-serif;stroke:none;fill:#000000">2</text><text x="333.125" y="52.5" text-anchor="start" style="font:10px Droid Sans,Trebuchet MS,Arial,Helvetica,sans-serif;stroke:none;fill:#000000">3</text><text x="25" y="216.125" text-anchor="middle" style="font:10px Droid Sans,Trebuchet MS,Arial,Helvetica,sans-serif;stroke:none;fill:#000000">-6</text><text x="75" y="216.125" text-anchor="middle" style="font:10px Droid Sans,Trebuchet MS,Arial,Helvetica,sans-serif;stroke:none;fill:#000000">-5</text><text x="125" y="216.125" text-anchor="middle" style="font:10px Droid Sans,Trebuchet MS,Arial,Helvetica,sans-serif;stroke:none;fill:#000000">-4</text><text x="175" y="216.125" text-anchor="middle" style="font:10px Droid Sans,Trebuchet MS,Arial,Helvetica,sans-serif;stroke:none;fill:#000000">-3</text><text x="225" y="216.125" text-anchor="middle" style="font:10px Droid Sans,Trebuchet MS,Arial,Helvetica,sans-serif;stroke:none;fill:#000000">-2</text><text x="275" y="216.125" text-anchor="middle" style="font:10px Droid Sans,Trebuchet MS,Arial,Helvetica,sans-serif;stroke:none;fill:#000000">-1</text><text x="325" y="216.125" text-anchor="middle" style="font:10px Droid Sans,Trebuchet MS,Arial,Helvetica,sans-serif;stroke:none;fill:#000000">0</text><text x="374.99999999999994" y="216.125" text-anchor="middle" style="font:10px Droid Sans,Trebuchet MS,Arial,Helvetica,sans-serif;stroke:none;fill:#000000">1</text><text x="425" y="216.125" text-anchor="middle" style="font:10px Droid Sans,Trebuchet MS,Arial,Helvetica,sans-serif;stroke:none;fill:#000000">2</text><text x="475" y="216.125" text-anchor="middle" style="font:10px Droid Sans,Trebuchet MS,Arial,Helvetica,sans-serif;stroke:none;fill:#000000">3</text><text x="525" y="216.125" text-anchor="middle" style="font:10px Droid Sans,Trebuchet MS,Arial,Helvetica,sans-serif;stroke:none;fill:#000000">4</text><text x="575" y="216.125" text-anchor="middle" style="font:10px Droid Sans,Trebuchet MS,Arial,Helvetica,sans-serif;stroke:none;fill:#000000">5</text><text x="625" y="216.125" text-anchor="middle" style="font:10px Droid Sans,Trebuchet MS,Arial,Helvetica,sans-serif;stroke:none;fill:#000000">6</text><path d="M275.00 43.24 L275.00 43.43 L275.01 43.96 L275.03 44.54 L275.05 45.22 L275.09 45.96 L275.15 46.74 L275.21 47.55 L275.30 48.38 L275.40 49.24 L275.52 50.11 L275.65 51.00 L275.80 51.90 L275.97 52.80 L276.16 53.71 L276.37 54.63 L276.59 55.56 L276.83 56.49 L277.09 57.43 L277.37 58.36 L277.66 59.31 L277.97 60.25 L278.31 61.20 L278.65 62.15 L279.02 63.11 L279.40 64.06 L279.81 65.02 L280.23 65.98 L280.66 66.94 L281.12 67.91 L281.59 68.87 L282.07 69.84 L282.58 70.81 L283.10 71.78 L283.64 72.75 L284.19 73.72 L284.76 74.69 L285.35 75.67 L285.95 76.64 L286.56 77.62 L287.20 78.60 L287.84 79.57 L288.50 80.55 L289.18 81.53 L289.87 82.51 L290.58 83.49 L291.30 84.47 L292.03 85.46 L292.77 86.44 L293.53 87.42 L294.30 88.41 L295.08 89.39 L295.88 90.38 L296.69 91.36 L297.51 92.35 L298.34 93.34 L299.18 94.32 L300.03 95.31 L300.89 96.30 L301.76 97.29 L302.64 98.28 L303.53 99.27 L304.43 100.26 L305.34 101.25 L306.25 102.24 L307.18 103.23 L308.11 104.23 L309.04 105.22 L309.99 106.21 L310.94 107.21 L311.90 108.20 L312.86 109.20 L313.83 110.19 L314.80 111.19 L315.77 112.18 L316.76 113.18 L317.74 114.17 L318.73 115.17 L319.72 116.17 L320.71 117.17 L321.71 118.17 L322.70 119.16 L323.70 120.16 L324.70 121.16 L325.70 122.16 L326.70 123.16 L327.70 124.16 L328.70 125.16 L329.70 126.17 L330.70 127.17 L331.69 128.17 L332.68 129.17 L333.67 130.18 L334.66 131.18 L335.64 132.18 L336.62 133.19 L337.60 134.19 L338.57 135.20 L339.53 136.20 L340.49 137.21 L341.44 138.22 L342.39 139.22 L343.33 140.23 L344.27 141.24 L345.19 142.25 L346.11 143.26 L347.02 144.27 L347.93 145.28 L348.82 146.29 L349.70 147.30 L350.58 148.31 L351.44 149.32 L352.30 150.33 L353.14 151.35 L353.97 152.36 L354.79 153.38 L355.60 154.39 L356.40 155.41 L357.18 156.42 L357.95 157.44 L358.71 158.46 L359.46 159.48 L360.19 160.50 L360.91 161.52 L361.61 162.54 L362.30 163.56 L362.97 164.58 L363.63 165.61 L364.27 166.63 L364.90 167.66 L365.51 168.69 L366.11 169.72 L366.68 170.75 L367.24 171.78 L367.79 172.81 L368.31 173.85 L368.82 174.88 L369.31 175.92 L369.79 176.96 L370.24 178.00 L370.67 179.05 L371.09 180.10 L371.49 181.15 L371.87 182.20 L372.22 183.26 L372.56 184.33 L372.88 185.39 L373.18 186.47 L373.46 187.55 L373.71 188.64 L373.95 189.74 L374.16 190.85 L374.36 191.98 L374.53 193.13 L374.68 194.31 L374.80 195.55 L374.90 196.89 L374.98 198.55 " style="fill:none;stroke:#000000;stroke-width:1;" /></g></svg>