<?xml version="1.0" standalone="no"?><!DOCTYPE svg PUBLIC "-//W3C//DTD SVG 1.1//EN" "http://www.w3.org/Graphics/SVG/1.1/DTD/svg11.dtd"><svg xmlns="http://www.w3.org/2000/svg" viewBox="0 0 650 400" version="1.1"><clipPath id="box"><rect x="0" y="0" width="650" height="400" style="fill:none;stroke:none;" /></clipPath><g clip-path="url(#box)"><rect x="0.00" y="0.00" width="650.00" height="400.00" style="fill:#FFFFFF;stroke:none;" /><path d="M0.00 350.00 L650.00 350.00 M0.00 300.00 L650.00 300.00 M0.00 250.00 L650.00 250.00 M0.00 200.00 L650.00 200.00 M0.00 149.00 L650.00 149.00 M0.00 99.00 L650.00 99.00 M0.00 49.00 L650.00 49.00 M24.00 0.00 L24.00 400.00 M74.00 0.00 L74.00 400.00 M124.00 0.00 L124.00 400.00 M174.00 0.00 L174.00 400.00 M224.00 0.00 L224.00 400.00 M274.00 0.00 L274.00 400.00 M325.00 0.00 L325.00 400.00 M375.00 0.00 L375.00 400.00 M425.00 0.00 L425.00 400.00 M475.00 0.00 L475.00 400.00 M525.00 0.00 L525.00 400.00 M575.00 0.00 L575.00 400.00 M625.00 0.00 L625.00 400.00 " style="fill:none;stroke:#D0D0D0;stroke-width:1;" /><path d="M325.00 0.00 L325.00 400.00 " style="fill:none;stroke:#000000;stroke-width:1;" /><path d="M318.50 400.00 L331.50 400.00 M318.50 350.00 L331.50 350.00 M318.50 300.00 L331.50 300.00 M318.50 250.00 L331.50 250.00 M318.50 200.00 L331.50 200.00 M318.50 150.00 L331.50 150.00 M318.50 100.00 L331.50 100.00 M318.50 50.00 L331.50 50.00 " style="fill:none;stroke:#000000;stroke-width:1;" /><path d="M0.00 200.00 L650.00 200.00 " style="fill:none;stroke:#000000;stroke-width:1;" /><path d="M-25.00 193.50 L-25.00 206.50 M25.00 193.50 L25.00 206.50 M75.00 193.50 L75.00 206.50 M125.00 193.50 L125.00 206.50 M175.00 193.50 L175.00 206.50 M225.00 193.50 L225.00 206.50 M275.00 193.50 L275.00 206.50 M325.00 193.50 L325.00 206.50 M375.00 193.50 L375.00 206.50 M425.00 193.50 L425.00 206.50 M475.00 193.50 L475.00 206.50 M525.00 193.50 L525.00 206.50 M575.00 193.50 L575.00 206.50 M625.00 193.50 L625.00 206.50 " style="fill:none;stroke:#000000;stroke-width:1;" /><text x="333.125" y="352.50000000000057" text-anchor="start" style="font:10px Droid Sans,Trebuchet MS,Arial,Helvetica,sans-serif;stroke:none;fill:#000000">-3</text><text x="333.125" y="302.50000000000034" text-anchor="start" style="font:10px Droid Sans,Trebuchet MS,Arial,Helvetica,sans-serif;stroke:none;fill:#000000">-2</text><text x="333.125" y="252.50000000000017" text-anchor="start" style="font:10px Droid Sans,Trebuchet MS,Arial,Helvetica,sans-serif;stroke:none;fill:#000000">-1</text><text x="333.125" y="202.5" text-anchor="start" style="font:10px Droid Sans,Trebuchet MS,Arial,Helvetica,sans-serif;stroke:none;fill:#000000">0</text><text x="333.125" y="152.4999999999998" text-anchor="start" style="font:10px Droid Sans,Trebuchet MS,Arial,Helvetica,sans-serif;stroke:none;fill:#000000">1</text><text x="333.125" y="102.49999999999962" text-anchor="start" style="font:10px Droid Sans,Trebuchet MS,Arial,Helvetica,sans-serif;stroke:none;fill:#000000">2</text><text x="333.125" y="52.49999999999942" text-anchor="start" style="font:10px Droid Sans,Trebuchet MS,Arial,Helvetica,sans-serif;stroke:none;fill:#000000">3</text><text x="24.99999999999881" y="216.125" text-anchor="middle" style="font:10px Droid Sans,Trebuchet MS,Arial,Helvetica,sans-serif;stroke:none;fill:#000000">-6</text><text x="74.999999999999" y="216.125" text-anchor="middle" style="font:10px Droid Sans,Trebuchet MS,Arial,Helvetica,sans-serif;stroke:none;fill:#000000">-5</text><text x="124.99999999999922" y="216.125" text-anchor="middle" style="font:10px Droid Sans,Trebuchet MS,Arial,Helvetica,sans-serif;stroke:none;fill:#000000">-4</text><text x="174.9999999999994" y="216.125" text-anchor="middle" style="font:10px Droid Sans,Trebuchet MS,Arial,Helvetica,sans-serif;stroke:none;fill:#000000">-3</text><text x="224.9999999999996" y="216.125" text-anchor="middle" style="font:10px Droid Sans,Trebuchet MS,Arial,Helvetica,sans-serif;stroke:none;fill:#000000">-2</text><text x="274.99999999999983" y="216.125" text-anchor="middle" style="font:10px Droid Sans,Trebuchet MS,Arial,Helvetica,sans-serif;stroke:none;fill:#000000">-1</text><text x="325" y="216.125" text-anchor="middle" style="font:10px Droid Sans,Trebuchet MS,Arial,Helvetica,sans-serif;stroke:none;fill:#000000">0</text><text x="375.00000000000017" y="216.125" text-anchor="middle" style="font:10px Droid Sans,Trebuchet MS,Arial,Helvetica,sans-serif;stroke:none;fill:#000000">1</text><text x="425.00000000000045" y="216.125" text-anchor="middle" style="font:10px Droid Sans,Trebuchet MS,Arial,Helvetica,sans-serif;stroke:none;fill:#000000">2</text><text x="475.0000000000006" y="216.125" text-anchor="middle" style="font:10px Droid Sans,Trebuchet MS,Arial,Helvetica,sans-serif;stroke:none;fill:#000000">3</text><text x="525.0000000000008" y="216.125" text-anchor="middle" style="font:10px Droid Sans,Trebuchet MS,Arial,Helvetica,sans-serif;stroke:none;fill:#000000">4</text><text x="575.000000000001" y="216.125" text-anchor="middle" style="font:10px Droid Sans,Trebuchet MS,Arial,Helvetica,sans-serif;stroke:none;fill:#000000">5</text><text x="625.0000000000013" y="216.125" text-anchor="middle" style="font:10px Droid Sans,Trebuchet MS,Arial,Helvetica,sans-serif;stroke:none;fill:#000000">6</text><path d="M220.26 400.00 L220.26 400.00 L220.51 399.00 L220.75 398.00 L220.99 397.01 L221.24 396.01 L221.49 395.02 L221.73 394.02 L221.98 393.03 L222.23 392.03 L222.49 391.04 L222.74 390.04 L222.99 389.05 L223.25 388.05 L223.50 387.06 L223.76 386.06 L224.02 385.07 L224.28 384.07 L224.54 383.08 L224.80 382.08 L225.07 381.09 L225.33 380.09 L225.60 379.10 L225.87 378.10 L226.14 377.11 L226.41 376.11 L226.68 375.12 L226.96 374.12 L227.23 373.13 L227.51 372.13 L227.79 371.14 L228.07 370.14 L228.35 369.15 L228.63 368.16 L228.91 367.16 L229.20 366.17 L229.49 365.17 L229.78 364.18 L230.07 363.18 L230.36 362.19 L230.65 361.19 L230.95 360.20 L231.24 359.21 L231.54 358.21 L231.84 357.22 L232.15 356.22 L232.45 355.23 L232.76 354.23 L233.06 353.24 L233.37 352.25 L233.68 351.25 L234.00 350.26 L234.31 349.26 L234.63 348.27 L234.95 347.28 L235.27 346.28 L235.59 345.29 L235.91 344.29 L236.24 343.30 L236.57 342.31 L236.90 341.31 L237.23 340.32 L237.57 339.32 L237.90 338.33 L238.24 337.34 L238.58 336.34 L238.93 335.35 L239.27 334.36 L239.62 333.36 L239.97 332.37 L240.32 331.38 L240.68 330.38 L241.03 329.39 L241.39 328.40 L241.75 327.40 L242.12 326.41 L242.48 325.42 L242.85 324.42 L243.22 323.43 L243.60 322.44 L243.98 321.44 L244.36 320.45 L244.74 319.46 L245.12 318.46 L245.51 317.47 L245.90 316.48 L246.29 315.49 L246.69 314.49 L247.09 313.50 L247.49 312.51 L247.89 311.52 L248.30 310.52 L248.71 309.53 L249.13 308.54 L249.54 307.54 L249.96 306.55 L250.39 305.56 L250.81 304.57 L251.24 303.58 L251.67 302.58 L252.11 301.59 L252.55 300.60 L252.99 299.61 L253.44 298.61 L253.89 297.62 L254.35 296.63 L254.80 295.64 L255.26 294.65 L255.73 293.65 L256.20 292.66 L256.67 291.67 L257.15 290.68 L257.63 289.69 L258.11 288.70 L258.60 287.70 L259.10 286.71 L259.59 285.72 L260.10 284.73 L260.60 283.74 L261.11 282.75 L261.63 281.76 L262.15 280.77 L262.67 279.77 L263.20 278.78 L263.73 277.79 L264.27 276.80 L264.81 275.81 L265.36 274.82 L265.92 273.83 L266.47 272.84 L267.04 271.85 L267.61 270.86 L268.18 269.87 L268.76 268.87 L269.34 267.88 L269.93 266.89 L270.53 265.90 L271.13 264.91 L271.74 263.92 L272.35 262.93 L272.97 261.94 L273.60 260.95 L274.23 259.96 L274.86 258.97 L275.51 257.98 L276.16 256.99 L276.81 256.00 L277.48 255.01 L278.15 254.02 L278.82 253.03 L279.50 252.04 L280.19 251.05 L280.89 250.06 L281.59 249.07 L282.30 248.08 L283.02 247.09 L283.75 246.10 L284.48 245.11 L285.22 244.12 L285.96 243.13 L286.72 242.14 L287.48 241.15 L288.24 240.16 L289.02 239.17 L289.80 238.18 L290.60 237.18 L291.39 236.19 L292.20 235.20 L293.01 234.21 L293.84 233.22 L294.66 232.23 L295.50 231.24 L296.35 230.25 L297.20 229.26 L298.06 228.27 L298.92 227.27 L299.80 226.28 L300.68 225.29 L301.57 224.30 L302.46 223.31 L303.37 222.31 L304.28 221.32 L305.19 220.33 L306.12 219.34 L307.05 218.34 L307.98 217.35 L308.92 216.35 L309.87 215.36 L310.82 214.37 L311.78 213.37 L312.75 212.38 L313.71 211.38 L314.69 210.39 L315.66 209.39 L316.65 208.39 L317.63 207.40 L318.62 206.40 L319.61 205.40 L320.60 204.40 L321.60 203.41 L322.59 202.41 L323.59 201.41 L324.59 200.41 L325.59 199.41 L326.59 198.41 L327.59 197.41 L328.59 196.41 L329.59 195.41 L330.58 194.40 L331.58 193.40 L332.57 192.40 L333.56 191.40 L334.55 190.39 L335.53 189.39 L336.51 188.38 L337.49 187.38 L338.46 186.38 L339.43 185.37 L340.39 184.36 L341.35 183.36 L342.30 182.35 L343.25 181.35 L344.19 180.34 L345.12 179.33 L346.05 178.33 L346.97 177.32 L347.88 176.31 L348.79 175.30 L349.69 174.30 L350.58 173.29 L351.47 172.28 L352.35 171.27 L353.22 170.26 L354.08 169.25 L354.94 168.24 L355.78 167.23 L356.62 166.22 L357.46 165.22 L358.28 164.21 L359.10 163.20 L359.91 162.19 L360.71 161.18 L361.50 160.17 L362.29 159.16 L363.07 158.15 L363.84 157.14 L364.60 156.13 L365.36 155.12 L366.10 154.11 L366.84 153.10 L367.58 152.09 L368.30 151.08 L369.02 150.07 L369.73 149.06 L370.44 148.05 L371.13 147.04 L371.82 146.03 L372.51 145.02 L373.18 144.01 L373.85 143.00 L374.52 141.99 L375.17 140.98 L375.82 139.97 L376.46 138.96 L377.10 137.95 L377.73 136.94 L378.36 135.93 L378.97 134.92 L379.59 133.91 L380.19 132.90 L380.79 131.89 L381.39 130.88 L381.98 129.87 L382.56 128.86 L383.14 127.85 L383.71 126.84 L384.28 125.83 L384.84 124.82 L385.39 123.81 L385.95 122.80 L386.49 121.79 L387.03 120.78 L387.57 119.77 L388.10 118.76 L388.63 117.76 L389.15 116.75 L389.67 115.74 L390.18 114.73 L390.69 113.72 L391.19 112.71 L391.69 111.70 L392.18 110.69 L392.67 109.68 L393.16 108.68 L393.64 107.67 L394.12 106.66 L394.60 105.65 L395.07 104.64 L395.53 103.63 L396.00 102.63 L396.45 101.62 L396.91 100.61 L397.36 99.60 L397.81 98.59 L398.25 97.59 L398.69 96.58 L399.13 95.57 L399.56 94.56 L399.99 93.55 L400.42 92.55 L400.84 91.54 L401.26 90.53 L401.68 89.52 L402.09 88.51 L402.50 87.51 L402.91 86.50 L403.32 85.49 L403.72 84.49 L404.12 83.48 L404.51 82.47 L404.91 81.46 L405.30 80.46 L405.68 79.45 L406.07 78.44 L406.45 77.43 L406.83 76.43 L407.21 75.42 L407.58 74.41 L407.95 73.41 L408.32 72.40 L408.68 71.39 L409.05 70.39 L409.41 69.38 L409.77 68.37 L410.12 67.37 L410.48 66.36 L410.83 65.35 L411.18 64.35 L411.53 63.34 L411.87 62.33 L412.21 61.33 L412.55 60.32 L412.89 59.31 L413.23 58.31 L413.56 57.30 L413.89 56.29 L414.22 55.29 L414.55 54.28 L414.88 53.28 L415.20 52.27 L415.52 51.26 L415.84 50.26 L416.16 49.25 L416.47 48.25 L416.79 47.24 L417.10 46.23 L417.41 45.23 L417.72 44.22 L418.03 43.22 L418.33 42.21 L418.63 41.20 L418.93 40.20 L419.23 39.19 L419.53 38.19 L419.83 37.18 L420.12 36.18 L420.41 35.17 L420.71 34.16 L421.00 33.16 L421.28 32.15 L421.57 31.15 L421.85 30.14 L422.14 29.14 L422.42 28.13 L422.70 27.13 L422.98 26.12 L423.25 25.11 L423.53 24.11 L423.80 23.10 L424.08 22.10 L424.35 21.09 L424.62 20.09 L424.89 19.08 L425.15 18.08 L425.42 17.07 L425.68 16.07 L425.95 15.06 L426.21 14.06 L426.47 13.05 L426.73 12.05 L426.99 11.04 L427.24 10.04 L427.50 9.03 L427.75 8.03 L428.00 7.02 L428.26 6.02 L428.51 5.01 L428.75 4.01 L429.00 3.00 L429.25 2.00 L429.49 0.99 L429.74 -0.01 " style="fill:none;stroke:#000000;stroke-width:1;" /></g></svg>