<?xml version="1.0" standalone="no"?><!DOCTYPE svg PUBLIC "-//W3C//DTD SVG 1.1//EN" "http://www.w3.org/Graphics/SVG/1.1/DTD/svg11.dtd"><svg xmlns="http://www.w3.org/2000/svg" viewBox="0 0 650 400" version="1.1"><clipPath id="box"><rect x="0" y="0" width="650" height="400" style="fill:none;stroke:none;" /></clipPath><g clip-path="url(#box)"><rect x="0.00" y="0.00" width="650.00" height="400.00" style="fill:#FFFFFF;stroke:none;" /><path d="M0.00 356.00 L650.00 356.00 M0.00 278.00 L650.00 278.00 M0.00 200.00 L650.00 200.00 M0.00 121.00 L650.00 121.00 M0.00 43.00 L650.00 43.00 M12.00 0.00 L12.00 400.00 M90.00 0.00 L90.00 400.00 M168.00 0.00 L168.00 400.00 M246.00 0.00 L246.00 400.00 M325.00 0.00 L325.00 400.00 M403.00 0.00 L403.00 400.00 M481.00 0.00 L481.00 400.00 M559.00 0.00 L559.00 400.00 M637.00 0.00 L637.00 400.00 " style="fill:none;stroke:#D0D0D0;stroke-width:1;" /><path d="M325.00 0.00 L325.00 400.00 " style="fill:none;stroke:#000000;stroke-width:1;" /><path d="M318.50 434.38 L331.50 434.38 M318.50 356.25 L331.50 356.25 M318.50 278.13 L331.50 278.13 M318.50 200.00 L331.50 200.00 M318.50 121.87 L331.50 121.87 M318.50 43.75 L331.50 43.75 " style="fill:none;stroke:#000000;stroke-width:1;" /><path d="M0.00 200.00 L650.00 200.00 " style="fill:none;stroke:#000000;stroke-width:1;" /><path d="M-65.63 193.50 L-65.63 206.50 M12.50 193.50 L12.50 206.50 M90.62 193.50 L90.62 206.50 M168.75 193.50 L168.75 206.50 M246.87 193.50 L246.87 206.50 M325.00 193.50 L325.00 206.50 M403.13 193.50 L403.13 206.50 M481.25 193.50 L481.25 206.50 M559.38 193.50 L559.38 206.50 M637.50 193.50 L637.50 206.50 " style="fill:none;stroke:#000000;stroke-width:1;" /><text x="333.125" y="358.7500000000003" text-anchor="start" style="font:10px Droid Sans,Trebuchet MS,Arial,Helvetica,sans-serif;stroke:none;fill:#000000">-2</text><text x="333.125" y="280.6250000000001" text-anchor="start" style="font:10px Droid Sans,Trebuchet MS,Arial,Helvetica,sans-serif;stroke:none;fill:#000000">-1</text><text x="333.125" y="202.5" text-anchor="start" style="font:10px Droid Sans,Trebuchet MS,Arial,Helvetica,sans-serif;stroke:none;fill:#000000">0</text><text x="333.125" y="124.37499999999989" text-anchor="start" style="font:10px Droid Sans,Trebuchet MS,Arial,Helvetica,sans-serif;stroke:none;fill:#000000">1</text><text x="333.125" y="46.24999999999979" text-anchor="start" style="font:10px Droid Sans,Trebuchet MS,Arial,Helvetica,sans-serif;stroke:none;fill:#000000">2</text><text x="12.499999999999611" y="216.125" text-anchor="middle" style="font:10px Droid Sans,Trebuchet MS,Arial,Helvetica,sans-serif;stroke:none;fill:#000000">-4</text><text x="90.62499999999972" y="216.125" text-anchor="middle" style="font:10px Droid Sans,Trebuchet MS,Arial,Helvetica,sans-serif;stroke:none;fill:#000000">-3</text><text x="168.7499999999998" y="216.125" text-anchor="middle" style="font:10px Droid Sans,Trebuchet MS,Arial,Helvetica,sans-serif;stroke:none;fill:#000000">-2</text><text x="246.87499999999991" y="216.125" text-anchor="middle" style="font:10px Droid Sans,Trebuchet MS,Arial,Helvetica,sans-serif;stroke:none;fill:#000000">-1</text><text x="325" y="216.125" text-anchor="middle" style="font:10px Droid Sans,Trebuchet MS,Arial,Helvetica,sans-serif;stroke:none;fill:#000000">0</text><text x="403.12500000000006" y="216.125" text-anchor="middle" style="font:10px Droid Sans,Trebuchet MS,Arial,Helvetica,sans-serif;stroke:none;fill:#000000">1</text><text x="481.25000000000017" y="216.125" text-anchor="middle" style="font:10px Droid Sans,Trebuchet MS,Arial,Helvetica,sans-serif;stroke:none;fill:#000000">2</text><text x="559.3750000000003" y="216.125" text-anchor="middle" style="font:10px Droid Sans,Trebuchet MS,Arial,Helvetica,sans-serif;stroke:none;fill:#000000">3</text><text x="637.5000000000005" y="216.125" text-anchor="middle" style="font:10px Droid Sans,Trebuchet MS,Arial,Helvetica,sans-serif;stroke:none;fill:#000000">4</text><path d="M-10.00 200.00 L-0.25 159.22 L0.75 158.37 L1.93 157.38 L3.11 156.39 L4.31 155.40 L5.53 154.41 L6.75 153.42 L7.99 152.43 L9.24 151.44 L10.51 150.46 L11.79 149.47 L13.10 148.48 L14.42 147.50 L15.76 146.51 L17.12 145.53 L18.50 144.55 L19.91 143.56 L21.34 142.58 L22.80 141.60 L24.29 140.62 L25.81 139.65 L27.37 138.67 L28.96 137.70 L30.60 136.72 L32.28 135.75 L34.01 134.78 L35.80 133.82 L37.65 132.85 L39.57 131.89 L41.56 130.94 L43.56 130.02 L45.56 129.16 L47.56 128.34 L49.56 127.56 L51.56 126.84 L53.56 126.16 L55.56 125.53 L57.56 124.95 L59.56 124.42 L61.56 123.94 L63.56 123.51 L65.56 123.13 L67.56 122.79 L69.56 122.51 L71.56 122.28 L73.56 122.11 L75.56 121.98 L77.56 121.90 L79.56 121.87 L81.56 121.90 L83.56 121.98 L85.56 122.11 L87.56 122.28 L89.56 122.51 L91.56 122.79 L93.56 123.13 L95.56 123.51 L97.56 123.94 L99.56 124.42 L101.56 124.95 L103.56 125.53 L105.56 126.16 L107.56 126.84 L109.56 127.56 L111.56 128.34 L113.56 129.16 L115.56 130.02 L117.56 130.94 L119.56 131.89 L121.56 132.90 L123.56 133.94 L125.47 134.98 L127.31 136.02 L129.08 137.05 L130.80 138.08 L132.46 139.11 L134.08 140.14 L135.65 141.16 L137.19 142.18 L138.70 143.21 L140.17 144.23 L141.61 145.24 L143.02 146.26 L144.41 147.28 L145.78 148.30 L147.12 149.31 L148.45 150.33 L149.75 151.34 L151.04 152.35 L152.31 153.37 L153.56 154.38 L154.80 155.39 L156.03 156.40 L157.24 157.41 L158.44 158.42 L159.62 159.43 L160.80 160.44 L161.97 161.45 L163.12 162.46 L164.26 163.47 L165.40 164.47 L166.53 165.48 L167.65 166.49 L168.76 167.49 L169.86 168.50 L170.96 169.51 L172.05 170.51 L173.13 171.52 L174.21 172.52 L175.28 173.53 L176.34 174.53 L177.40 175.54 L178.46 176.54 L179.51 177.55 L180.55 178.55 L181.60 179.56 L182.63 180.56 L183.67 181.56 L184.70 182.57 L185.73 183.57 L186.75 184.57 L187.77 185.57 L188.79 186.58 L189.81 187.58 L190.82 188.58 L191.83 189.58 L192.84 190.59 L193.85 191.59 L194.86 192.59 L195.86 193.59 L196.87 194.59 L197.87 195.59 L198.87 196.59 L199.87 197.59 L200.87 198.59 L201.87 199.59 L202.87 199.41 L204.87 197.41 L205.88 196.41 L206.88 195.41 L207.88 194.41 L208.88 193.41 L209.88 192.41 L210.89 191.41 L211.89 190.41 L212.90 189.42 L213.91 188.42 L214.92 187.42 L215.93 186.42 L216.94 185.42 L217.96 184.43 L218.98 183.43 L220.00 182.43 L221.03 181.43 L222.05 180.44 L223.09 179.44 L224.12 178.44 L225.16 177.45 L226.20 176.45 L227.25 175.46 L228.30 174.46 L229.35 173.47 L230.42 172.47 L231.48 171.48 L232.55 170.48 L233.63 169.49 L234.71 168.49 L235.80 167.50 L236.90 166.50 L238.00 165.51 L239.11 164.52 L240.23 163.53 L241.36 162.53 L242.49 161.54 L243.64 160.55 L244.79 159.56 L245.95 158.57 L247.13 157.58 L248.31 156.59 L249.51 155.60 L250.72 154.61 L251.94 153.62 L253.18 152.63 L254.43 151.64 L255.69 150.65 L256.97 149.67 L258.27 148.68 L259.59 147.70 L260.93 146.71 L262.28 145.73 L263.66 144.74 L265.06 143.76 L266.49 142.78 L267.94 141.80 L269.43 140.82 L270.94 139.84 L272.49 138.87 L274.08 137.89 L275.71 136.92 L277.38 135.95 L279.10 134.98 L280.87 134.01 L282.71 133.04 L284.61 132.08 L286.59 131.13 L288.59 130.21 L290.59 129.33 L292.59 128.50 L294.59 127.72 L296.59 126.98 L298.59 126.30 L300.59 125.66 L302.59 125.07 L304.59 124.53 L306.59 124.03 L308.59 123.59 L310.59 123.20 L312.59 122.86 L314.59 122.57 L316.59 122.33 L318.59 122.14 L320.59 122.00 L322.59 121.91 L324.59 121.88 L326.59 121.89 L328.59 121.96 L330.59 122.08 L332.59 122.24 L334.59 122.46 L336.59 122.73 L338.59 123.05 L340.59 123.43 L342.59 123.85 L344.59 124.32 L346.59 124.84 L348.59 125.41 L350.59 126.03 L352.59 126.70 L354.59 127.41 L356.59 128.18 L358.59 128.99 L360.59 129.84 L362.59 130.75 L364.59 131.70 L366.59 132.69 L368.59 133.73 L370.52 134.77 L372.37 135.80 L374.16 136.84 L375.89 137.87 L377.56 138.90 L379.19 139.93 L380.77 140.95 L382.32 141.97 L383.83 143.00 L385.30 144.02 L386.75 145.04 L388.17 146.05 L389.57 147.07 L390.94 148.09 L392.29 149.10 L393.61 150.12 L394.92 151.13 L396.21 152.15 L397.49 153.16 L398.74 154.17 L399.99 155.18 L401.21 156.19 L402.43 157.20 L403.63 158.21 L404.82 159.22 L406.00 160.23 L407.16 161.24 L408.32 162.25 L409.47 163.26 L410.60 164.27 L411.73 165.27 L412.85 166.28 L413.97 167.29 L415.07 168.29 L416.17 169.30 L417.26 170.31 L418.34 171.31 L419.42 172.32 L420.49 173.32 L421.56 174.33 L422.62 175.33 L423.68 176.34 L424.73 177.34 L425.78 178.35 L426.82 179.35 L427.86 180.35 L428.89 181.36 L429.93 182.36 L430.95 183.36 L431.98 184.37 L433.00 185.37 L434.02 186.37 L435.04 187.37 L436.05 188.38 L437.06 189.38 L438.07 190.38 L439.08 191.38 L440.09 192.38 L441.09 193.38 L442.10 194.39 L443.10 195.39 L444.10 196.39 L445.11 197.39 L446.11 198.39 L447.11 199.39 L448.11 199.61 L450.11 197.61 L451.11 196.61 L452.11 195.61 L453.11 194.61 L454.11 193.61 L455.11 192.62 L456.12 191.62 L457.12 190.62 L458.13 189.62 L459.14 188.62 L460.15 187.62 L461.16 186.63 L462.17 185.63 L463.19 184.63 L464.21 183.63 L465.23 182.64 L466.25 181.64 L467.28 180.64 L468.31 179.65 L469.34 178.65 L470.38 177.65 L471.42 176.66 L472.47 175.66 L473.52 174.67 L474.57 173.67 L475.63 172.67 L476.70 171.68 L477.77 170.69 L478.84 169.69 L479.93 168.70 L481.01 167.70 L482.11 166.71 L483.21 165.72 L484.32 164.72 L485.44 163.73 L486.56 162.74 L487.70 161.74 L488.84 160.75 L489.99 159.76 L491.15 158.77 L492.32 157.78 L493.51 156.79 L494.70 155.80 L495.91 154.81 L497.13 153.82 L498.36 152.83 L499.61 151.84 L500.87 150.86 L502.15 149.87 L503.44 148.88 L504.75 147.90 L506.09 146.91 L507.44 145.93 L508.81 144.94 L510.21 143.96 L511.63 142.98 L513.08 142.00 L514.56 141.02 L516.07 140.04 L517.61 139.07 L519.19 138.09 L520.81 137.12 L522.47 136.14 L524.18 135.17 L525.94 134.21 L527.76 133.24 L529.65 132.28 L531.62 131.32 L533.62 130.39 L535.62 129.51 L537.62 128.67 L539.62 127.88 L541.62 127.13 L543.62 126.43 L545.62 125.78 L547.62 125.18 L549.62 124.63 L551.62 124.13 L553.62 123.68 L555.62 123.28 L557.62 122.92 L559.62 122.62 L561.62 122.37 L563.62 122.17 L565.62 122.02 L567.62 121.93 L569.62 121.88 L571.62 121.88 L573.62 121.94 L575.62 122.05 L577.62 122.20 L579.62 122.41 L581.62 122.67 L583.62 122.98 L585.62 123.35 L587.62 123.76 L589.62 124.22 L591.62 124.73 L593.62 125.29 L595.62 125.90 L597.62 126.56 L599.62 127.26 L601.62 128.01 L603.62 128.82 L605.62 129.66 L607.62 130.56 L609.62 131.50 L611.62 132.48 L613.62 133.51 L615.56 134.55 L617.43 135.59 L619.23 136.62 L620.97 137.65 L622.65 138.68 L624.29 139.71 L625.88 140.74 L627.43 141.76 L628.95 142.78 L630.43 143.80 L631.89 144.82 L633.31 145.84 L634.71 146.86 L636.09 147.88 L637.44 148.89 L638.78 149.91 L640.09 150.92 L641.38 151.93 L642.66 152.95 L643.92 153.96 L645.16 154.97 L646.40 155.98 L647.61 156.99 L648.82 158.00 " style="fill:none;stroke:#000000;stroke-width:1;" /></g></svg>