<?xml version="1.0" standalone="no"?><!DOCTYPE svg PUBLIC "-//W3C//DTD SVG 1.1//EN" "http://www.w3.org/Graphics/SVG/1.1/DTD/svg11.dtd"><svg xmlns="http://www.w3.org/2000/svg" viewBox="0 0 650 400" version="1.1"><clipPath id="box"><rect x="0" y="0" width="650" height="400" style="fill:none;stroke:none;" /></clipPath><g clip-path="url(#box)"><rect x="0.00" y="0.00" width="650.00" height="400.00" style="fill:#FFFFFF;stroke:none;" /><path d="M0.00 400.00 L650.00 400.00 M0.00 350.00 L650.00 350.00 M0.00 300.00 L650.00 300.00 M0.00 250.00 L650.00 250.00 M0.00 200.00 L650.00 200.00 M0.00 150.00 L650.00 150.00 M0.00 100.00 L650.00 100.00 M0.00 50.00 L650.00 50.00 M0.00 0.00 L650.00 0.00 M25.00 0.00 L25.00 400.00 M75.00 0.00 L75.00 400.00 M125.00 0.00 L125.00 400.00 M175.00 0.00 L175.00 400.00 M225.00 0.00 L225.00 400.00 M275.00 0.00 L275.00 400.00 M325.00 0.00 L325.00 400.00 M374.00 0.00 L374.00 400.00 M425.00 0.00 L425.00 400.00 M475.00 0.00 L475.00 400.00 M525.00 0.00 L525.00 400.00 M575.00 0.00 L575.00 400.00 M625.00 0.00 L625.00 400.00 " style="fill:none;stroke:#D0D0D0;stroke-width:1;" /><path d="M325.00 0.00 L325.00 400.00 " style="fill:none;stroke:#000000;stroke-width:1;" /><path d="M318.50 400.00 L331.50 400.00 M318.50 350.00 L331.50 350.00 M318.50 300.00 L331.50 300.00 M318.50 250.00 L331.50 250.00 M318.50 200.00 L331.50 200.00 M318.50 150.00 L331.50 150.00 M318.50 100.00 L331.50 100.00 M318.50 50.00 L331.50 50.00 M318.50 0.00 L331.50 0.00 " style="fill:none;stroke:#000000;stroke-width:1;" /><path d="M0.00 200.00 L650.00 200.00 " style="fill:none;stroke:#000000;stroke-width:1;" /><path d="M-25.00 193.50 L-25.00 206.50 M25.00 193.50 L25.00 206.50 M75.00 193.50 L75.00 206.50 M125.00 193.50 L125.00 206.50 M175.00 193.50 L175.00 206.50 M225.00 193.50 L225.00 206.50 M275.00 193.50 L275.00 206.50 M325.00 193.50 L325.00 206.50 M375.00 193.50 L375.00 206.50 M425.00 193.50 L425.00 206.50 M475.00 193.50 L475.00 206.50 M525.00 193.50 L525.00 206.50 M575.00 193.50 L575.00 206.50 M625.00 193.50 L625.00 206.50 " style="fill:none;stroke:#000000;stroke-width:1;" /><text x="333.125" y="352.5" text-anchor="start" style="font:10px Droid Sans,Trebuchet MS,Arial,Helvetica,sans-serif;stroke:none;fill:#000000">-3</text><text x="333.125" y="302.5" text-anchor="start" style="font:10px Droid Sans,Trebuchet MS,Arial,Helvetica,sans-serif;stroke:none;fill:#000000">-2</text><text x="333.125" y="252.5" text-anchor="start" style="font:10px Droid Sans,Trebuchet MS,Arial,Helvetica,sans-serif;stroke:none;fill:#000000">-1</text><text x="333.125" y="202.5" text-anchor="start" style="font:10px Droid Sans,Trebuchet MS,Arial,Helvetica,sans-serif;stroke:none;fill:#000000">0</text><text x="333.125" y="152.5" text-anchor="start" style="font:10px Droid Sans,Trebuchet MS,Arial,Helvetica,sans-serif;stroke:none;fill:#000000">1</text><text x="333.125" y="102.5" text-anchor="start" style="font:10px Droid Sans,Trebuchet MS,Arial,Helvetica,sans-serif;stroke:none;fill:#000000">2</text><text x="333.125" y="52.5" text-anchor="start" style="font:10px Droid Sans,Trebuchet MS,Arial,Helvetica,sans-serif;stroke:none;fill:#000000">3</text><text x="25" y="216.125" text-anchor="middle" style="font:10px Droid Sans,Trebuchet MS,Arial,Helvetica,sans-serif;stroke:none;fill:#000000">-6</text><text x="75" y="216.125" text-anchor="middle" style="font:10px Droid Sans,Trebuchet MS,Arial,Helvetica,sans-serif;stroke:none;fill:#000000">-5</text><text x="125" y="216.125" text-anchor="middle" style="font:10px Droid Sans,Trebuchet MS,Arial,Helvetica,sans-serif;stroke:none;fill:#000000">-4</text><text x="175" y="216.125" text-anchor="middle" style="font:10px Droid Sans,Trebuchet MS,Arial,Helvetica,sans-serif;stroke:none;fill:#000000">-3</text><text x="225" y="216.125" text-anchor="middle" style="font:10px Droid Sans,Trebuchet MS,Arial,Helvetica,sans-serif;stroke:none;fill:#000000">-2</text><text x="275" y="216.125" text-anchor="middle" style="font:10px Droid Sans,Trebuchet MS,Arial,Helvetica,sans-serif;stroke:none;fill:#000000">-1</text><text x="325" y="216.125" text-anchor="middle" style="font:10px Droid Sans,Trebuchet MS,Arial,Helvetica,sans-serif;stroke:none;fill:#000000">0</text><text x="374.99999999999994" y="216.125" text-anchor="middle" style="font:10px Droid Sans,Trebuchet MS,Arial,Helvetica,sans-serif;stroke:none;fill:#000000">1</text><text x="425" y="216.125" text-anchor="middle" style="font:10px Droid Sans,Trebuchet MS,Arial,Helvetica,sans-serif;stroke:none;fill:#000000">2</text><text x="475" y="216.125" text-anchor="middle" style="font:10px Droid Sans,Trebuchet MS,Arial,Helvetica,sans-serif;stroke:none;fill:#000000">3</text><text x="525" y="216.125" text-anchor="middle" style="font:10px Droid Sans,Trebuchet MS,Arial,Helvetica,sans-serif;stroke:none;fill:#000000">4</text><text x="575" y="216.125" text-anchor="middle" style="font:10px Droid Sans,Trebuchet MS,Arial,Helvetica,sans-serif;stroke:none;fill:#000000">5</text><text x="625" y="216.125" text-anchor="middle" style="font:10px Droid Sans,Trebuchet MS,Arial,Helvetica,sans-serif;stroke:none;fill:#000000">6</text><path d="M-10.00 200.00 L-0.25 211.00 L0.75 210.02 L1.77 209.02 L2.79 208.01 L3.81 207.01 L4.82 206.01 L5.83 205.01 L6.83 204.00 L7.84 203.00 L8.84 202.00 L9.84 201.00 L10.84 200.00 L11.84 199.00 L12.84 198.00 L13.84 197.00 L14.84 196.00 L15.85 195.00 L16.85 194.01 L17.86 193.01 L18.86 192.01 L19.88 191.01 L20.89 190.02 L21.91 189.02 L22.93 188.03 L23.96 187.03 L24.99 186.04 L26.03 185.04 L27.07 184.05 L28.13 183.06 L29.19 182.06 L30.25 181.07 L31.33 180.08 L32.41 179.09 L33.51 178.10 L34.62 177.11 L35.73 176.12 L36.87 175.13 L38.01 174.15 L39.17 173.16 L40.35 172.18 L41.54 171.19 L42.76 170.21 L43.99 169.23 L45.25 168.25 L46.53 167.27 L47.84 166.29 L49.17 165.31 L50.55 164.34 L51.95 163.37 L53.40 162.40 L54.89 161.43 L56.44 160.47 L58.04 159.51 L59.71 158.55 L61.45 157.60 L63.29 156.66 L65.23 155.72 L67.23 154.83 L69.23 154.00 L71.23 153.26 L73.23 152.59 L75.23 151.99 L77.23 151.47 L79.23 151.03 L81.23 150.66 L83.23 150.38 L85.23 150.17 L87.23 150.05 L89.23 150.00 L91.23 150.03 L93.23 150.15 L95.23 150.34 L97.23 150.62 L99.23 150.97 L101.23 151.40 L103.23 151.91 L105.23 152.49 L107.23 153.15 L109.23 153.89 L111.23 154.70 L113.23 155.58 L115.23 156.54 L117.23 157.56 L119.19 158.62 L121.02 159.68 L122.76 160.73 L124.41 161.78 L125.99 162.81 L127.51 163.85 L128.98 164.88 L130.41 165.91 L131.80 166.94 L133.15 167.96 L134.46 168.98 L135.75 170.01 L137.01 171.02 L138.25 172.04 L139.47 173.06 L140.67 174.07 L141.84 175.09 L143.00 176.10 L144.15 177.12 L145.28 178.13 L146.40 179.14 L147.51 180.15 L148.60 181.16 L149.69 182.17 L150.76 183.18 L151.83 184.18 L152.88 185.19 L153.94 186.20 L154.98 187.20 L156.02 188.21 L157.05 189.21 L158.07 190.22 L159.10 191.22 L160.11 192.23 L161.13 193.23 L162.14 194.23 L163.15 195.23 L164.15 196.24 L165.16 197.24 L166.16 198.24 L167.16 199.24 L168.16 200.24 L169.16 201.24 L170.16 202.24 L171.16 203.24 L172.16 204.24 L173.16 205.24 L174.17 206.23 L175.18 207.23 L176.19 208.23 L177.20 209.22 L178.21 210.22 L179.23 211.22 L180.26 212.21 L181.29 213.21 L182.32 214.20 L183.36 215.19 L184.41 216.19 L185.46 217.18 L186.52 218.17 L187.59 219.16 L188.67 220.16 L189.75 221.15 L190.85 222.14 L191.96 223.13 L193.08 224.11 L194.22 225.10 L195.37 226.09 L196.53 227.07 L197.71 228.06 L198.91 229.04 L200.13 230.03 L201.37 231.01 L202.63 231.99 L203.92 232.97 L205.23 233.94 L206.58 234.92 L207.96 235.89 L209.37 236.87 L210.83 237.83 L212.34 238.80 L213.89 239.76 L215.51 240.72 L217.20 241.68 L218.96 242.63 L220.82 243.57 L222.80 244.50 L224.80 245.38 L226.80 246.18 L228.80 246.91 L230.80 247.57 L232.80 248.14 L234.80 248.65 L236.80 249.07 L238.80 249.41 L240.80 249.68 L242.80 249.87 L244.80 249.97 L246.80 250.00 L248.80 249.95 L250.80 249.81 L252.80 249.60 L254.80 249.31 L256.80 248.94 L258.80 248.49 L260.80 247.96 L262.80 247.36 L264.80 246.68 L266.80 245.92 L268.80 245.09 L270.80 244.19 L272.80 243.22 L274.80 242.18 L276.72 241.12 L278.53 240.06 L280.24 239.02 L281.88 237.97 L283.44 236.94 L284.95 235.90 L286.41 234.87 L287.83 233.84 L289.20 232.82 L290.55 231.79 L291.86 230.77 L293.14 229.75 L294.39 228.73 L295.63 227.71 L296.84 226.70 L298.03 225.68 L299.20 224.67 L300.36 223.65 L301.50 222.64 L302.63 221.63 L303.75 220.62 L304.85 219.61 L305.94 218.60 L307.03 217.59 L308.10 216.58 L309.16 215.57 L310.22 214.57 L311.27 213.56 L312.31 212.56 L313.35 211.55 L314.38 210.54 L315.40 209.54 L316.42 208.54 L317.44 207.53 L318.45 206.53 L319.46 205.53 L320.47 204.52 L321.47 203.52 L322.48 202.52 L323.48 201.52 L324.48 200.52 L325.48 199.52 L326.48 198.52 L327.48 197.52 L328.48 196.52 L329.48 195.52 L330.49 194.52 L331.49 193.53 L332.50 192.53 L333.51 191.53 L334.52 190.54 L335.54 189.54 L336.56 188.54 L337.58 187.55 L338.61 186.55 L339.65 185.56 L340.69 184.57 L341.74 183.57 L342.79 182.58 L343.86 181.59 L344.93 180.60 L346.01 179.61 L347.10 178.62 L348.20 177.63 L349.31 176.64 L350.43 175.65 L351.57 174.66 L352.72 173.67 L353.89 172.69 L355.08 171.70 L356.28 170.72 L357.50 169.74 L358.75 168.76 L360.02 167.78 L361.31 166.80 L362.63 165.82 L363.99 164.85 L365.38 163.87 L366.80 162.90 L368.27 161.93 L369.79 160.97 L371.36 160.00 L372.99 159.05 L374.69 158.09 L376.48 157.15 L378.37 156.20 L380.37 155.28 L382.37 154.42 L384.37 153.63 L386.37 152.92 L388.37 152.28 L390.37 151.73 L392.37 151.24 L394.37 150.84 L396.37 150.51 L398.37 150.27 L400.37 150.10 L402.37 150.01 L404.37 150.01 L406.37 150.08 L408.37 150.23 L410.37 150.47 L412.37 150.78 L414.37 151.17 L416.37 151.64 L418.37 152.18 L420.37 152.80 L422.37 153.50 L424.37 154.27 L426.37 155.12 L428.37 156.04 L430.37 157.03 L432.37 158.08 L434.26 159.14 L436.04 160.20 L437.73 161.24 L439.35 162.29 L440.90 163.32 L442.40 164.36 L443.85 165.39 L445.25 166.41 L446.62 167.44 L447.95 168.46 L449.26 169.48 L450.53 170.50 L451.78 171.52 L453.01 172.54 L454.22 173.56 L455.40 174.57 L456.57 175.59 L457.73 176.60 L458.87 177.61 L459.99 178.62 L461.10 179.63 L462.20 180.64 L463.29 181.65 L464.37 182.66 L465.44 183.67 L466.51 184.68 L467.56 185.68 L468.61 186.69 L469.65 187.70 L470.68 188.70 L471.71 189.71 L472.74 190.71 L473.75 191.71 L474.77 192.72 L475.78 193.72 L476.79 194.72 L477.80 195.72 L478.80 196.73 L479.81 197.73 L480.81 198.73 L481.81 199.73 L482.81 200.73 L483.81 201.73 L484.81 202.73 L485.81 203.73 L486.81 204.73 L487.82 205.72 L488.82 206.72 L489.83 207.72 L490.84 208.72 L491.85 209.71 L492.87 210.71 L493.89 211.70 L494.92 212.70 L495.95 213.69 L496.99 214.69 L498.03 215.68 L499.08 216.67 L500.14 217.67 L501.20 218.66 L502.27 219.65 L503.36 220.64 L504.45 221.63 L505.55 222.62 L506.67 223.61 L507.80 224.60 L508.94 225.58 L510.09 226.57 L511.27 227.56 L512.46 228.54 L513.66 229.52 L514.89 230.51 L516.14 231.49 L517.42 232.47 L518.72 233.45 L520.05 234.42 L521.41 235.40 L522.81 236.37 L524.24 237.34 L525.72 238.31 L527.25 239.27 L528.84 240.23 L530.49 241.19 L532.21 242.14 L534.02 243.09 L535.93 244.03 L537.93 244.94 L539.93 245.78 L541.93 246.55 L543.93 247.24 L545.93 247.86 L547.93 248.40 L549.93 248.86 L551.93 249.25 L553.93 249.55 L555.93 249.78 L557.93 249.93 L559.93 250.00 L561.93 249.98 L563.93 249.89 L565.93 249.72 L567.93 249.47 L569.93 249.14 L571.93 248.73 L573.93 248.24 L575.93 247.67 L577.93 247.03 L579.93 246.32 L581.93 245.53 L583.93 244.66 L585.93 243.73 L587.93 242.72 L589.92 241.66 L591.79 240.60 L593.55 239.54 L595.22 238.50 L596.82 237.46 L598.36 236.42 L599.84 235.39 L601.28 234.36 L602.67 233.33 L604.03 232.31 L605.36 231.28 L606.65 230.26 L607.92 229.24 L609.17 228.23 L610.39 227.21 L611.59 226.19 L612.77 225.18 L613.94 224.16 L615.09 223.15 L616.22 222.14 L617.35 221.13 L618.45 220.12 L619.55 219.11 L620.64 218.10 L621.72 217.09 L622.79 216.08 L623.85 215.08 L624.90 214.07 L625.94 213.06 L626.98 212.06 L628.02 211.05 L629.04 210.05 L630.07 209.04 L631.09 208.04 L632.10 207.04 L633.11 206.03 L634.12 205.03 L635.13 204.03 L636.13 203.03 L637.13 202.03 L638.13 201.02 L639.14 200.02 L640.14 199.02 L641.14 198.02 L642.14 197.03 L643.14 196.03 L644.14 195.03 L645.14 194.03 L646.15 193.03 L647.16 192.04 L648.17 191.04 L649.18 190.04 " style="fill:none;stroke:#000000;stroke-width:1;" /></g></svg>