<?xml version="1.0" standalone="no"?><!DOCTYPE svg PUBLIC "-//W3C//DTD SVG 1.1//EN" "http://www.w3.org/Graphics/SVG/1.1/DTD/svg11.dtd"><svg xmlns="http://www.w3.org/2000/svg" viewBox="0 0 650 400" version="1.1"><clipPath id="box"><rect x="0" y="0" width="650" height="400" style="fill:none;stroke:none;" /></clipPath><g clip-path="url(#box)"><rect x="0.00" y="0.00" width="650.00" height="400.00" style="fill:#FFFFFF;stroke:none;" /><path d="M0.00 350.00 L650.00 350.00 M0.00 300.00 L650.00 300.00 M0.00 250.00 L650.00 250.00 M0.00 200.00 L650.00 200.00 M0.00 149.00 L650.00 149.00 M0.00 99.00 L650.00 99.00 M0.00 49.00 L650.00 49.00 M24.00 0.00 L24.00 400.00 M74.00 0.00 L74.00 400.00 M124.00 0.00 L124.00 400.00 M174.00 0.00 L174.00 400.00 M224.00 0.00 L224.00 400.00 M274.00 0.00 L274.00 400.00 M325.00 0.00 L325.00 400.00 M375.00 0.00 L375.00 400.00 M425.00 0.00 L425.00 400.00 M475.00 0.00 L475.00 400.00 M525.00 0.00 L525.00 400.00 M575.00 0.00 L575.00 400.00 M625.00 0.00 L625.00 400.00 " style="fill:none;stroke:#D0D0D0;stroke-width:1;" /><path d="M325.00 0.00 L325.00 400.00 " style="fill:none;stroke:#000000;stroke-width:1;" /><path d="M318.50 400.00 L331.50 400.00 M318.50 350.00 L331.50 350.00 M318.50 300.00 L331.50 300.00 M318.50 250.00 L331.50 250.00 M318.50 200.00 L331.50 200.00 M318.50 150.00 L331.50 150.00 M318.50 100.00 L331.50 100.00 M318.50 50.00 L331.50 50.00 " style="fill:none;stroke:#000000;stroke-width:1;" /><path d="M0.00 200.00 L650.00 200.00 " style="fill:none;stroke:#000000;stroke-width:1;" /><path d="M-25.00 193.50 L-25.00 206.50 M25.00 193.50 L25.00 206.50 M75.00 193.50 L75.00 206.50 M125.00 193.50 L125.00 206.50 M175.00 193.50 L175.00 206.50 M225.00 193.50 L225.00 206.50 M275.00 193.50 L275.00 206.50 M325.00 193.50 L325.00 206.50 M375.00 193.50 L375.00 206.50 M425.00 193.50 L425.00 206.50 M475.00 193.50 L475.00 206.50 M525.00 193.50 L525.00 206.50 M575.00 193.50 L575.00 206.50 M625.00 193.50 L625.00 206.50 " style="fill:none;stroke:#000000;stroke-width:1;" /><text x="333.125" y="352.50000000000057" text-anchor="start" style="font:10px Droid Sans,Trebuchet MS,Arial,Helvetica,sans-serif;stroke:none;fill:#000000">-3</text><text x="333.125" y="302.50000000000034" text-anchor="start" style="font:10px Droid Sans,Trebuchet MS,Arial,Helvetica,sans-serif;stroke:none;fill:#000000">-2</text><text x="333.125" y="252.50000000000017" text-anchor="start" style="font:10px Droid Sans,Trebuchet MS,Arial,Helvetica,sans-serif;stroke:none;fill:#000000">-1</text><text x="333.125" y="202.5" text-anchor="start" style="font:10px Droid Sans,Trebuchet MS,Arial,Helvetica,sans-serif;stroke:none;fill:#000000">0</text><text x="333.125" y="152.4999999999998" text-anchor="start" style="font:10px Droid Sans,Trebuchet MS,Arial,Helvetica,sans-serif;stroke:none;fill:#000000">1</text><text x="333.125" y="102.49999999999962" text-anchor="start" style="font:10px Droid Sans,Trebuchet MS,Arial,Helvetica,sans-serif;stroke:none;fill:#000000">2</text><text x="333.125" y="52.49999999999942" text-anchor="start" style="font:10px Droid Sans,Trebuchet MS,Arial,Helvetica,sans-serif;stroke:none;fill:#000000">3</text><text x="24.99999999999881" y="216.125" text-anchor="middle" style="font:10px Droid Sans,Trebuchet MS,Arial,Helvetica,sans-serif;stroke:none;fill:#000000">-6</text><text x="74.999999999999" y="216.125" text-anchor="middle" style="font:10px Droid Sans,Trebuchet MS,Arial,Helvetica,sans-serif;stroke:none;fill:#000000">-5</text><text x="124.99999999999922" y="216.125" text-anchor="middle" style="font:10px Droid Sans,Trebuchet MS,Arial,Helvetica,sans-serif;stroke:none;fill:#000000">-4</text><text x="174.9999999999994" y="216.125" text-anchor="middle" style="font:10px Droid Sans,Trebuchet MS,Arial,Helvetica,sans-serif;stroke:none;fill:#000000">-3</text><text x="224.9999999999996" y="216.125" text-anchor="middle" style="font:10px Droid Sans,Trebuchet MS,Arial,Helvetica,sans-serif;stroke:none;fill:#000000">-2</text><text x="274.99999999999983" y="216.125" text-anchor="middle" style="font:10px Droid Sans,Trebuchet MS,Arial,Helvetica,sans-serif;stroke:none;fill:#000000">-1</text><text x="325" y="216.125" text-anchor="middle" style="font:10px Droid Sans,Trebuchet MS,Arial,Helvetica,sans-serif;stroke:none;fill:#000000">0</text><text x="375.00000000000017" y="216.125" text-anchor="middle" style="font:10px Droid Sans,Trebuchet MS,Arial,Helvetica,sans-serif;stroke:none;fill:#000000">1</text><text x="425.00000000000045" y="216.125" text-anchor="middle" style="font:10px Droid Sans,Trebuchet MS,Arial,Helvetica,sans-serif;stroke:none;fill:#000000">2</text><text x="475.0000000000006" y="216.125" text-anchor="middle" style="font:10px Droid Sans,Trebuchet MS,Arial,Helvetica,sans-serif;stroke:none;fill:#000000">3</text><text x="525.0000000000008" y="216.125" text-anchor="middle" style="font:10px Droid Sans,Trebuchet MS,Arial,Helvetica,sans-serif;stroke:none;fill:#000000">4</text><text x="575.000000000001" y="216.125" text-anchor="middle" style="font:10px Droid Sans,Trebuchet MS,Arial,Helvetica,sans-serif;stroke:none;fill:#000000">5</text><text x="625.0000000000013" y="216.125" text-anchor="middle" style="font:10px Droid Sans,Trebuchet MS,Arial,Helvetica,sans-serif;stroke:none;fill:#000000">6</text><path d="M221.83 -0.00 L221.83 0.00 L222.09 1.00 L222.35 2.00 L222.61 2.99 L222.87 3.98 L223.13 4.98 L223.40 5.97 L223.66 6.97 L223.93 7.96 L224.20 8.96 L224.47 9.95 L224.74 10.95 L225.01 11.94 L225.29 12.93 L225.57 13.93 L225.84 14.92 L226.12 15.92 L226.40 16.91 L226.69 17.91 L226.97 18.90 L227.26 19.89 L227.55 20.89 L227.84 21.88 L228.13 22.88 L228.42 23.87 L228.72 24.86 L229.01 25.86 L229.31 26.85 L229.61 27.85 L229.92 28.84 L230.22 29.83 L230.53 30.83 L230.84 31.82 L231.15 32.81 L231.46 33.81 L231.77 34.80 L232.09 35.79 L232.41 36.79 L232.73 37.78 L233.05 38.77 L233.38 39.77 L233.70 40.76 L234.03 41.75 L234.37 42.75 L234.70 43.74 L235.04 44.73 L235.37 45.72 L235.72 46.72 L236.06 47.71 L236.41 48.70 L236.76 49.70 L237.11 50.69 L237.46 51.68 L237.82 52.67 L238.18 53.67 L238.54 54.66 L238.90 55.65 L239.27 56.64 L239.64 57.63 L240.02 58.63 L240.39 59.62 L240.77 60.61 L241.16 61.60 L241.54 62.59 L241.93 63.59 L242.32 64.58 L242.72 65.57 L243.12 66.56 L243.52 67.55 L243.93 68.54 L244.33 69.53 L244.75 70.53 L245.16 71.52 L245.59 72.51 L246.01 73.50 L246.44 74.49 L246.87 75.48 L247.31 76.47 L247.75 77.46 L248.19 78.45 L248.64 79.44 L249.09 80.43 L249.55 81.42 L250.02 82.41 L250.48 83.40 L250.95 84.39 L251.43 85.38 L251.91 86.37 L252.40 87.36 L252.89 88.35 L253.39 89.34 L253.90 90.33 L254.41 91.32 L254.92 92.30 L255.44 93.29 L255.97 94.28 L256.50 95.27 L257.04 96.26 L257.59 97.24 L258.14 98.23 L258.70 99.22 L259.27 100.21 L259.85 101.19 L260.43 102.18 L261.02 103.17 L261.62 104.15 L262.23 105.14 L262.84 106.12 L263.47 107.11 L264.10 108.09 L264.74 109.08 L265.40 110.06 L266.06 111.05 L266.73 112.03 L267.42 113.02 L268.12 114.00 L268.83 114.98 L269.55 115.96 L270.28 116.95 L271.03 117.93 L271.79 118.91 L272.56 119.89 L273.35 120.87 L274.16 121.85 L274.99 122.83 L275.83 123.81 L276.69 124.78 L277.57 125.76 L278.47 126.74 L279.39 127.71 L280.33 128.69 L281.31 129.66 L282.30 130.63 L283.33 131.60 L284.38 132.57 L285.47 133.54 L286.59 134.51 L287.76 135.48 L288.96 136.44 L290.21 137.40 L291.51 138.36 L292.87 139.31 L294.29 140.27 L295.78 141.21 L297.35 142.16 L299.02 143.10 L300.79 144.03 L302.71 144.95 L304.71 145.82 L306.71 146.62 L308.71 147.32 L310.71 147.94 L312.71 148.48 L314.71 148.94 L316.71 149.31 L318.71 149.60 L320.71 149.82 L322.71 149.95 L324.71 150.00 L326.71 149.97 L328.71 149.86 L330.71 149.67 L332.71 149.41 L334.71 149.06 L336.71 148.62 L338.71 148.11 L340.71 147.51 L342.71 146.83 L344.71 146.07 L346.71 145.21 L348.71 144.27 L350.71 143.25 L352.65 142.16 L354.44 141.08 L356.10 140.01 L357.65 138.95 L359.12 137.90 L360.51 136.85 L361.84 135.81 L363.11 134.76 L364.32 133.72 L365.49 132.69 L366.62 131.65 L367.71 130.62 L368.77 129.59 L369.79 128.56 L370.79 127.53 L371.75 126.50 L372.69 125.47 L373.61 124.45 L374.50 123.42 L375.38 122.40 L376.23 121.38 L377.06 120.36 L377.88 119.33 L378.68 118.31 L379.46 117.29 L380.22 116.27 L380.98 115.25 L381.71 114.24 L382.44 113.22 L383.15 112.20 L383.85 111.18 L384.53 110.17 L385.21 109.15 L385.87 108.13 L386.53 107.12 L387.17 106.10 L387.81 105.09 L388.43 104.07 L389.05 103.06 L389.65 102.04 L390.25 101.03 L390.84 100.02 L391.42 99.00 L391.99 97.99 L392.56 96.97 L393.12 95.96 L393.67 94.95 L394.22 93.94 L394.75 92.92 L395.28 91.91 L395.81 90.90 L396.33 89.89 L396.84 88.88 L397.35 87.87 L397.85 86.85 L398.34 85.84 L398.83 84.83 L399.32 83.82 L399.80 82.81 L400.27 81.80 L400.74 80.79 L401.21 79.78 L401.66 78.77 L402.12 77.76 L402.57 76.75 L403.02 75.74 L403.46 74.73 L403.90 73.72 L404.33 72.71 L404.76 71.70 L405.18 70.69 L405.60 69.68 L406.02 68.67 L406.44 67.66 L406.85 66.65 L407.25 65.65 L407.65 64.64 L408.05 63.63 L408.45 62.62 L408.84 61.61 L409.23 60.60 L409.62 59.59 L410.00 58.59 L410.38 57.58 L410.76 56.57 L411.13 55.56 L411.50 54.55 L411.87 53.55 L412.23 52.54 L412.59 51.53 L412.95 50.52 L413.31 49.52 L413.66 48.51 L414.01 47.50 L414.36 46.49 L414.71 45.49 L415.05 44.48 L415.39 43.47 L415.73 42.46 L416.07 41.46 L416.40 40.45 L416.73 39.44 L417.06 38.44 L417.39 37.43 L417.71 36.42 L418.03 35.41 L418.35 34.41 L418.67 33.40 L418.99 32.39 L419.30 31.39 L419.61 30.38 L419.92 29.37 L420.23 28.37 L420.53 27.36 L420.84 26.36 L421.14 25.35 L421.44 24.34 L421.74 23.34 L422.03 22.33 L422.33 21.32 L422.62 20.32 L422.91 19.31 L423.20 18.31 L423.48 17.30 L423.77 16.29 L424.05 15.29 L424.34 14.28 L424.62 13.28 L424.89 12.27 L425.17 11.26 L425.45 10.26 L425.72 9.25 L425.99 8.25 L426.26 7.24 L426.53 6.24 L426.80 5.23 L427.07 4.23 L427.33 3.22 L427.60 2.21 L427.86 1.21 L428.12 0.20 L428.38 -0.80 " style="fill:none;stroke:#000000;stroke-width:1;" /></g></svg>