<?xml version="1.0" standalone="no"?><!DOCTYPE svg PUBLIC "-//W3C//DTD SVG 1.1//EN" "http://www.w3.org/Graphics/SVG/1.1/DTD/svg11.dtd"><svg xmlns="http://www.w3.org/2000/svg" viewBox="0 0 650 400" version="1.1"><clipPath id="box"><rect x="0" y="0" width="650" height="400" style="fill:none;stroke:none;" /></clipPath><g clip-path="url(#box)"><rect x="0.00" y="0.00" width="650.00" height="400.00" style="fill:#FFFFFF;stroke:none;" /><path d="M0.00 356.00 L650.00 356.00 M0.00 278.00 L650.00 278.00 M0.00 200.00 L650.00 200.00 M0.00 121.00 L650.00 121.00 M0.00 43.00 L650.00 43.00 M12.00 0.00 L12.00 400.00 M90.00 0.00 L90.00 400.00 M168.00 0.00 L168.00 400.00 M246.00 0.00 L246.00 400.00 M325.00 0.00 L325.00 400.00 M403.00 0.00 L403.00 400.00 M481.00 0.00 L481.00 400.00 M559.00 0.00 L559.00 400.00 M637.00 0.00 L637.00 400.00 " style="fill:none;stroke:#D0D0D0;stroke-width:1;" /><path d="M325.00 0.00 L325.00 400.00 " style="fill:none;stroke:#000000;stroke-width:1;" /><path d="M318.50 434.38 L331.50 434.38 M318.50 356.25 L331.50 356.25 M318.50 278.13 L331.50 278.13 M318.50 200.00 L331.50 200.00 M318.50 121.87 L331.50 121.87 M318.50 43.75 L331.50 43.75 " style="fill:none;stroke:#000000;stroke-width:1;" /><path d="M0.00 200.00 L650.00 200.00 " style="fill:none;stroke:#000000;stroke-width:1;" /><path d="M-65.63 193.50 L-65.63 206.50 M12.50 193.50 L12.50 206.50 M90.62 193.50 L90.62 206.50 M168.75 193.50 L168.75 206.50 M246.87 193.50 L246.87 206.50 M325.00 193.50 L325.00 206.50 M403.13 193.50 L403.13 206.50 M481.25 193.50 L481.25 206.50 M559.38 193.50 L559.38 206.50 M637.50 193.50 L637.50 206.50 " style="fill:none;stroke:#000000;stroke-width:1;" /><text x="333.125" y="358.7500000000003" text-anchor="start" style="font:10px Droid Sans,Trebuchet MS,Arial,Helvetica,sans-serif;stroke:none;fill:#000000">-2</text><text x="333.125" y="280.6250000000001" text-anchor="start" style="font:10px Droid Sans,Trebuchet MS,Arial,Helvetica,sans-serif;stroke:none;fill:#000000">-1</text><text x="333.125" y="202.5" text-anchor="start" style="font:10px Droid Sans,Trebuchet MS,Arial,Helvetica,sans-serif;stroke:none;fill:#000000">0</text><text x="333.125" y="124.37499999999989" text-anchor="start" style="font:10px Droid Sans,Trebuchet MS,Arial,Helvetica,sans-serif;stroke:none;fill:#000000">1</text><text x="333.125" y="46.24999999999979" text-anchor="start" style="font:10px Droid Sans,Trebuchet MS,Arial,Helvetica,sans-serif;stroke:none;fill:#000000">2</text><text x="12.499999999999611" y="216.125" text-anchor="middle" style="font:10px Droid Sans,Trebuchet MS,Arial,Helvetica,sans-serif;stroke:none;fill:#000000">-4</text><text x="90.62499999999972" y="216.125" text-anchor="middle" style="font:10px Droid Sans,Trebuchet MS,Arial,Helvetica,sans-serif;stroke:none;fill:#000000">-3</text><text x="168.7499999999998" y="216.125" text-anchor="middle" style="font:10px Droid Sans,Trebuchet MS,Arial,Helvetica,sans-serif;stroke:none;fill:#000000">-2</text><text x="246.87499999999991" y="216.125" text-anchor="middle" style="font:10px Droid Sans,Trebuchet MS,Arial,Helvetica,sans-serif;stroke:none;fill:#000000">-1</text><text x="325" y="216.125" text-anchor="middle" style="font:10px Droid Sans,Trebuchet MS,Arial,Helvetica,sans-serif;stroke:none;fill:#000000">0</text><text x="403.12500000000006" y="216.125" text-anchor="middle" style="font:10px Droid Sans,Trebuchet MS,Arial,Helvetica,sans-serif;stroke:none;fill:#000000">1</text><text x="481.25000000000017" y="216.125" text-anchor="middle" style="font:10px Droid Sans,Trebuchet MS,Arial,Helvetica,sans-serif;stroke:none;fill:#000000">2</text><text x="559.3750000000003" y="216.125" text-anchor="middle" style="font:10px Droid Sans,Trebuchet MS,Arial,Helvetica,sans-serif;stroke:none;fill:#000000">3</text><text x="637.5000000000005" y="216.125" text-anchor="middle" style="font:10px Droid Sans,Trebuchet MS,Arial,Helvetica,sans-serif;stroke:none;fill:#000000">4</text><path d="M-10.00 200.00 L-0.25 133.36 L0.75 133.89 L2.65 134.92 L4.49 135.96 L6.26 136.99 L7.98 138.02 L9.65 139.05 L11.27 140.08 L12.85 141.10 L14.39 142.13 L15.89 143.15 L17.37 144.17 L18.81 145.19 L20.23 146.20 L21.62 147.22 L22.98 148.24 L24.33 149.25 L25.65 150.27 L26.96 151.28 L28.25 152.30 L29.52 153.31 L30.77 154.32 L32.01 155.33 L33.24 156.34 L34.45 157.35 L35.65 158.36 L36.84 159.37 L38.02 160.38 L39.18 161.39 L40.34 162.40 L41.48 163.41 L42.62 164.42 L43.75 165.42 L44.86 166.43 L45.98 167.44 L47.08 168.44 L48.18 169.45 L49.27 170.46 L50.35 171.46 L51.43 172.47 L52.50 173.47 L53.56 174.48 L54.62 175.48 L55.68 176.49 L56.73 177.49 L57.78 178.50 L58.82 179.50 L59.86 180.50 L60.89 181.51 L61.92 182.51 L62.95 183.51 L63.97 184.52 L65.00 185.52 L66.02 186.52 L67.03 187.52 L68.05 188.52 L69.06 189.53 L70.07 190.53 L71.08 191.53 L72.08 192.53 L73.09 193.53 L74.09 194.53 L75.10 195.53 L76.10 196.54 L77.10 197.54 L78.10 198.54 L79.10 199.54 L80.10 199.46 L82.10 197.46 L83.10 196.46 L84.10 195.47 L85.10 194.47 L86.10 193.47 L87.11 192.47 L88.11 191.47 L89.12 190.47 L90.12 189.47 L91.13 188.47 L92.14 187.48 L93.15 186.48 L94.17 185.48 L95.18 184.48 L96.20 183.49 L97.23 182.49 L98.25 181.49 L99.28 180.49 L100.31 179.50 L101.34 178.50 L102.38 177.50 L103.42 176.51 L104.47 175.51 L105.52 174.52 L106.58 173.52 L107.64 172.53 L108.70 171.53 L109.77 170.54 L110.85 169.54 L111.93 168.55 L113.02 167.56 L114.12 166.56 L115.22 165.57 L116.33 164.57 L117.45 163.58 L118.57 162.59 L119.71 161.60 L120.85 160.61 L122.01 159.61 L123.17 158.62 L124.34 157.63 L125.53 156.64 L126.72 155.65 L127.93 154.66 L129.15 153.67 L130.39 152.69 L131.64 151.70 L132.90 150.71 L134.18 149.72 L135.48 148.74 L136.79 147.75 L138.13 146.77 L139.49 145.78 L140.86 144.80 L142.26 143.82 L143.69 142.84 L145.14 141.85 L146.62 140.88 L148.14 139.90 L149.69 138.92 L151.27 137.95 L152.89 136.97 L154.56 136.00 L156.28 135.03 L158.05 134.06 L159.88 133.10 L161.78 132.14 L163.76 131.18 L165.76 130.26 L167.76 129.38 L169.76 128.55 L171.76 127.76 L173.76 127.02 L175.76 126.33 L177.76 125.69 L179.76 125.10 L181.76 124.55 L183.76 124.06 L185.76 123.62 L187.76 123.22 L189.76 122.88 L191.76 122.58 L193.76 122.34 L195.76 122.15 L197.76 122.01 L199.76 121.92 L201.76 121.88 L203.76 121.89 L205.76 121.95 L207.76 122.07 L209.76 122.23 L211.76 122.45 L213.76 122.72 L215.76 123.03 L217.76 123.40 L219.76 123.82 L221.76 124.29 L223.76 124.81 L225.76 125.38 L227.76 125.99 L229.76 126.66 L231.76 127.37 L233.76 128.13 L235.76 128.94 L237.76 129.79 L239.76 130.69 L241.76 131.64 L243.76 132.63 L245.76 133.66 L247.69 134.71 L249.55 135.74 L251.34 136.78 L253.07 137.81 L254.74 138.84 L256.37 139.87 L257.96 140.89 L259.51 141.91 L261.02 142.94 L262.50 143.96 L263.95 144.98 L265.37 145.99 L266.77 147.01 L268.14 148.03 L269.49 149.04 L270.82 150.06 L272.13 151.07 L273.42 152.09 L274.69 153.10 L275.95 154.11 L277.20 155.12 L278.42 156.13 L279.64 157.15 L280.84 158.16 L282.03 159.17 L283.21 160.17 L284.38 161.18 L285.53 162.19 L286.68 163.20 L287.82 164.21 L288.95 165.22 L290.07 166.22 L291.18 167.23 L292.29 168.24 L293.39 169.24 L294.48 170.25 L295.56 171.25 L296.64 172.26 L297.71 173.26 L298.78 174.27 L299.84 175.27 L300.90 176.28 L301.95 177.28 L303.00 178.29 L304.04 179.29 L305.08 180.30 L306.12 181.30 L307.15 182.30 L308.18 183.30 L309.20 184.31 L310.22 185.31 L311.24 186.31 L312.26 187.32 L313.27 188.32 L314.29 189.32 L315.30 190.32 L316.30 191.32 L317.31 192.32 L318.32 193.33 L319.32 194.33 L320.32 195.33 L321.33 196.33 L322.33 197.33 L323.33 198.33 L324.33 199.33 L325.33 199.67 L327.33 197.67 L328.33 196.67 L329.33 195.67 L330.33 194.67 L331.33 193.67 L332.34 192.67 L333.34 191.68 L334.35 190.68 L335.35 189.68 L336.36 188.68 L337.37 187.68 L338.38 186.68 L339.40 185.69 L340.41 184.69 L341.43 183.69 L342.45 182.69 L343.47 181.70 L344.50 180.70 L345.53 179.70 L346.57 178.71 L347.60 177.71 L348.64 176.71 L349.69 175.72 L350.74 174.72 L351.79 173.73 L352.85 172.73 L353.92 171.74 L354.99 170.74 L356.06 169.75 L357.14 168.75 L358.23 167.76 L359.33 166.77 L360.43 165.77 L361.54 164.78 L362.65 163.79 L363.78 162.79 L364.91 161.80 L366.05 160.81 L367.20 159.82 L368.36 158.83 L369.54 157.84 L370.72 156.85 L371.91 155.86 L373.12 154.87 L374.34 153.88 L375.57 152.89 L376.81 151.90 L378.08 150.91 L379.35 149.93 L380.65 148.94 L381.96 147.96 L383.29 146.97 L384.64 145.99 L386.01 145.00 L387.41 144.02 L388.83 143.04 L390.28 142.06 L391.75 141.08 L393.26 140.10 L394.80 139.12 L396.38 138.15 L397.99 137.17 L399.65 136.20 L401.36 135.23 L403.12 134.26 L404.94 133.30 L406.82 132.34 L408.78 131.38 L410.78 130.45 L412.78 129.56 L414.78 128.72 L416.78 127.92 L418.78 127.17 L420.78 126.47 L422.78 125.82 L424.78 125.22 L426.78 124.66 L428.78 124.16 L430.78 123.70 L432.78 123.30 L434.78 122.94 L436.78 122.64 L438.78 122.39 L440.78 122.18 L442.78 122.03 L444.78 121.93 L446.78 121.88 L448.78 121.88 L450.78 121.94 L452.78 122.04 L454.78 122.19 L456.78 122.40 L458.78 122.66 L460.78 122.96 L462.78 123.32 L464.78 123.73 L466.78 124.19 L468.78 124.70 L470.78 125.25 L472.78 125.86 L474.78 126.52 L476.78 127.22 L478.78 127.97 L480.78 128.77 L482.78 129.61 L484.78 130.50 L486.78 131.44 L488.78 132.42 L490.78 133.45 L492.73 134.49 L494.60 135.53 L496.41 136.56 L498.15 137.59 L499.83 138.62 L501.47 139.65 L503.07 140.68 L504.62 141.70 L506.14 142.72 L507.63 143.74 L509.09 144.76 L510.51 145.78 L511.91 146.80 L513.29 147.82 L514.65 148.83 L515.98 149.85 L517.29 150.86 L518.59 151.87 L519.87 152.89 L521.13 153.90 L522.37 154.91 L523.60 155.92 L524.82 156.93 L526.03 157.94 L527.22 158.95 L528.40 159.96 L529.57 160.97 L530.73 161.98 L531.88 162.99 L533.02 164.00 L534.15 165.00 L535.27 166.01 L536.39 167.02 L537.49 168.03 L538.59 169.03 L539.69 170.04 L540.77 171.04 L541.85 172.05 L542.93 173.05 L543.99 174.06 L545.06 175.06 L546.11 176.07 L547.17 177.07 L548.22 178.08 L549.26 179.08 L550.30 180.09 L551.34 181.09 L552.37 182.09 L553.40 183.09 L554.42 184.10 L555.45 185.10 L556.47 186.10 L557.48 187.11 L558.50 188.11 L559.51 189.11 L560.52 190.11 L561.53 191.11 L562.54 192.11 L563.54 193.12 L564.55 194.12 L565.55 195.12 L566.55 196.12 L567.56 197.12 L568.56 198.12 L569.56 199.12 L570.56 199.88 L571.87 198.56 L572.87 197.56 L573.87 196.56 L574.88 195.56 L575.88 194.56 L576.88 193.57 L577.88 192.57 L578.89 191.57 L579.89 190.57 L580.90 189.57 L581.91 188.57 L582.92 187.57 L583.93 186.58 L584.94 185.58 L585.96 184.58 L586.98 183.58 L588.00 182.59 L589.02 181.59 L590.05 180.59 L591.08 179.60 L592.11 178.60 L593.15 177.60 L594.19 176.61 L595.24 175.61 L596.29 174.62 L597.35 173.62 L598.41 172.63 L599.47 171.63 L600.54 170.64 L601.62 169.64 L602.70 168.65 L603.79 167.65 L604.88 166.66 L605.98 165.67 L607.09 164.67 L608.21 163.68 L609.34 162.69 L610.47 161.70 L611.61 160.70 L612.77 159.71 L613.93 158.72 L615.10 157.73 L616.28 156.74 L617.48 155.75 L618.69 154.76 L619.91 153.77 L621.14 152.78 L622.39 151.79 L623.65 150.81 L624.93 149.82 L626.22 148.83 L627.54 147.85 L628.87 146.86 L630.22 145.88 L631.60 144.90 L633.00 143.91 L634.42 142.93 L635.87 141.95 L637.35 140.97 L638.86 139.99 L640.41 139.02 L641.99 138.04 L643.61 137.07 L645.27 136.10 L646.98 135.13 L648.75 134.16 " style="fill:none;stroke:#000000;stroke-width:1;" /></g></svg>