<?xml version="1.0" standalone="no"?><!DOCTYPE svg PUBLIC "-//W3C//DTD SVG 1.1//EN" "http://www.w3.org/Graphics/SVG/1.1/DTD/svg11.dtd"><svg xmlns="http://www.w3.org/2000/svg" viewBox="0 0 650 400" version="1.1"><clipPath id="box"><rect x="0" y="0" width="650" height="400" style="fill:none;stroke:none;" /></clipPath><g clip-path="url(#box)"><rect x="0.00" y="0.00" width="650.00" height="400.00" style="fill:#FFFFFF;stroke:none;" /><path d="M0.00 356.00 L650.00 356.00 M0.00 278.00 L650.00 278.00 M0.00 200.00 L650.00 200.00 M0.00 121.00 L650.00 121.00 M0.00 43.00 L650.00 43.00 M12.00 0.00 L12.00 400.00 M90.00 0.00 L90.00 400.00 M168.00 0.00 L168.00 400.00 M246.00 0.00 L246.00 400.00 M325.00 0.00 L325.00 400.00 M403.00 0.00 L403.00 400.00 M481.00 0.00 L481.00 400.00 M559.00 0.00 L559.00 400.00 M637.00 0.00 L637.00 400.00 " style="fill:none;stroke:#D0D0D0;stroke-width:1;" /><path d="M325.00 0.00 L325.00 400.00 " style="fill:none;stroke:#000000;stroke-width:1;" /><path d="M318.50 434.38 L331.50 434.38 M318.50 356.25 L331.50 356.25 M318.50 278.13 L331.50 278.13 M318.50 200.00 L331.50 200.00 M318.50 121.87 L331.50 121.87 M318.50 43.75 L331.50 43.75 " style="fill:none;stroke:#000000;stroke-width:1;" /><path d="M0.00 200.00 L650.00 200.00 " style="fill:none;stroke:#000000;stroke-width:1;" /><path d="M-65.63 193.50 L-65.63 206.50 M12.50 193.50 L12.50 206.50 M90.62 193.50 L90.62 206.50 M168.75 193.50 L168.75 206.50 M246.87 193.50 L246.87 206.50 M325.00 193.50 L325.00 206.50 M403.13 193.50 L403.13 206.50 M481.25 193.50 L481.25 206.50 M559.38 193.50 L559.38 206.50 M637.50 193.50 L637.50 206.50 " style="fill:none;stroke:#000000;stroke-width:1;" /><text x="333.125" y="358.7500000000003" text-anchor="start" style="font:10px Droid Sans,Trebuchet MS,Arial,Helvetica,sans-serif;stroke:none;fill:#000000">-2</text><text x="333.125" y="280.6250000000001" text-anchor="start" style="font:10px Droid Sans,Trebuchet MS,Arial,Helvetica,sans-serif;stroke:none;fill:#000000">-1</text><text x="333.125" y="202.5" text-anchor="start" style="font:10px Droid Sans,Trebuchet MS,Arial,Helvetica,sans-serif;stroke:none;fill:#000000">0</text><text x="333.125" y="124.37499999999989" text-anchor="start" style="font:10px Droid Sans,Trebuchet MS,Arial,Helvetica,sans-serif;stroke:none;fill:#000000">1</text><text x="333.125" y="46.24999999999979" text-anchor="start" style="font:10px Droid Sans,Trebuchet MS,Arial,Helvetica,sans-serif;stroke:none;fill:#000000">2</text><text x="12.499999999999611" y="216.125" text-anchor="middle" style="font:10px Droid Sans,Trebuchet MS,Arial,Helvetica,sans-serif;stroke:none;fill:#000000">-4</text><text x="90.62499999999972" y="216.125" text-anchor="middle" style="font:10px Droid Sans,Trebuchet MS,Arial,Helvetica,sans-serif;stroke:none;fill:#000000">-3</text><text x="168.7499999999998" y="216.125" text-anchor="middle" style="font:10px Droid Sans,Trebuchet MS,Arial,Helvetica,sans-serif;stroke:none;fill:#000000">-2</text><text x="246.87499999999991" y="216.125" text-anchor="middle" style="font:10px Droid Sans,Trebuchet MS,Arial,Helvetica,sans-serif;stroke:none;fill:#000000">-1</text><text x="325" y="216.125" text-anchor="middle" style="font:10px Droid Sans,Trebuchet MS,Arial,Helvetica,sans-serif;stroke:none;fill:#000000">0</text><text x="403.12500000000006" y="216.125" text-anchor="middle" style="font:10px Droid Sans,Trebuchet MS,Arial,Helvetica,sans-serif;stroke:none;fill:#000000">1</text><text x="481.25000000000017" y="216.125" text-anchor="middle" style="font:10px Droid Sans,Trebuchet MS,Arial,Helvetica,sans-serif;stroke:none;fill:#000000">2</text><text x="559.3750000000003" y="216.125" text-anchor="middle" style="font:10px Droid Sans,Trebuchet MS,Arial,Helvetica,sans-serif;stroke:none;fill:#000000">3</text><text x="637.5000000000005" y="216.125" text-anchor="middle" style="font:10px Droid Sans,Trebuchet MS,Arial,Helvetica,sans-serif;stroke:none;fill:#000000">4</text><path d="M-10.00 200.00 L-0.25 198.78 L0.75 198.77 L2.75 198.74 L4.75 198.70 L6.75 198.67 L8.75 198.64 L10.75 198.60 L12.75 198.56 L14.75 198.53 L16.75 198.49 L18.75 198.45 L20.75 198.41 L22.75 198.37 L24.75 198.33 L26.75 198.28 L28.75 198.24 L30.75 198.19 L32.75 198.15 L34.75 198.10 L36.75 198.05 L38.75 198.00 L40.75 197.95 L42.75 197.89 L44.75 197.84 L46.75 197.78 L48.75 197.72 L50.75 197.67 L52.75 197.60 L54.75 197.54 L56.75 197.48 L58.75 197.41 L60.75 197.35 L62.75 197.28 L64.75 197.21 L66.75 197.13 L68.75 197.06 L70.75 196.98 L72.75 196.91 L74.75 196.83 L76.75 196.74 L78.75 196.66 L80.75 196.57 L82.75 196.48 L84.75 196.39 L86.75 196.30 L88.75 196.20 L90.75 196.10 L92.75 196.00 L94.75 195.90 L96.75 195.79 L98.75 195.68 L100.75 195.57 L102.75 195.46 L104.75 195.34 L106.75 195.22 L108.75 195.09 L110.75 194.97 L112.75 194.84 L114.75 194.70 L116.75 194.57 L118.75 194.42 L120.75 194.28 L122.75 194.13 L124.75 193.98 L126.75 193.82 L128.75 193.66 L130.75 193.50 L132.75 193.33 L134.75 193.16 L136.75 192.98 L138.75 192.80 L140.75 192.61 L142.75 192.42 L144.75 192.22 L146.75 192.02 L148.75 191.81 L150.75 191.60 L152.75 191.38 L154.75 191.16 L156.75 190.93 L158.75 190.70 L160.75 190.46 L162.75 190.21 L164.75 189.95 L166.75 189.69 L168.75 189.43 L170.75 189.15 L172.75 188.87 L174.75 188.58 L176.75 188.29 L178.75 187.98 L180.75 187.67 L182.75 187.35 L184.75 187.02 L186.75 186.69 L188.75 186.34 L190.75 185.99 L192.75 185.62 L194.75 185.25 L196.75 184.87 L198.75 184.48 L200.75 184.07 L202.75 183.66 L204.75 183.24 L206.75 182.80 L208.75 182.36 L210.75 181.90 L212.75 181.43 L214.75 180.95 L216.75 180.46 L218.75 179.95 L220.75 179.43 L222.75 178.89 L224.75 178.35 L226.75 177.79 L228.75 177.21 L230.75 176.62 L232.75 176.01 L234.75 175.39 L236.75 174.75 L238.75 174.10 L240.75 173.43 L242.75 172.74 L244.75 172.03 L246.75 171.31 L248.75 170.56 L250.75 169.80 L252.75 169.01 L254.75 168.21 L256.75 167.39 L258.75 166.54 L260.75 165.67 L262.75 164.78 L264.75 163.87 L266.75 162.93 L268.75 161.97 L270.75 160.99 L272.75 159.97 L274.73 158.95 L276.65 157.92 L278.53 156.90 L280.37 155.87 L282.16 154.85 L283.91 153.83 L285.62 152.81 L287.30 151.78 L288.93 150.76 L290.54 149.74 L292.11 148.72 L293.65 147.70 L295.15 146.68 L296.63 145.66 L298.09 144.64 L299.51 143.62 L300.91 142.61 L302.28 141.59 L303.63 140.57 L304.96 139.55 L306.26 138.54 L307.54 137.52 L308.80 136.50 L310.04 135.49 L311.26 134.47 L312.47 133.46 L313.65 132.44 L314.81 131.43 L315.96 130.41 L317.09 129.40 L318.21 128.38 L319.31 127.37 L320.39 126.35 L321.46 125.34 L322.51 124.33 L323.55 123.31 L324.58 122.30 L325.59 121.29 L326.59 120.27 L327.57 119.26 L328.55 118.25 L329.51 117.23 L330.46 116.22 L331.40 115.21 L332.32 114.20 L333.24 113.19 L334.14 112.17 L335.04 111.16 L335.92 110.15 L336.80 109.14 L337.66 108.13 L338.52 107.12 L339.36 106.11 L340.20 105.10 L341.03 104.09 L341.85 103.08 L342.66 102.06 L343.46 101.05 L344.25 100.04 L345.04 99.03 L345.81 98.02 L346.58 97.01 L347.35 96.00 L348.10 94.99 L348.85 93.98 L349.59 92.97 L350.32 91.97 L351.05 90.96 L351.77 89.95 L352.48 88.94 L353.19 87.93 L353.89 86.92 L354.58 85.91 L355.27 84.90 L355.95 83.89 L356.63 82.88 L357.30 81.88 L357.96 80.87 L358.62 79.86 L359.28 78.85 L359.92 77.84 L360.56 76.83 L361.20 75.82 L361.83 74.82 L362.46 73.81 L363.08 72.80 L363.70 71.79 L364.31 70.78 L364.92 69.78 L365.52 68.77 L366.12 67.76 L366.71 66.75 L367.30 65.75 L367.88 64.74 L368.46 63.73 L369.04 62.72 L369.61 61.72 L370.18 60.71 L370.74 59.70 L371.30 58.69 L371.85 57.69 L372.40 56.68 L372.95 55.67 L373.49 54.67 L374.03 53.66 L374.57 52.65 L375.10 51.65 L375.63 50.64 L376.15 49.63 L376.68 48.63 L377.19 47.62 L377.71 46.61 L378.22 45.61 L378.73 44.60 L379.23 43.59 L379.73 42.59 L380.23 41.58 L380.72 40.57 L381.22 39.57 L381.70 38.56 L382.19 37.55 L382.67 36.55 L383.15 35.54 L383.63 34.54 L384.10 33.53 L384.57 32.52 L385.04 31.52 L385.51 30.51 L385.97 29.51 L386.43 28.50 L386.88 27.49 L387.34 26.49 L387.79 25.48 L388.24 24.48 L388.69 23.47 L389.13 22.47 L389.57 21.46 L390.01 20.45 L390.45 19.45 L390.88 18.44 L391.31 17.44 L391.74 16.43 L392.17 15.43 L392.59 14.42 L393.01 13.42 L393.43 12.41 L393.85 11.40 L394.27 10.40 L394.68 9.39 L395.09 8.39 L395.50 7.38 L395.91 6.38 L396.31 5.37 L396.71 4.37 L397.11 3.36 L397.51 2.36 L397.91 1.35 L398.30 0.35 L398.69 -0.66 " style="fill:none;stroke:#000000;stroke-width:1;" /></g></svg>