<?xml version="1.0" standalone="no"?><!DOCTYPE svg PUBLIC "-//W3C//DTD SVG 1.1//EN" "http://www.w3.org/Graphics/SVG/1.1/DTD/svg11.dtd"><svg xmlns="http://www.w3.org/2000/svg" viewBox="0 0 650 400" version="1.1"><clipPath id="box"><rect x="0" y="0" width="650" height="400" style="fill:none;stroke:none;" /></clipPath><g clip-path="url(#box)"><rect x="0.00" y="0.00" width="650.00" height="400.00" style="fill:#FFFFFF;stroke:none;" /><path d="M0.00 350.00 L650.00 350.00 M0.00 300.00 L650.00 300.00 M0.00 250.00 L650.00 250.00 M0.00 200.00 L650.00 200.00 M0.00 149.00 L650.00 149.00 M0.00 99.00 L650.00 99.00 M0.00 49.00 L650.00 49.00 M24.00 0.00 L24.00 400.00 M74.00 0.00 L74.00 400.00 M124.00 0.00 L124.00 400.00 M174.00 0.00 L174.00 400.00 M224.00 0.00 L224.00 400.00 M274.00 0.00 L274.00 400.00 M325.00 0.00 L325.00 400.00 M375.00 0.00 L375.00 400.00 M425.00 0.00 L425.00 400.00 M475.00 0.00 L475.00 400.00 M525.00 0.00 L525.00 400.00 M575.00 0.00 L575.00 400.00 M625.00 0.00 L625.00 400.00 " style="fill:none;stroke:#D0D0D0;stroke-width:1;" /><path d="M325.00 0.00 L325.00 400.00 " style="fill:none;stroke:#000000;stroke-width:1;" /><path d="M318.50 400.00 L331.50 400.00 M318.50 350.00 L331.50 350.00 M318.50 300.00 L331.50 300.00 M318.50 250.00 L331.50 250.00 M318.50 200.00 L331.50 200.00 M318.50 150.00 L331.50 150.00 M318.50 100.00 L331.50 100.00 M318.50 50.00 L331.50 50.00 " style="fill:none;stroke:#000000;stroke-width:1;" /><path d="M0.00 200.00 L650.00 200.00 " style="fill:none;stroke:#000000;stroke-width:1;" /><path d="M-25.00 193.50 L-25.00 206.50 M25.00 193.50 L25.00 206.50 M75.00 193.50 L75.00 206.50 M125.00 193.50 L125.00 206.50 M175.00 193.50 L175.00 206.50 M225.00 193.50 L225.00 206.50 M275.00 193.50 L275.00 206.50 M325.00 193.50 L325.00 206.50 M375.00 193.50 L375.00 206.50 M425.00 193.50 L425.00 206.50 M475.00 193.50 L475.00 206.50 M525.00 193.50 L525.00 206.50 M575.00 193.50 L575.00 206.50 M625.00 193.50 L625.00 206.50 " style="fill:none;stroke:#000000;stroke-width:1;" /><text x="333.125" y="352.5000000000008" text-anchor="start" style="font:10px Droid Sans,Trebuchet MS,Arial,Helvetica,sans-serif;stroke:none;fill:#000000">-3</text><text x="333.125" y="302.5000000000005" text-anchor="start" style="font:10px Droid Sans,Trebuchet MS,Arial,Helvetica,sans-serif;stroke:none;fill:#000000">-2</text><text x="333.125" y="252.50000000000026" text-anchor="start" style="font:10px Droid Sans,Trebuchet MS,Arial,Helvetica,sans-serif;stroke:none;fill:#000000">-1</text><text x="333.125" y="202.5" text-anchor="start" style="font:10px Droid Sans,Trebuchet MS,Arial,Helvetica,sans-serif;stroke:none;fill:#000000">0</text><text x="333.125" y="152.49999999999974" text-anchor="start" style="font:10px Droid Sans,Trebuchet MS,Arial,Helvetica,sans-serif;stroke:none;fill:#000000">1</text><text x="333.125" y="102.49999999999946" text-anchor="start" style="font:10px Droid Sans,Trebuchet MS,Arial,Helvetica,sans-serif;stroke:none;fill:#000000">2</text><text x="333.125" y="52.499999999999204" text-anchor="start" style="font:10px Droid Sans,Trebuchet MS,Arial,Helvetica,sans-serif;stroke:none;fill:#000000">3</text><text x="24.99999999999836" y="216.125" text-anchor="middle" style="font:10px Droid Sans,Trebuchet MS,Arial,Helvetica,sans-serif;stroke:none;fill:#000000">-6</text><text x="74.99999999999864" y="216.125" text-anchor="middle" style="font:10px Droid Sans,Trebuchet MS,Arial,Helvetica,sans-serif;stroke:none;fill:#000000">-5</text><text x="124.9999999999989" y="216.125" text-anchor="middle" style="font:10px Droid Sans,Trebuchet MS,Arial,Helvetica,sans-serif;stroke:none;fill:#000000">-4</text><text x="174.9999999999992" y="216.125" text-anchor="middle" style="font:10px Droid Sans,Trebuchet MS,Arial,Helvetica,sans-serif;stroke:none;fill:#000000">-3</text><text x="224.99999999999946" y="216.125" text-anchor="middle" style="font:10px Droid Sans,Trebuchet MS,Arial,Helvetica,sans-serif;stroke:none;fill:#000000">-2</text><text x="274.9999999999998" y="216.125" text-anchor="middle" style="font:10px Droid Sans,Trebuchet MS,Arial,Helvetica,sans-serif;stroke:none;fill:#000000">-1</text><text x="325" y="216.125" text-anchor="middle" style="font:10px Droid Sans,Trebuchet MS,Arial,Helvetica,sans-serif;stroke:none;fill:#000000">0</text><text x="375.0000000000002" y="216.125" text-anchor="middle" style="font:10px Droid Sans,Trebuchet MS,Arial,Helvetica,sans-serif;stroke:none;fill:#000000">1</text><text x="425.0000000000005" y="216.125" text-anchor="middle" style="font:10px Droid Sans,Trebuchet MS,Arial,Helvetica,sans-serif;stroke:none;fill:#000000">2</text><text x="475.00000000000085" y="216.125" text-anchor="middle" style="font:10px Droid Sans,Trebuchet MS,Arial,Helvetica,sans-serif;stroke:none;fill:#000000">3</text><text x="525.0000000000011" y="216.125" text-anchor="middle" style="font:10px Droid Sans,Trebuchet MS,Arial,Helvetica,sans-serif;stroke:none;fill:#000000">4</text><text x="575.0000000000014" y="216.125" text-anchor="middle" style="font:10px Droid Sans,Trebuchet MS,Arial,Helvetica,sans-serif;stroke:none;fill:#000000">5</text><text x="625.0000000000016" y="216.125" text-anchor="middle" style="font:10px Droid Sans,Trebuchet MS,Arial,Helvetica,sans-serif;stroke:none;fill:#000000">6</text><path d="M-10.00 200.00 L-0.25 328.58 L0.75 328.43 L2.75 328.12 L4.75 327.81 L6.75 327.50 L8.75 327.19 L10.75 326.88 L12.75 326.56 L14.75 326.25 L16.75 325.93 L18.75 325.61 L20.75 325.28 L22.75 324.96 L24.75 324.63 L26.75 324.30 L28.75 323.97 L30.75 323.63 L32.75 323.30 L34.75 322.96 L36.75 322.62 L38.75 322.28 L40.75 321.93 L42.75 321.58 L44.75 321.23 L46.75 320.88 L48.75 320.53 L50.75 320.17 L52.75 319.81 L54.75 319.45 L56.75 319.08 L58.75 318.71 L60.75 318.34 L62.75 317.97 L64.75 317.59 L66.75 317.21 L68.75 316.83 L70.75 316.45 L72.75 316.06 L74.75 315.67 L76.75 315.28 L78.75 314.88 L80.75 314.48 L82.75 314.08 L84.75 313.67 L86.75 313.26 L88.75 312.85 L90.75 312.44 L92.75 312.02 L94.75 311.59 L96.75 311.17 L98.75 310.74 L100.75 310.30 L102.75 309.87 L104.75 309.43 L106.75 308.98 L108.75 308.53 L110.75 308.08 L112.75 307.62 L114.75 307.16 L116.75 306.70 L118.75 306.23 L120.75 305.76 L122.75 305.28 L124.75 304.80 L126.75 304.31 L128.75 303.82 L130.75 303.32 L132.75 302.82 L134.75 302.31 L136.75 301.80 L138.75 301.29 L140.75 300.77 L142.75 300.24 L144.75 299.71 L146.75 299.17 L148.75 298.63 L150.75 298.08 L152.75 297.52 L154.75 296.96 L156.75 296.40 L158.75 295.82 L160.75 295.25 L162.75 294.66 L164.75 294.07 L166.75 293.47 L168.75 292.86 L170.75 292.25 L172.75 291.63 L174.75 291.00 L176.75 290.37 L178.75 289.72 L180.75 289.07 L182.75 288.41 L184.75 287.75 L186.75 287.07 L188.75 286.38 L190.75 285.69 L192.75 284.99 L194.75 284.28 L196.75 283.56 L198.75 282.82 L200.75 282.08 L202.75 281.33 L204.75 280.57 L206.75 279.79 L208.75 279.01 L210.75 278.21 L212.75 277.41 L214.75 276.59 L216.75 275.75 L218.75 274.91 L220.75 274.05 L222.75 273.18 L224.75 272.29 L226.75 271.39 L228.75 270.48 L230.75 269.55 L232.75 268.60 L234.75 267.64 L236.75 266.67 L238.75 265.67 L240.75 264.66 L242.73 263.64 L244.67 262.62 L246.58 261.61 L248.45 260.59 L250.30 259.57 L252.11 258.56 L253.89 257.54 L255.65 256.52 L257.37 255.50 L259.07 254.49 L260.74 253.47 L262.38 252.46 L263.99 251.44 L265.58 250.42 L267.15 249.41 L268.69 248.39 L270.21 247.38 L271.70 246.36 L273.17 245.35 L274.63 244.33 L276.06 243.32 L277.46 242.30 L278.85 241.29 L280.22 240.28 L281.58 239.26 L282.91 238.25 L284.23 237.24 L285.52 236.22 L286.81 235.21 L288.07 234.20 L289.32 233.19 L290.56 232.17 L291.78 231.16 L292.99 230.15 L294.18 229.14 L295.36 228.13 L296.53 227.12 L297.69 226.11 L298.83 225.10 L299.97 224.09 L301.09 223.08 L302.20 222.07 L303.31 221.06 L304.40 220.06 L305.49 219.05 L306.57 218.04 L307.63 217.03 L308.70 216.03 L309.75 215.02 L310.80 214.02 L311.84 213.01 L312.88 212.00 L313.91 211.00 L314.94 210.00 L315.96 208.99 L316.98 207.99 L317.99 206.98 L319.00 205.98 L320.01 204.98 L321.02 203.98 L322.02 202.98 L323.02 201.97 L324.03 200.97 L325.03 199.97 L326.03 198.97 L327.03 197.97 L328.03 196.97 L329.03 195.98 L330.03 194.98 L331.03 193.98 L332.04 192.98 L333.05 191.98 L334.06 190.99 L335.08 189.99 L336.09 189.00 L337.12 188.00 L338.14 187.00 L339.17 186.01 L340.21 185.01 L341.25 184.02 L342.30 183.03 L343.36 182.03 L344.42 181.04 L345.49 180.05 L346.56 179.05 L347.65 178.06 L348.74 177.07 L349.84 176.08 L350.96 175.09 L352.08 174.10 L353.21 173.11 L354.35 172.12 L355.51 171.13 L356.67 170.14 L357.85 169.15 L359.04 168.16 L360.24 167.17 L361.46 166.18 L362.69 165.19 L363.93 164.20 L365.19 163.22 L366.47 162.23 L367.76 161.24 L369.07 160.25 L370.39 159.27 L371.73 158.28 L373.09 157.29 L374.47 156.31 L375.87 155.32 L377.28 154.33 L378.72 153.35 L380.18 152.36 L381.66 151.38 L383.16 150.39 L384.68 149.41 L386.23 148.42 L387.79 147.44 L389.39 146.45 L391.01 145.47 L392.65 144.48 L394.32 143.50 L396.01 142.51 L397.74 141.53 L399.49 140.55 L401.27 139.56 L403.08 138.58 L404.92 137.60 L406.79 136.61 L408.69 135.63 L410.62 134.65 L412.59 133.66 L414.59 132.68 L416.59 131.71 L418.59 130.76 L420.59 129.83 L422.59 128.91 L424.59 128.00 L426.59 127.11 L428.59 126.24 L430.59 125.37 L432.59 124.52 L434.59 123.69 L436.59 122.86 L438.59 122.05 L440.59 121.25 L442.59 120.46 L444.59 119.69 L446.59 118.92 L448.59 118.17 L450.59 117.42 L452.59 116.69 L454.59 115.96 L456.59 115.25 L458.59 114.54 L460.59 113.84 L462.59 113.16 L464.59 112.48 L466.59 111.81 L468.59 111.15 L470.59 110.49 L472.59 109.85 L474.59 109.21 L476.59 108.58 L478.59 107.96 L480.59 107.34 L482.59 106.73 L484.59 106.13 L486.59 105.54 L488.59 104.95 L490.59 104.37 L492.59 103.79 L494.59 103.22 L496.59 102.66 L498.59 102.10 L500.59 101.55 L502.59 101.01 L504.59 100.47 L506.59 99.94 L508.59 99.41 L510.59 98.88 L512.59 98.37 L514.59 97.85 L516.59 97.35 L518.59 96.84 L520.59 96.35 L522.59 95.85 L524.59 95.36 L526.59 94.88 L528.59 94.40 L530.59 93.93 L532.59 93.46 L534.59 92.99 L536.59 92.53 L538.59 92.07 L540.59 91.62 L542.59 91.17 L544.59 90.72 L546.59 90.28 L548.59 89.84 L550.59 89.41 L552.59 88.97 L554.59 88.55 L556.59 88.12 L558.59 87.70 L560.59 87.29 L562.59 86.87 L564.59 86.46 L566.59 86.06 L568.59 85.65 L570.59 85.25 L572.59 84.85 L574.59 84.46 L576.59 84.07 L578.59 83.68 L580.59 83.29 L582.59 82.91 L584.59 82.53 L586.59 82.15 L588.59 81.78 L590.59 81.41 L592.59 81.04 L594.59 80.67 L596.59 80.31 L598.59 79.95 L600.59 79.59 L602.59 79.24 L604.59 78.88 L606.59 78.53 L608.59 78.18 L610.59 77.84 L612.59 77.49 L614.59 77.15 L616.59 76.81 L618.59 76.48 L620.59 76.14 L622.59 75.81 L624.59 75.48 L626.59 75.15 L628.59 74.82 L630.59 74.50 L632.59 74.18 L634.59 73.86 L636.59 73.54 L638.59 73.23 L640.59 72.91 L642.59 72.60 L644.59 72.29 L646.59 71.98 L648.59 71.67 " style="fill:none;stroke:#000000;stroke-width:1;" /></g></svg>