<?xml version="1.0" standalone="no"?><!DOCTYPE svg PUBLIC "-//W3C//DTD SVG 1.1//EN" "http://www.w3.org/Graphics/SVG/1.1/DTD/svg11.dtd"><svg xmlns="http://www.w3.org/2000/svg" viewBox="0 0 650 400" version="1.1"><clipPath id="box"><rect x="0" y="0" width="650" height="400" style="fill:none;stroke:none;" /></clipPath><g clip-path="url(#box)"><rect x="0.00" y="0.00" width="650.00" height="400.00" style="fill:#FFFFFF;stroke:none;" /><path d="M0.00 383.00 L650.00 383.00 M0.00 322.00 L650.00 322.00 M0.00 261.00 L650.00 261.00 M0.00 200.00 L650.00 200.00 M0.00 138.00 L650.00 138.00 M0.00 77.00 L650.00 77.00 M0.00 16.00 L650.00 16.00 M19.00 0.00 L19.00 400.00 M80.00 0.00 L80.00 400.00 M141.00 0.00 L141.00 400.00 M202.00 0.00 L202.00 400.00 M263.00 0.00 L263.00 400.00 M325.00 0.00 L325.00 400.00 M386.00 0.00 L386.00 400.00 M447.00 0.00 L447.00 400.00 M508.00 0.00 L508.00 400.00 M569.00 0.00 L569.00 400.00 M630.00 0.00 L630.00 400.00 " style="fill:none;stroke:#D0D0D0;stroke-width:1;" /><path d="M325.00 0.00 L325.00 400.00 " style="fill:none;stroke:#000000;stroke-width:1;" /><path d="M318.50 444.14 L331.50 444.14 M318.50 383.11 L331.50 383.11 M318.50 322.07 L331.50 322.07 M318.50 261.04 L331.50 261.04 M318.50 200.00 L331.50 200.00 M318.50 138.96 L331.50 138.96 M318.50 77.93 L331.50 77.93 M318.50 16.89 L331.50 16.89 " style="fill:none;stroke:#000000;stroke-width:1;" /><path d="M0.00 200.00 L650.00 200.00 " style="fill:none;stroke:#000000;stroke-width:1;" /><path d="M-41.21 193.50 L-41.21 206.50 M19.82 193.50 L19.82 206.50 M80.86 193.50 L80.86 206.50 M141.89 193.50 L141.89 206.50 M202.93 193.50 L202.93 206.50 M263.96 193.50 L263.96 206.50 M325.00 193.50 L325.00 206.50 M386.04 193.50 L386.04 206.50 M447.07 193.50 L447.07 206.50 M508.11 193.50 L508.11 206.50 M569.14 193.50 L569.14 206.50 M630.18 193.50 L630.18 206.50 " style="fill:none;stroke:#000000;stroke-width:1;" /><text x="333.125" y="385.60546874999994" text-anchor="start" style="font:10px Droid Sans,Trebuchet MS,Arial,Helvetica,sans-serif;stroke:none;fill:#000000">-1.5</text><text x="333.125" y="324.57031249999994" text-anchor="start" style="font:10px Droid Sans,Trebuchet MS,Arial,Helvetica,sans-serif;stroke:none;fill:#000000">-1</text><text x="333.125" y="263.53515624999994" text-anchor="start" style="font:10px Droid Sans,Trebuchet MS,Arial,Helvetica,sans-serif;stroke:none;fill:#000000">-0.5</text><text x="333.125" y="202.5" text-anchor="start" style="font:10px Droid Sans,Trebuchet MS,Arial,Helvetica,sans-serif;stroke:none;fill:#000000">0</text><text x="333.125" y="141.46484375" text-anchor="start" style="font:10px Droid Sans,Trebuchet MS,Arial,Helvetica,sans-serif;stroke:none;fill:#000000">0.5</text><text x="333.125" y="80.42968750000001" text-anchor="start" style="font:10px Droid Sans,Trebuchet MS,Arial,Helvetica,sans-serif;stroke:none;fill:#000000">1</text><text x="333.125" y="19.394531250000007" text-anchor="start" style="font:10px Droid Sans,Trebuchet MS,Arial,Helvetica,sans-serif;stroke:none;fill:#000000">1.5</text><text x="19.824218749999986" y="216.125" text-anchor="middle" style="font:10px Droid Sans,Trebuchet MS,Arial,Helvetica,sans-serif;stroke:none;fill:#000000">-2.5</text><text x="80.85937499999999" y="216.125" text-anchor="middle" style="font:10px Droid Sans,Trebuchet MS,Arial,Helvetica,sans-serif;stroke:none;fill:#000000">-2</text><text x="141.89453125" y="216.125" text-anchor="middle" style="font:10px Droid Sans,Trebuchet MS,Arial,Helvetica,sans-serif;stroke:none;fill:#000000">-1.5</text><text x="202.9296875" y="216.125" text-anchor="middle" style="font:10px Droid Sans,Trebuchet MS,Arial,Helvetica,sans-serif;stroke:none;fill:#000000">-1</text><text x="263.96484375" y="216.125" text-anchor="middle" style="font:10px Droid Sans,Trebuchet MS,Arial,Helvetica,sans-serif;stroke:none;fill:#000000">-0.5</text><text x="325" y="216.125" text-anchor="middle" style="font:10px Droid Sans,Trebuchet MS,Arial,Helvetica,sans-serif;stroke:none;fill:#000000">0</text><text x="386.03515625" y="216.125" text-anchor="middle" style="font:10px Droid Sans,Trebuchet MS,Arial,Helvetica,sans-serif;stroke:none;fill:#000000">0.5</text><text x="447.0703125" y="216.125" text-anchor="middle" style="font:10px Droid Sans,Trebuchet MS,Arial,Helvetica,sans-serif;stroke:none;fill:#000000">1</text><text x="508.10546875" y="216.125" text-anchor="middle" style="font:10px Droid Sans,Trebuchet MS,Arial,Helvetica,sans-serif;stroke:none;fill:#000000">1.5</text><text x="569.140625" y="216.125" text-anchor="middle" style="font:10px Droid Sans,Trebuchet MS,Arial,Helvetica,sans-serif;stroke:none;fill:#000000">2</text><text x="630.17578125" y="216.125" text-anchor="middle" style="font:10px Droid Sans,Trebuchet MS,Arial,Helvetica,sans-serif;stroke:none;fill:#000000">2.5</text><path d="M202.93 391.47 L202.93 391.18 L202.93 390.67 L202.94 390.07 L202.95 389.39 L202.97 388.65 L202.99 387.87 L203.02 387.05 L203.06 386.22 L203.10 385.36 L203.15 384.48 L203.20 383.60 L203.26 382.70 L203.34 381.80 L203.41 380.88 L203.50 379.96 L203.59 379.04 L203.69 378.11 L203.80 377.18 L203.91 376.24 L204.04 375.30 L204.17 374.35 L204.31 373.40 L204.45 372.45 L204.60 371.50 L204.77 370.55 L204.93 369.59 L205.11 368.63 L205.30 367.67 L205.49 366.71 L205.69 365.75 L205.90 364.78 L206.11 363.82 L206.33 362.85 L206.56 361.89 L206.80 360.92 L207.05 359.95 L207.30 358.98 L207.56 358.00 L207.83 357.03 L208.11 356.06 L208.39 355.09 L208.69 354.11 L208.99 353.14 L209.29 352.16 L209.61 351.18 L209.93 350.21 L210.26 349.23 L210.60 348.25 L210.94 347.27 L211.30 346.29 L211.66 345.31 L212.02 344.33 L212.40 343.35 L212.78 342.37 L213.17 341.39 L213.57 340.41 L213.97 339.43 L214.38 338.44 L214.80 337.46 L215.23 336.48 L215.66 335.49 L216.10 334.51 L216.55 333.53 L217.01 332.54 L217.47 331.56 L217.94 330.57 L218.42 329.59 L218.90 328.60 L219.39 327.61 L219.89 326.63 L220.40 325.64 L220.91 324.65 L221.43 323.67 L221.95 322.68 L222.49 321.69 L223.03 320.71 L223.57 319.72 L224.12 318.73 L224.68 317.74 L225.25 316.75 L225.82 315.76 L226.40 314.78 L226.99 313.79 L227.58 312.80 L228.18 311.81 L228.79 310.82 L229.40 309.83 L230.02 308.84 L230.64 307.85 L231.28 306.86 L231.91 305.87 L232.56 304.88 L233.21 303.89 L233.86 302.90 L234.52 301.91 L235.19 300.92 L235.87 299.92 L236.55 298.93 L237.23 297.94 L237.93 296.95 L238.62 295.96 L239.33 294.97 L240.04 293.97 L240.75 292.98 L241.47 291.99 L242.20 291.00 L242.93 290.00 L243.67 289.01 L244.41 288.02 L245.16 287.03 L245.91 286.03 L246.67 285.04 L247.44 284.05 L248.21 283.05 L248.98 282.06 L249.76 281.07 L250.55 280.07 L251.34 279.08 L252.13 278.09 L252.93 277.09 L253.74 276.10 L254.55 275.10 L255.36 274.11 L256.18 273.11 L257.00 272.12 L257.83 271.13 L258.66 270.13 L259.50 269.14 L260.34 268.14 L261.19 267.15 L262.04 266.15 L262.89 265.16 L263.75 264.16 L264.62 263.17 L265.48 262.17 L266.35 261.17 L267.23 260.18 L268.11 259.18 L268.99 258.19 L269.88 257.19 L270.77 256.20 L271.66 255.20 L272.56 254.20 L273.46 253.21 L274.37 252.21 L275.27 251.22 L276.19 250.22 L277.10 249.22 L278.02 248.23 L278.94 247.23 L279.86 246.23 L280.79 245.24 L281.72 244.24 L282.66 243.24 L283.59 242.25 L284.53 241.25 L285.47 240.25 L286.42 239.25 L287.37 238.26 L288.32 237.26 L289.27 236.26 L290.22 235.26 L291.18 234.27 L292.14 233.27 L293.10 232.27 L294.07 231.27 L295.03 230.28 L296.00 229.28 L296.97 228.28 L297.94 227.28 L298.92 226.28 L299.89 225.29 L300.87 224.29 L301.85 223.29 L302.83 222.29 L303.82 221.29 L304.80 220.29 L305.79 219.29 L306.77 218.30 L307.76 217.30 L308.75 216.30 L309.74 215.30 L310.73 214.30 L311.72 213.30 L312.72 212.30 L313.71 211.30 L314.71 210.30 L315.70 209.30 L316.70 208.31 L317.70 207.31 L318.70 206.31 L319.69 205.31 L320.69 204.31 L321.69 203.31 L322.69 202.31 L323.69 201.31 L324.69 200.31 L325.69 199.31 L326.69 198.31 L327.69 197.31 L328.69 196.31 L329.69 195.31 L330.69 194.31 L331.69 193.31 L332.69 192.31 L333.69 191.31 L334.68 190.31 L335.68 189.30 L336.68 188.30 L337.67 187.30 L338.67 186.30 L339.66 185.30 L340.66 184.30 L341.65 183.30 L342.64 182.30 L343.63 181.30 L344.62 180.30 L345.61 179.29 L346.59 178.29 L347.58 177.29 L348.56 176.29 L349.54 175.29 L350.52 174.29 L351.50 173.28 L352.48 172.28 L353.45 171.28 L354.43 170.28 L355.40 169.28 L356.37 168.28 L357.34 167.27 L358.30 166.27 L359.26 165.27 L360.23 164.27 L361.18 163.26 L362.14 162.26 L363.09 161.26 L364.05 160.26 L364.99 159.25 L365.94 158.25 L366.88 157.25 L367.83 156.24 L368.76 155.24 L369.70 154.24 L370.63 153.23 L371.56 152.23 L372.48 151.23 L373.41 150.22 L374.33 149.22 L375.24 148.22 L376.16 147.21 L377.07 146.21 L377.97 145.21 L378.88 144.20 L379.77 143.20 L380.67 142.19 L381.56 141.19 L382.45 140.18 L383.33 139.18 L384.21 138.18 L385.09 137.17 L385.96 136.17 L386.83 135.16 L387.70 134.16 L388.56 133.15 L389.41 132.15 L390.26 131.14 L391.11 130.14 L391.95 129.13 L392.79 128.13 L393.63 127.12 L394.46 126.12 L395.28 125.11 L396.10 124.10 L396.92 123.10 L397.73 122.09 L398.53 121.09 L399.33 120.08 L400.13 119.07 L400.92 118.07 L401.70 117.06 L402.48 116.05 L403.26 115.05 L404.03 114.04 L404.80 113.03 L405.55 112.03 L406.31 111.02 L407.06 110.01 L407.80 109.00 L408.54 108.00 L409.27 106.99 L410.00 105.98 L410.72 104.97 L411.43 103.96 L412.14 102.96 L412.84 101.95 L413.54 100.94 L414.23 99.93 L414.92 98.92 L415.60 97.91 L416.27 96.90 L416.94 95.89 L417.60 94.88 L418.25 93.87 L418.90 92.86 L419.54 91.85 L420.18 90.84 L420.81 89.83 L421.43 88.82 L422.05 87.81 L422.66 86.80 L423.26 85.79 L423.86 84.78 L424.45 83.77 L425.03 82.76 L425.61 81.74 L426.18 80.73 L426.74 79.72 L427.30 78.71 L427.85 77.69 L428.39 76.68 L428.92 75.67 L429.45 74.65 L429.97 73.64 L430.49 72.63 L430.99 71.61 L431.49 70.60 L431.99 69.58 L432.47 68.57 L432.95 67.55 L433.42 66.54 L433.88 65.52 L434.34 64.50 L434.79 63.49 L435.23 62.47 L435.66 61.45 L436.09 60.43 L436.51 59.41 L436.92 58.40 L437.32 57.38 L437.71 56.36 L438.10 55.34 L438.48 54.31 L438.85 53.29 L439.22 52.27 L439.58 51.25 L439.92 50.23 L440.27 49.20 L440.60 48.18 L440.92 47.15 L441.24 46.13 L441.55 45.10 L441.85 44.07 L442.15 43.04 L442.43 42.02 L442.71 40.99 L442.98 39.95 L443.24 38.92 L443.49 37.89 L443.73 36.85 L443.97 35.82 L444.20 34.78 L444.42 33.74 L444.63 32.70 L444.83 31.66 L445.03 30.61 L445.21 29.56 L445.39 28.51 L445.56 27.46 L445.72 26.41 L445.88 25.35 L446.02 24.28 L446.15 23.21 L446.28 22.14 L446.40 21.06 L446.51 19.97 L446.61 18.87 L446.70 17.76 L446.78 16.64 L446.86 15.50 L446.92 14.32 L446.97 13.10 L447.02 11.80 L447.05 10.30 " style="fill:none;stroke:#000000;stroke-width:1;" /></g></svg>