<?xml version="1.0" standalone="no"?><!DOCTYPE svg PUBLIC "-//W3C//DTD SVG 1.1//EN" "http://www.w3.org/Graphics/SVG/1.1/DTD/svg11.dtd"><svg xmlns="http://www.w3.org/2000/svg" viewBox="0 0 650 400" version="1.1"><clipPath id="box"><rect x="0" y="0" width="650" height="400" style="fill:none;stroke:none;" /></clipPath><g clip-path="url(#box)"><rect x="0.00" y="0.00" width="650.00" height="400.00" style="fill:#FFFFFF;stroke:none;" /><path d="M0.00 350.00 L650.00 350.00 M0.00 300.00 L650.00 300.00 M0.00 250.00 L650.00 250.00 M0.00 200.00 L650.00 200.00 M0.00 149.00 L650.00 149.00 M0.00 99.00 L650.00 99.00 M0.00 49.00 L650.00 49.00 M24.00 0.00 L24.00 400.00 M74.00 0.00 L74.00 400.00 M124.00 0.00 L124.00 400.00 M174.00 0.00 L174.00 400.00 M224.00 0.00 L224.00 400.00 M274.00 0.00 L274.00 400.00 M325.00 0.00 L325.00 400.00 M375.00 0.00 L375.00 400.00 M425.00 0.00 L425.00 400.00 M475.00 0.00 L475.00 400.00 M525.00 0.00 L525.00 400.00 M575.00 0.00 L575.00 400.00 M625.00 0.00 L625.00 400.00 " style="fill:none;stroke:#D0D0D0;stroke-width:1;" /><path d="M325.00 0.00 L325.00 400.00 " style="fill:none;stroke:#000000;stroke-width:1;" /><path d="M318.50 400.00 L331.50 400.00 M318.50 350.00 L331.50 350.00 M318.50 300.00 L331.50 300.00 M318.50 250.00 L331.50 250.00 M318.50 200.00 L331.50 200.00 M318.50 150.00 L331.50 150.00 M318.50 100.00 L331.50 100.00 M318.50 50.00 L331.50 50.00 " style="fill:none;stroke:#000000;stroke-width:1;" /><path d="M0.00 200.00 L650.00 200.00 " style="fill:none;stroke:#000000;stroke-width:1;" /><path d="M-25.00 193.50 L-25.00 206.50 M25.00 193.50 L25.00 206.50 M75.00 193.50 L75.00 206.50 M125.00 193.50 L125.00 206.50 M175.00 193.50 L175.00 206.50 M225.00 193.50 L225.00 206.50 M275.00 193.50 L275.00 206.50 M325.00 193.50 L325.00 206.50 M375.00 193.50 L375.00 206.50 M425.00 193.50 L425.00 206.50 M475.00 193.50 L475.00 206.50 M525.00 193.50 L525.00 206.50 M575.00 193.50 L575.00 206.50 M625.00 193.50 L625.00 206.50 " style="fill:none;stroke:#000000;stroke-width:1;" /><text x="333.125" y="352.5000000000008" text-anchor="start" style="font:10px Droid Sans,Trebuchet MS,Arial,Helvetica,sans-serif;stroke:none;fill:#000000">-3</text><text x="333.125" y="302.5000000000005" text-anchor="start" style="font:10px Droid Sans,Trebuchet MS,Arial,Helvetica,sans-serif;stroke:none;fill:#000000">-2</text><text x="333.125" y="252.50000000000026" text-anchor="start" style="font:10px Droid Sans,Trebuchet MS,Arial,Helvetica,sans-serif;stroke:none;fill:#000000">-1</text><text x="333.125" y="202.5" text-anchor="start" style="font:10px Droid Sans,Trebuchet MS,Arial,Helvetica,sans-serif;stroke:none;fill:#000000">0</text><text x="333.125" y="152.49999999999974" text-anchor="start" style="font:10px Droid Sans,Trebuchet MS,Arial,Helvetica,sans-serif;stroke:none;fill:#000000">1</text><text x="333.125" y="102.49999999999946" text-anchor="start" style="font:10px Droid Sans,Trebuchet MS,Arial,Helvetica,sans-serif;stroke:none;fill:#000000">2</text><text x="333.125" y="52.499999999999204" text-anchor="start" style="font:10px Droid Sans,Trebuchet MS,Arial,Helvetica,sans-serif;stroke:none;fill:#000000">3</text><text x="24.99999999999836" y="216.125" text-anchor="middle" style="font:10px Droid Sans,Trebuchet MS,Arial,Helvetica,sans-serif;stroke:none;fill:#000000">-6</text><text x="74.99999999999864" y="216.125" text-anchor="middle" style="font:10px Droid Sans,Trebuchet MS,Arial,Helvetica,sans-serif;stroke:none;fill:#000000">-5</text><text x="124.9999999999989" y="216.125" text-anchor="middle" style="font:10px Droid Sans,Trebuchet MS,Arial,Helvetica,sans-serif;stroke:none;fill:#000000">-4</text><text x="174.9999999999992" y="216.125" text-anchor="middle" style="font:10px Droid Sans,Trebuchet MS,Arial,Helvetica,sans-serif;stroke:none;fill:#000000">-3</text><text x="224.99999999999946" y="216.125" text-anchor="middle" style="font:10px Droid Sans,Trebuchet MS,Arial,Helvetica,sans-serif;stroke:none;fill:#000000">-2</text><text x="274.9999999999998" y="216.125" text-anchor="middle" style="font:10px Droid Sans,Trebuchet MS,Arial,Helvetica,sans-serif;stroke:none;fill:#000000">-1</text><text x="325" y="216.125" text-anchor="middle" style="font:10px Droid Sans,Trebuchet MS,Arial,Helvetica,sans-serif;stroke:none;fill:#000000">0</text><text x="375.0000000000002" y="216.125" text-anchor="middle" style="font:10px Droid Sans,Trebuchet MS,Arial,Helvetica,sans-serif;stroke:none;fill:#000000">1</text><text x="425.0000000000005" y="216.125" text-anchor="middle" style="font:10px Droid Sans,Trebuchet MS,Arial,Helvetica,sans-serif;stroke:none;fill:#000000">2</text><text x="475.00000000000085" y="216.125" text-anchor="middle" style="font:10px Droid Sans,Trebuchet MS,Arial,Helvetica,sans-serif;stroke:none;fill:#000000">3</text><text x="525.0000000000011" y="216.125" text-anchor="middle" style="font:10px Droid Sans,Trebuchet MS,Arial,Helvetica,sans-serif;stroke:none;fill:#000000">4</text><text x="575.0000000000014" y="216.125" text-anchor="middle" style="font:10px Droid Sans,Trebuchet MS,Arial,Helvetica,sans-serif;stroke:none;fill:#000000">5</text><text x="625.0000000000016" y="216.125" text-anchor="middle" style="font:10px Droid Sans,Trebuchet MS,Arial,Helvetica,sans-serif;stroke:none;fill:#000000">6</text><path d="M-10.00 200.00 L-0.25 250.00 L0.75 250.00 L2.75 250.00 L4.75 250.00 L6.75 250.00 L8.75 250.00 L10.75 250.00 L12.75 250.00 L14.75 250.00 L16.75 250.00 L18.75 250.00 L20.75 250.00 L22.75 250.00 L24.75 250.00 L26.75 250.00 L28.75 250.00 L30.75 250.00 L32.75 250.00 L34.75 250.00 L36.75 250.00 L38.75 250.00 L40.75 250.00 L42.75 250.00 L44.75 250.00 L46.75 250.00 L48.75 250.00 L50.75 250.00 L52.75 250.00 L54.75 250.00 L56.75 250.00 L58.75 250.00 L60.75 250.00 L62.75 250.00 L64.75 250.00 L66.75 250.00 L68.75 250.00 L70.75 250.00 L72.75 250.00 L74.75 250.00 L76.75 250.00 L78.75 249.99 L80.75 249.99 L82.75 249.99 L84.75 249.99 L86.75 249.99 L88.75 249.99 L90.75 249.99 L92.75 249.99 L94.75 249.99 L96.75 249.99 L98.75 249.99 L100.75 249.99 L102.75 249.99 L104.75 249.99 L106.75 249.98 L108.75 249.98 L110.75 249.98 L112.75 249.98 L114.75 249.98 L116.75 249.98 L118.75 249.97 L120.75 249.97 L122.75 249.97 L124.75 249.97 L126.75 249.96 L128.75 249.96 L130.75 249.96 L132.75 249.95 L134.75 249.95 L136.75 249.95 L138.75 249.94 L140.75 249.94 L142.75 249.93 L144.75 249.93 L146.75 249.92 L148.75 249.91 L150.75 249.91 L152.75 249.90 L154.75 249.89 L156.75 249.88 L158.75 249.87 L160.75 249.86 L162.75 249.85 L164.75 249.84 L166.75 249.82 L168.75 249.81 L170.75 249.79 L172.75 249.77 L174.75 249.76 L176.75 249.73 L178.75 249.71 L180.75 249.69 L182.75 249.66 L184.75 249.64 L186.75 249.60 L188.75 249.57 L190.75 249.54 L192.75 249.50 L194.75 249.46 L196.75 249.41 L198.75 249.36 L200.75 249.31 L202.75 249.25 L204.75 249.19 L206.75 249.13 L208.75 249.05 L210.75 248.97 L212.75 248.89 L214.75 248.80 L216.75 248.70 L218.75 248.59 L220.75 248.48 L222.75 248.35 L224.75 248.22 L226.75 248.07 L228.75 247.92 L230.75 247.75 L232.75 247.56 L234.75 247.37 L236.75 247.15 L238.75 246.92 L240.75 246.68 L242.75 246.41 L244.75 246.12 L246.75 245.81 L248.75 245.48 L250.75 245.12 L252.75 244.73 L254.75 244.32 L256.75 243.88 L258.75 243.40 L260.75 242.89 L262.75 242.34 L264.75 241.76 L266.75 241.13 L268.75 240.46 L270.75 239.75 L272.75 238.99 L274.75 238.18 L276.75 237.32 L278.75 236.41 L280.75 235.45 L282.75 234.42 L284.70 233.37 L286.56 232.31 L288.31 231.27 L289.99 230.22 L291.60 229.18 L293.15 228.14 L294.64 227.11 L296.08 226.08 L297.47 225.05 L298.83 224.02 L300.14 222.99 L301.43 221.97 L302.68 220.95 L303.91 219.93 L305.11 218.91 L306.28 217.89 L307.44 216.87 L308.58 215.86 L309.70 214.84 L310.80 213.83 L311.89 212.82 L312.97 211.80 L314.03 210.79 L315.09 209.79 L316.13 208.78 L317.17 207.77 L318.20 206.76 L319.22 205.76 L320.23 204.75 L321.24 203.75 L322.25 202.75 L323.26 201.74 L324.26 200.74 L325.26 199.74 L326.26 198.74 L327.26 197.74 L328.26 196.74 L329.26 195.75 L330.27 194.75 L331.28 193.76 L332.29 192.76 L333.31 191.77 L334.33 190.77 L335.37 189.78 L336.41 188.79 L337.45 187.80 L338.51 186.81 L339.58 185.82 L340.66 184.83 L341.76 183.84 L342.86 182.86 L343.99 181.87 L345.13 180.89 L346.29 179.91 L347.47 178.93 L348.68 177.95 L349.91 176.97 L351.16 175.99 L352.45 175.01 L353.76 174.04 L355.11 173.07 L356.50 172.10 L357.93 171.13 L359.41 170.16 L360.93 169.20 L362.52 168.23 L364.16 167.27 L365.87 166.32 L367.66 165.36 L369.54 164.41 L371.51 163.47 L373.51 162.56 L375.51 161.71 L377.51 160.91 L379.51 160.15 L381.51 159.45 L383.51 158.78 L385.51 158.16 L387.51 157.58 L389.51 157.04 L391.51 156.53 L393.51 156.06 L395.51 155.62 L397.51 155.21 L399.51 154.83 L401.51 154.48 L403.51 154.15 L405.51 153.84 L407.51 153.56 L409.51 153.29 L411.51 153.05 L413.51 152.82 L415.51 152.61 L417.51 152.41 L419.51 152.23 L421.51 152.06 L423.51 151.91 L425.51 151.76 L427.51 151.63 L429.51 151.51 L431.51 151.39 L433.51 151.29 L435.51 151.19 L437.51 151.10 L439.51 151.01 L441.51 150.94 L443.51 150.87 L445.51 150.80 L447.51 150.74 L449.51 150.68 L451.51 150.63 L453.51 150.58 L455.51 150.54 L457.51 150.50 L459.51 150.46 L461.51 150.42 L463.51 150.39 L465.51 150.36 L467.51 150.33 L469.51 150.31 L471.51 150.28 L473.51 150.26 L475.51 150.24 L477.51 150.22 L479.51 150.21 L481.51 150.19 L483.51 150.18 L485.51 150.16 L487.51 150.15 L489.51 150.14 L491.51 150.13 L493.51 150.12 L495.51 150.11 L497.51 150.10 L499.51 150.09 L501.51 150.09 L503.51 150.08 L505.51 150.07 L507.51 150.07 L509.51 150.06 L511.51 150.06 L513.51 150.05 L515.51 150.05 L517.51 150.05 L519.51 150.04 L521.51 150.04 L523.51 150.04 L525.51 150.03 L527.51 150.03 L529.51 150.03 L531.51 150.03 L533.51 150.02 L535.51 150.02 L537.51 150.02 L539.51 150.02 L541.51 150.02 L543.51 150.02 L545.51 150.01 L547.51 150.01 L549.51 150.01 L551.51 150.01 L553.51 150.01 L555.51 150.01 L557.51 150.01 L559.51 150.01 L561.51 150.01 L563.51 150.01 L565.51 150.01 L567.51 150.01 L569.51 150.01 L571.51 150.01 L573.51 150.00 L575.51 150.00 L577.51 150.00 L579.51 150.00 L581.51 150.00 L583.51 150.00 L585.51 150.00 L587.51 150.00 L589.51 150.00 L591.51 150.00 L593.51 150.00 L595.51 150.00 L597.51 150.00 L599.51 150.00 L601.51 150.00 L603.51 150.00 L605.51 150.00 L607.51 150.00 L609.51 150.00 L611.51 150.00 L613.51 150.00 L615.51 150.00 L617.51 150.00 L619.51 150.00 L621.51 150.00 L623.51 150.00 L625.51 150.00 L627.51 150.00 L629.51 150.00 L631.51 150.00 L633.51 150.00 L635.51 150.00 L637.51 150.00 L639.51 150.00 L641.51 150.00 L643.51 150.00 L645.51 150.00 L647.51 150.00 L649.51 150.00 " style="fill:none;stroke:#000000;stroke-width:1;" /></g></svg>