<?xml version="1.0" standalone="no"?><!DOCTYPE svg PUBLIC "-//W3C//DTD SVG 1.1//EN" "http://www.w3.org/Graphics/SVG/1.1/DTD/svg11.dtd"><svg xmlns="http://www.w3.org/2000/svg" viewBox="0 0 650 400" version="1.1"><clipPath id="box"><rect x="0" y="0" width="650" height="400" style="fill:none;stroke:none;" /></clipPath><g clip-path="url(#box)"><rect x="0.00" y="0.00" width="650.00" height="400.00" style="fill:#FFFFFF;stroke:none;" /><path d="M325.00 0.00 L325.00 400.00 " style="fill:none;stroke:#000000;stroke-width:1;" /><path d="M318.50 400.00 L331.50 400.00 M318.50 350.00 L331.50 350.00 M318.50 300.00 L331.50 300.00 M318.50 250.00 L331.50 250.00 M318.50 200.00 L331.50 200.00 M318.50 150.00 L331.50 150.00 M318.50 100.00 L331.50 100.00 M318.50 50.00 L331.50 50.00 " style="fill:none;stroke:#000000;stroke-width:1;" /><path d="M0.00 200.00 L650.00 200.00 " style="fill:none;stroke:#000000;stroke-width:1;" /><path d="M-25.00 193.50 L-25.00 206.50 M25.00 193.50 L25.00 206.50 M75.00 193.50 L75.00 206.50 M125.00 193.50 L125.00 206.50 M175.00 193.50 L175.00 206.50 M225.00 193.50 L225.00 206.50 M275.00 193.50 L275.00 206.50 M325.00 193.50 L325.00 206.50 M375.00 193.50 L375.00 206.50 M425.00 193.50 L425.00 206.50 M475.00 193.50 L475.00 206.50 M525.00 193.50 L525.00 206.50 M575.00 193.50 L575.00 206.50 M625.00 193.50 L625.00 206.50 " style="fill:none;stroke:#000000;stroke-width:1;" /><text x="333.125" y="352.5000000000009" text-anchor="start" style="font:10px Droid Sans,Trebuchet MS,Arial,Helvetica,sans-serif;stroke:none;fill:#000000">-3</text><text x="333.125" y="302.5000000000006" text-anchor="start" style="font:10px Droid Sans,Trebuchet MS,Arial,Helvetica,sans-serif;stroke:none;fill:#000000">-2</text><text x="333.125" y="252.5000000000003" text-anchor="start" style="font:10px Droid Sans,Trebuchet MS,Arial,Helvetica,sans-serif;stroke:none;fill:#000000">-1</text><text x="333.125" y="202.5" text-anchor="start" style="font:10px Droid Sans,Trebuchet MS,Arial,Helvetica,sans-serif;stroke:none;fill:#000000">0</text><text x="333.125" y="152.49999999999972" text-anchor="start" style="font:10px Droid Sans,Trebuchet MS,Arial,Helvetica,sans-serif;stroke:none;fill:#000000">1</text><text x="333.125" y="102.49999999999942" text-anchor="start" style="font:10px Droid Sans,Trebuchet MS,Arial,Helvetica,sans-serif;stroke:none;fill:#000000">2</text><text x="333.125" y="52.49999999999912" text-anchor="start" style="font:10px Droid Sans,Trebuchet MS,Arial,Helvetica,sans-serif;stroke:none;fill:#000000">3</text><text x="24.9999999999982" y="216.125" text-anchor="middle" style="font:10px Droid Sans,Trebuchet MS,Arial,Helvetica,sans-serif;stroke:none;fill:#000000">-6</text><text x="74.9999999999985" y="216.125" text-anchor="middle" style="font:10px Droid Sans,Trebuchet MS,Arial,Helvetica,sans-serif;stroke:none;fill:#000000">-5</text><text x="124.99999999999879" y="216.125" text-anchor="middle" style="font:10px Droid Sans,Trebuchet MS,Arial,Helvetica,sans-serif;stroke:none;fill:#000000">-4</text><text x="174.9999999999991" y="216.125" text-anchor="middle" style="font:10px Droid Sans,Trebuchet MS,Arial,Helvetica,sans-serif;stroke:none;fill:#000000">-3</text><text x="224.99999999999937" y="216.125" text-anchor="middle" style="font:10px Droid Sans,Trebuchet MS,Arial,Helvetica,sans-serif;stroke:none;fill:#000000">-2</text><text x="274.9999999999997" y="216.125" text-anchor="middle" style="font:10px Droid Sans,Trebuchet MS,Arial,Helvetica,sans-serif;stroke:none;fill:#000000">-1</text><text x="325" y="216.125" text-anchor="middle" style="font:10px Droid Sans,Trebuchet MS,Arial,Helvetica,sans-serif;stroke:none;fill:#000000">0</text><text x="375.00000000000034" y="216.125" text-anchor="middle" style="font:10px Droid Sans,Trebuchet MS,Arial,Helvetica,sans-serif;stroke:none;fill:#000000">1</text><text x="425.00000000000057" y="216.125" text-anchor="middle" style="font:10px Droid Sans,Trebuchet MS,Arial,Helvetica,sans-serif;stroke:none;fill:#000000">2</text><text x="475.0000000000009" y="216.125" text-anchor="middle" style="font:10px Droid Sans,Trebuchet MS,Arial,Helvetica,sans-serif;stroke:none;fill:#000000">3</text><text x="525.0000000000013" y="216.125" text-anchor="middle" style="font:10px Droid Sans,Trebuchet MS,Arial,Helvetica,sans-serif;stroke:none;fill:#000000">4</text><text x="575.0000000000015" y="216.125" text-anchor="middle" style="font:10px Droid Sans,Trebuchet MS,Arial,Helvetica,sans-serif;stroke:none;fill:#000000">5</text><text x="625.0000000000018" y="216.125" text-anchor="middle" style="font:10px Droid Sans,Trebuchet MS,Arial,Helvetica,sans-serif;stroke:none;fill:#000000">6</text><path d="M358.20 277.51 L358.20 277.51 L353.25 266.11 L347.24 260.47 L340.43 256.75 L333.09 254.01 L325.53 251.86 L318.06 250.08 L310.97 248.57 L304.54 247.26 L299.02 246.10 L294.61 245.06 L291.47 244.11 L289.72 243.24 L289.40 242.44 L290.50 241.68 L292.95 240.97 L296.63 240.30 L301.38 239.66 L306.99 239.04 L313.22 238.45 L319.80 237.88 L326.47 237.33 L332.96 236.79 L339.01 236.27 L344.39 235.76 L348.89 235.25 L352.35 234.76 L354.65 234.27 L355.73 233.79 L355.56 233.32 L354.18 232.85 L351.67 232.38 L348.16 231.92 L343.80 231.46 L338.80 231.01 L333.37 230.55 L327.74 230.10 L322.14 229.65 L316.80 229.20 L311.93 228.75 L307.70 228.30 L304.28 227.85 L301.78 227.40 L300.27 226.95 L299.79 226.50 L300.34 226.05 L301.84 225.60 L304.23 225.15 L307.36 224.70 L311.10 224.25 L315.26 223.79 L319.67 223.34 L324.14 222.88 L328.48 222.43 L332.52 221.97 L336.10 221.51 L339.10 221.05 L341.41 220.59 L342.97 220.12 L343.74 219.66 L343.73 219.19 L342.97 218.73 L341.52 218.26 L339.47 217.79 L336.94 217.31 L334.07 216.84 L330.97 216.37 L327.81 215.89 L324.70 215.42 L321.80 214.94 L319.19 214.46 L316.99 213.98 L315.26 213.50 L314.04 213.01 L313.36 212.53 L313.21 212.04 L313.56 211.56 L314.36 211.07 L315.54 210.58 L317.01 210.09 L318.69 209.60 L320.48 209.11 L322.29 208.62 L324.01 208.12 L325.59 207.63 L326.95 207.14 L328.04 206.64 L328.84 206.14 L329.34 205.65 L329.53 205.15 L329.45 204.65 L329.13 204.15 L328.63 203.66 L328.01 203.16 L327.32 202.66 L326.64 202.16 L326.02 201.66 L325.52 201.16 L325.17 200.66 L325.01 200.16 L325.05 199.66 L325.28 199.16 L325.68 198.66 L326.24 198.16 L326.88 197.66 L327.57 197.16 L328.24 196.66 L328.83 196.16 L329.27 195.66 L329.51 195.17 L329.49 194.67 L329.19 194.17 L328.59 193.68 L327.68 193.18 L326.49 192.69 L325.04 192.19 L323.40 191.70 L321.64 191.20 L319.83 190.71 L318.07 190.22 L316.45 189.73 L315.07 189.24 L314.02 188.75 L313.38 188.27 L313.20 187.78 L313.54 187.30 L314.42 186.81 L315.83 186.33 L317.74 185.85 L320.10 185.37 L322.82 184.89 L325.81 184.41 L328.95 183.93 L332.11 183.46 L335.14 182.99 L337.91 182.51 L340.28 182.04 L342.12 181.57 L343.33 181.10 L343.82 180.64 L343.55 180.17 L342.49 179.71 L340.65 179.25 L338.08 178.78 L334.86 178.32 L331.10 177.87 L326.93 177.41 L322.52 176.95 L318.06 176.50 L313.71 176.04 L309.68 175.59 L306.15 175.14 L303.27 174.68 L301.19 174.23 L300.02 173.78 L299.85 173.33 L300.70 172.89 L302.57 172.44 L305.42 171.99 L309.15 171.54 L313.63 171.09 L318.70 170.64 L324.16 170.19 L329.79 169.74 L335.38 169.28 L340.68 168.83 L345.47 168.37 L349.54 167.91 L352.71 167.45 L354.82 166.98 L355.76 166.51 L355.48 166.03 L353.95 165.55 L351.22 165.06 L347.37 164.57 L342.53 164.06 L336.88 163.54 L330.64 163.01 L324.06 162.47 L317.39 161.91 L310.90 161.33 L304.87 160.74 L299.55 160.11 L295.16 159.46 L291.91 158.77 L289.94 158.05 L289.35 157.28 L290.19 156.45 L292.46 155.55 L296.07 154.57 L300.90 153.49 L306.78 152.28 L313.48 150.91 L320.75 149.31 L328.28 147.41 L335.79 145.07 L342.97 142.04 L349.53 137.80 L355.18 130.87 L359.69 112.57 " style="fill:none;stroke:#00B7FF;stroke-width:1;" /></g></svg>