<?xml version="1.0" standalone="no"?><!DOCTYPE svg PUBLIC "-//W3C//DTD SVG 1.1//EN" "http://www.w3.org/Graphics/SVG/1.1/DTD/svg11.dtd"><svg xmlns="http://www.w3.org/2000/svg" viewBox="0 0 650 400" version="1.1"><clipPath id="box"><rect x="0" y="0" width="650" height="400" style="fill:none;stroke:none;" /></clipPath><g clip-path="url(#box)"><rect x="0.00" y="0.00" width="650.00" height="400.00" style="fill:#FFFFFF;stroke:none;" /><path d="M0.00 356.00 L650.00 356.00 M0.00 278.00 L650.00 278.00 M0.00 200.00 L650.00 200.00 M0.00 121.00 L650.00 121.00 M0.00 43.00 L650.00 43.00 M12.00 0.00 L12.00 400.00 M90.00 0.00 L90.00 400.00 M168.00 0.00 L168.00 400.00 M246.00 0.00 L246.00 400.00 M325.00 0.00 L325.00 400.00 M403.00 0.00 L403.00 400.00 M481.00 0.00 L481.00 400.00 M559.00 0.00 L559.00 400.00 M637.00 0.00 L637.00 400.00 " style="fill:none;stroke:#D0D0D0;stroke-width:1;" /><path d="M325.00 0.00 L325.00 400.00 " style="fill:none;stroke:#000000;stroke-width:1;" /><path d="M318.50 434.38 L331.50 434.38 M318.50 356.25 L331.50 356.25 M318.50 278.13 L331.50 278.13 M318.50 200.00 L331.50 200.00 M318.50 121.87 L331.50 121.87 M318.50 43.75 L331.50 43.75 " style="fill:none;stroke:#000000;stroke-width:1;" /><path d="M0.00 200.00 L650.00 200.00 " style="fill:none;stroke:#000000;stroke-width:1;" /><path d="M-65.63 193.50 L-65.63 206.50 M12.50 193.50 L12.50 206.50 M90.62 193.50 L90.62 206.50 M168.75 193.50 L168.75 206.50 M246.87 193.50 L246.87 206.50 M325.00 193.50 L325.00 206.50 M403.13 193.50 L403.13 206.50 M481.25 193.50 L481.25 206.50 M559.38 193.50 L559.38 206.50 M637.50 193.50 L637.50 206.50 " style="fill:none;stroke:#000000;stroke-width:1;" /><text x="333.125" y="358.7500000000003" text-anchor="start" style="font:10px Droid Sans,Trebuchet MS,Arial,Helvetica,sans-serif;stroke:none;fill:#000000">-2</text><text x="333.125" y="280.6250000000001" text-anchor="start" style="font:10px Droid Sans,Trebuchet MS,Arial,Helvetica,sans-serif;stroke:none;fill:#000000">-1</text><text x="333.125" y="202.5" text-anchor="start" style="font:10px Droid Sans,Trebuchet MS,Arial,Helvetica,sans-serif;stroke:none;fill:#000000">0</text><text x="333.125" y="124.37499999999989" text-anchor="start" style="font:10px Droid Sans,Trebuchet MS,Arial,Helvetica,sans-serif;stroke:none;fill:#000000">1</text><text x="333.125" y="46.24999999999979" text-anchor="start" style="font:10px Droid Sans,Trebuchet MS,Arial,Helvetica,sans-serif;stroke:none;fill:#000000">2</text><text x="12.499999999999611" y="216.125" text-anchor="middle" style="font:10px Droid Sans,Trebuchet MS,Arial,Helvetica,sans-serif;stroke:none;fill:#000000">-4</text><text x="90.62499999999972" y="216.125" text-anchor="middle" style="font:10px Droid Sans,Trebuchet MS,Arial,Helvetica,sans-serif;stroke:none;fill:#000000">-3</text><text x="168.7499999999998" y="216.125" text-anchor="middle" style="font:10px Droid Sans,Trebuchet MS,Arial,Helvetica,sans-serif;stroke:none;fill:#000000">-2</text><text x="246.87499999999991" y="216.125" text-anchor="middle" style="font:10px Droid Sans,Trebuchet MS,Arial,Helvetica,sans-serif;stroke:none;fill:#000000">-1</text><text x="325" y="216.125" text-anchor="middle" style="font:10px Droid Sans,Trebuchet MS,Arial,Helvetica,sans-serif;stroke:none;fill:#000000">0</text><text x="403.12500000000006" y="216.125" text-anchor="middle" style="font:10px Droid Sans,Trebuchet MS,Arial,Helvetica,sans-serif;stroke:none;fill:#000000">1</text><text x="481.25000000000017" y="216.125" text-anchor="middle" style="font:10px Droid Sans,Trebuchet MS,Arial,Helvetica,sans-serif;stroke:none;fill:#000000">2</text><text x="559.3750000000003" y="216.125" text-anchor="middle" style="font:10px Droid Sans,Trebuchet MS,Arial,Helvetica,sans-serif;stroke:none;fill:#000000">3</text><text x="637.5000000000005" y="216.125" text-anchor="middle" style="font:10px Droid Sans,Trebuchet MS,Arial,Helvetica,sans-serif;stroke:none;fill:#000000">4</text><path d="M325.21 400.03 L325.22 399.87 L325.22 398.89 L325.23 397.92 L325.24 396.94 L325.24 395.97 L325.25 395.00 L325.26 394.03 L325.26 393.06 L325.27 392.08 L325.28 391.11 L325.29 390.14 L325.30 389.17 L325.30 388.20 L325.31 387.23 L325.32 386.25 L325.33 385.28 L325.34 384.31 L325.35 383.34 L325.36 382.37 L325.37 381.40 L325.38 380.42 L325.39 379.45 L325.41 378.48 L325.42 377.51 L325.43 376.54 L325.44 375.56 L325.45 374.59 L325.47 373.62 L325.48 372.65 L325.50 371.68 L325.51 370.71 L325.53 369.73 L325.54 368.76 L325.56 367.79 L325.57 366.82 L325.59 365.85 L325.61 364.88 L325.62 363.90 L325.64 362.93 L325.66 361.96 L325.68 360.99 L325.70 360.02 L325.72 359.04 L325.74 358.07 L325.76 357.10 L325.78 356.13 L325.81 355.16 L325.83 354.19 L325.85 353.21 L325.88 352.24 L325.90 351.27 L325.93 350.30 L325.96 349.33 L325.99 348.36 L326.01 347.38 L326.04 346.41 L326.07 345.44 L326.11 344.47 L326.14 343.50 L326.17 342.52 L326.20 341.55 L326.24 340.58 L326.28 339.61 L326.31 338.64 L326.35 337.67 L326.39 336.69 L326.43 335.72 L326.47 334.75 L326.52 333.78 L326.56 332.81 L326.60 331.84 L326.65 330.86 L326.70 329.89 L326.75 328.92 L326.80 327.95 L326.85 326.98 L326.91 326.00 L326.96 325.03 L327.02 324.06 L327.08 323.09 L327.14 322.12 L327.20 321.15 L327.26 320.17 L327.33 319.20 L327.40 318.23 L327.47 317.26 L327.54 316.29 L327.61 315.32 L327.69 314.34 L327.76 313.37 L327.84 312.40 L327.93 311.43 L328.01 310.46 L328.10 309.48 L328.19 308.51 L328.28 307.54 L328.38 306.57 L328.48 305.60 L328.58 304.63 L328.68 303.65 L328.79 302.68 L328.90 301.71 L329.01 300.74 L329.13 299.77 L329.25 298.80 L329.37 297.82 L329.50 296.85 L329.63 295.88 L329.76 294.91 L329.90 293.94 L330.04 292.96 L330.19 291.99 L330.34 291.02 L330.50 290.05 L330.66 289.08 L330.82 288.11 L330.99 287.13 L331.16 286.16 L331.34 285.19 L331.53 284.22 L331.72 283.25 L331.91 282.28 L332.11 281.30 L332.32 280.33 L332.53 279.36 L332.75 278.39 L332.98 277.42 L333.21 276.44 L333.45 275.47 L333.69 274.50 L333.95 273.53 L334.21 272.56 L334.47 271.59 L334.75 270.61 L335.03 269.64 L335.32 268.67 L335.62 267.70 L335.93 266.73 L336.25 265.76 L336.58 264.78 L336.91 263.81 L337.26 262.84 L337.61 261.87 L337.98 260.90 L338.36 259.92 L338.75 258.95 L339.15 257.98 L339.56 257.01 L339.98 256.04 L340.42 255.07 L340.86 254.09 L341.32 253.12 L341.80 252.15 L342.29 251.18 L342.79 250.21 L343.31 249.24 L343.84 248.26 L344.38 247.29 L344.95 246.32 L345.53 245.35 L346.12 244.38 L346.74 243.40 L347.37 242.43 L348.02 241.46 L348.69 240.49 L349.38 239.52 L350.08 238.55 L350.81 237.57 L351.56 236.60 L352.34 235.63 L353.13 234.66 L353.95 233.69 L354.79 232.72 L355.65 231.74 L356.54 230.77 L357.46 229.80 L358.40 228.83 L359.37 227.86 L360.37 226.88 L361.40 225.91 L362.46 224.94 L363.55 223.97 L364.67 223.00 L365.82 222.03 L367.01 221.05 L368.23 220.08 L369.48 219.11 L370.77 218.14 L372.10 217.17 L373.47 216.20 L374.88 215.22 L376.33 214.25 L377.82 213.28 L379.36 212.31 L380.94 211.34 L382.56 210.36 L384.23 209.39 L385.95 208.42 L387.73 207.45 L389.55 206.48 L391.42 205.51 L393.35 204.53 L395.34 203.56 L397.34 202.61 L399.34 201.69 L401.34 200.78 L403.34 199.91 L405.34 199.05 L407.34 198.22 L409.34 197.40 L411.34 196.61 L413.34 195.83 L415.34 195.07 L417.34 194.33 L419.34 193.60 L421.34 192.89 L423.34 192.19 L425.34 191.51 L427.34 190.84 L429.34 190.18 L431.34 189.54 L433.34 188.91 L435.34 188.29 L437.34 187.68 L439.34 187.08 L441.34 186.49 L443.34 185.91 L445.34 185.34 L447.34 184.78 L449.34 184.23 L451.34 183.69 L453.34 183.16 L455.34 182.63 L457.34 182.12 L459.34 181.61 L461.34 181.11 L463.34 180.61 L465.34 180.13 L467.34 179.65 L469.34 179.17 L471.34 178.71 L473.34 178.24 L475.34 177.79 L477.34 177.34 L479.34 176.90 L481.34 176.46 L483.34 176.03 L485.34 175.61 L487.34 175.18 L489.34 174.77 L491.34 174.36 L493.34 173.95 L495.34 173.55 L497.34 173.16 L499.34 172.77 L501.34 172.38 L503.34 172.00 L505.34 171.62 L507.34 171.24 L509.34 170.87 L511.34 170.51 L513.34 170.14 L515.34 169.79 L517.34 169.43 L519.34 169.08 L521.34 168.73 L523.34 168.39 L525.34 168.05 L527.34 167.71 L529.34 167.38 L531.34 167.05 L533.34 166.72 L535.34 166.40 L537.34 166.08 L539.34 165.76 L541.34 165.44 L543.34 165.13 L545.34 164.82 L547.34 164.51 L549.34 164.21 L551.34 163.91 L553.34 163.61 L555.34 163.31 L557.34 163.02 L559.34 162.73 L561.34 162.44 L563.34 162.16 L565.34 161.87 L567.34 161.59 L569.34 161.31 L571.34 161.04 L573.34 160.76 L575.34 160.49 L577.34 160.22 L579.34 159.95 L581.34 159.69 L583.34 159.42 L585.34 159.16 L587.34 158.90 L589.34 158.64 L591.34 158.39 L593.34 158.13 L595.34 157.88 L597.34 157.63 L599.34 157.38 L601.34 157.14 L603.34 156.89 L605.34 156.65 L607.34 156.41 L609.34 156.17 L611.34 155.93 L613.34 155.69 L615.34 155.46 L617.34 155.23 L619.34 155.00 L621.34 154.77 L623.34 154.54 L625.34 154.31 L627.34 154.09 L629.34 153.86 L631.34 153.64 L633.34 153.42 L635.34 153.20 L637.34 152.98 L639.34 152.76 L641.34 152.55 L643.34 152.34 L645.34 152.12 L647.34 151.91 L649.34 151.70 " style="fill:none;stroke:#000000;stroke-width:1;" /></g></svg>