<?xml version="1.0" standalone="no"?><!DOCTYPE svg PUBLIC "-//W3C//DTD SVG 1.1//EN" "http://www.w3.org/Graphics/SVG/1.1/DTD/svg11.dtd"><svg xmlns="http://www.w3.org/2000/svg" viewBox="0 0 650 400" version="1.1"><clipPath id="box"><rect x="0" y="0" width="650" height="400" style="fill:none;stroke:none;" /></clipPath><g clip-path="url(#box)"><rect x="0.00" y="0.00" width="650.00" height="400.00" style="fill:#FFFFFF;stroke:none;" /><path d="M0.00 350.00 L650.00 350.00 M0.00 300.00 L650.00 300.00 M0.00 250.00 L650.00 250.00 M0.00 200.00 L650.00 200.00 M0.00 149.00 L650.00 149.00 M0.00 99.00 L650.00 99.00 M0.00 49.00 L650.00 49.00 M24.00 0.00 L24.00 400.00 M74.00 0.00 L74.00 400.00 M124.00 0.00 L124.00 400.00 M174.00 0.00 L174.00 400.00 M224.00 0.00 L224.00 400.00 M274.00 0.00 L274.00 400.00 M325.00 0.00 L325.00 400.00 M375.00 0.00 L375.00 400.00 M425.00 0.00 L425.00 400.00 M475.00 0.00 L475.00 400.00 M525.00 0.00 L525.00 400.00 M575.00 0.00 L575.00 400.00 M625.00 0.00 L625.00 400.00 " style="fill:none;stroke:#D0D0D0;stroke-width:1;" /><path d="M325.00 0.00 L325.00 400.00 " style="fill:none;stroke:#000000;stroke-width:1;" /><path d="M318.50 400.00 L331.50 400.00 M318.50 350.00 L331.50 350.00 M318.50 300.00 L331.50 300.00 M318.50 250.00 L331.50 250.00 M318.50 200.00 L331.50 200.00 M318.50 150.00 L331.50 150.00 M318.50 100.00 L331.50 100.00 M318.50 50.00 L331.50 50.00 " style="fill:none;stroke:#000000;stroke-width:1;" /><path d="M0.00 200.00 L650.00 200.00 " style="fill:none;stroke:#000000;stroke-width:1;" /><path d="M-25.00 193.50 L-25.00 206.50 M25.00 193.50 L25.00 206.50 M75.00 193.50 L75.00 206.50 M125.00 193.50 L125.00 206.50 M175.00 193.50 L175.00 206.50 M225.00 193.50 L225.00 206.50 M275.00 193.50 L275.00 206.50 M325.00 193.50 L325.00 206.50 M375.00 193.50 L375.00 206.50 M425.00 193.50 L425.00 206.50 M475.00 193.50 L475.00 206.50 M525.00 193.50 L525.00 206.50 M575.00 193.50 L575.00 206.50 M625.00 193.50 L625.00 206.50 " style="fill:none;stroke:#000000;stroke-width:1;" /><text x="333.125" y="352.5000000000008" text-anchor="start" style="font:10px Droid Sans,Trebuchet MS,Arial,Helvetica,sans-serif;stroke:none;fill:#000000">-3</text><text x="333.125" y="302.5000000000005" text-anchor="start" style="font:10px Droid Sans,Trebuchet MS,Arial,Helvetica,sans-serif;stroke:none;fill:#000000">-2</text><text x="333.125" y="252.50000000000026" text-anchor="start" style="font:10px Droid Sans,Trebuchet MS,Arial,Helvetica,sans-serif;stroke:none;fill:#000000">-1</text><text x="333.125" y="202.5" text-anchor="start" style="font:10px Droid Sans,Trebuchet MS,Arial,Helvetica,sans-serif;stroke:none;fill:#000000">0</text><text x="333.125" y="152.49999999999974" text-anchor="start" style="font:10px Droid Sans,Trebuchet MS,Arial,Helvetica,sans-serif;stroke:none;fill:#000000">1</text><text x="333.125" y="102.49999999999946" text-anchor="start" style="font:10px Droid Sans,Trebuchet MS,Arial,Helvetica,sans-serif;stroke:none;fill:#000000">2</text><text x="333.125" y="52.499999999999204" text-anchor="start" style="font:10px Droid Sans,Trebuchet MS,Arial,Helvetica,sans-serif;stroke:none;fill:#000000">3</text><text x="24.99999999999836" y="216.125" text-anchor="middle" style="font:10px Droid Sans,Trebuchet MS,Arial,Helvetica,sans-serif;stroke:none;fill:#000000">-6</text><text x="74.99999999999864" y="216.125" text-anchor="middle" style="font:10px Droid Sans,Trebuchet MS,Arial,Helvetica,sans-serif;stroke:none;fill:#000000">-5</text><text x="124.9999999999989" y="216.125" text-anchor="middle" style="font:10px Droid Sans,Trebuchet MS,Arial,Helvetica,sans-serif;stroke:none;fill:#000000">-4</text><text x="174.9999999999992" y="216.125" text-anchor="middle" style="font:10px Droid Sans,Trebuchet MS,Arial,Helvetica,sans-serif;stroke:none;fill:#000000">-3</text><text x="224.99999999999946" y="216.125" text-anchor="middle" style="font:10px Droid Sans,Trebuchet MS,Arial,Helvetica,sans-serif;stroke:none;fill:#000000">-2</text><text x="274.9999999999998" y="216.125" text-anchor="middle" style="font:10px Droid Sans,Trebuchet MS,Arial,Helvetica,sans-serif;stroke:none;fill:#000000">-1</text><text x="325" y="216.125" text-anchor="middle" style="font:10px Droid Sans,Trebuchet MS,Arial,Helvetica,sans-serif;stroke:none;fill:#000000">0</text><text x="375.0000000000002" y="216.125" text-anchor="middle" style="font:10px Droid Sans,Trebuchet MS,Arial,Helvetica,sans-serif;stroke:none;fill:#000000">1</text><text x="425.0000000000005" y="216.125" text-anchor="middle" style="font:10px Droid Sans,Trebuchet MS,Arial,Helvetica,sans-serif;stroke:none;fill:#000000">2</text><text x="475.00000000000085" y="216.125" text-anchor="middle" style="font:10px Droid Sans,Trebuchet MS,Arial,Helvetica,sans-serif;stroke:none;fill:#000000">3</text><text x="525.0000000000011" y="216.125" text-anchor="middle" style="font:10px Droid Sans,Trebuchet MS,Arial,Helvetica,sans-serif;stroke:none;fill:#000000">4</text><text x="575.0000000000014" y="216.125" text-anchor="middle" style="font:10px Droid Sans,Trebuchet MS,Arial,Helvetica,sans-serif;stroke:none;fill:#000000">5</text><text x="625.0000000000016" y="216.125" text-anchor="middle" style="font:10px Droid Sans,Trebuchet MS,Arial,Helvetica,sans-serif;stroke:none;fill:#000000">6</text><path d="M275.03 400.40 L275.03 399.66 L275.04 398.69 L275.04 397.73 L275.04 396.76 L275.04 395.80 L275.04 394.84 L275.04 393.88 L275.04 392.92 L275.05 391.95 L275.05 390.99 L275.05 390.03 L275.05 389.07 L275.05 388.10 L275.06 387.14 L275.06 386.18 L275.06 385.22 L275.06 384.26 L275.07 383.29 L275.07 382.33 L275.07 381.37 L275.07 380.41 L275.08 379.44 L275.08 378.48 L275.08 377.52 L275.09 376.56 L275.09 375.59 L275.09 374.63 L275.10 373.67 L275.10 372.71 L275.10 371.75 L275.11 370.78 L275.11 369.82 L275.12 368.86 L275.12 367.90 L275.13 366.93 L275.13 365.97 L275.14 365.01 L275.14 364.05 L275.15 363.08 L275.15 362.12 L275.16 361.16 L275.16 360.20 L275.17 359.23 L275.18 358.27 L275.18 357.31 L275.19 356.35 L275.20 355.39 L275.21 354.42 L275.22 353.46 L275.22 352.50 L275.23 351.54 L275.24 350.57 L275.25 349.61 L275.26 348.65 L275.27 347.69 L275.28 346.72 L275.29 345.76 L275.30 344.80 L275.32 343.84 L275.33 342.87 L275.34 341.91 L275.35 340.95 L275.37 339.99 L275.38 339.02 L275.40 338.06 L275.41 337.10 L275.43 336.14 L275.45 335.17 L275.46 334.21 L275.48 333.25 L275.50 332.29 L275.52 331.32 L275.54 330.36 L275.56 329.40 L275.58 328.44 L275.61 327.47 L275.63 326.51 L275.65 325.55 L275.68 324.58 L275.71 323.62 L275.73 322.66 L275.76 321.70 L275.79 320.73 L275.82 319.77 L275.86 318.81 L275.89 317.85 L275.92 316.88 L275.96 315.92 L276.00 314.96 L276.04 313.99 L276.08 313.03 L276.12 312.07 L276.16 311.10 L276.21 310.14 L276.25 309.18 L276.30 308.22 L276.35 307.25 L276.40 306.29 L276.46 305.33 L276.51 304.36 L276.57 303.40 L276.63 302.44 L276.70 301.47 L276.76 300.51 L276.83 299.55 L276.90 298.58 L276.97 297.62 L277.05 296.65 L277.13 295.69 L277.21 294.73 L277.30 293.76 L277.38 292.80 L277.48 291.84 L277.57 290.87 L277.67 289.91 L277.77 288.94 L277.88 287.98 L277.99 287.01 L278.10 286.05 L278.22 285.09 L278.34 284.12 L278.47 283.16 L278.60 282.19 L278.74 281.23 L278.88 280.26 L279.02 279.30 L279.18 278.33 L279.33 277.37 L279.50 276.40 L279.66 275.44 L279.84 274.47 L280.02 273.50 L280.21 272.54 L280.40 271.57 L280.60 270.61 L280.81 269.64 L281.03 268.67 L281.25 267.71 L281.48 266.74 L281.72 265.77 L281.96 264.81 L282.22 263.84 L282.48 262.87 L282.75 261.90 L283.04 260.94 L283.33 259.97 L283.63 259.00 L283.94 258.03 L284.26 257.06 L284.59 256.09 L284.93 255.13 L285.28 254.16 L285.65 253.19 L286.02 252.22 L286.41 251.25 L286.81 250.28 L287.22 249.30 L287.64 248.33 L288.07 247.36 L288.52 246.39 L288.98 245.42 L289.46 244.45 L289.94 243.47 L290.45 242.50 L290.96 241.53 L291.49 240.55 L292.03 239.58 L292.59 238.60 L293.17 237.63 L293.75 236.65 L294.35 235.68 L294.97 234.70 L295.60 233.72 L296.25 232.75 L296.91 231.77 L297.59 230.79 L298.28 229.81 L298.99 228.83 L299.71 227.85 L300.45 226.87 L301.20 225.89 L301.96 224.91 L302.75 223.93 L303.54 222.95 L304.35 221.96 L305.17 220.98 L306.01 219.99 L306.86 219.01 L307.72 218.02 L308.59 217.04 L309.48 216.05 L310.38 215.06 L311.29 214.07 L312.21 213.08 L313.14 212.09 L314.08 211.10 L315.02 210.11 L315.98 209.12 L316.94 208.13 L317.91 207.13 L318.89 206.14 L319.87 205.14 L320.86 204.15 L321.85 203.15 L322.85 202.15 L323.84 201.16 L324.84 200.16 L325.84 199.16 L326.84 198.16 L327.84 197.15 L328.84 196.15 L329.84 195.15 L330.83 194.15 L331.82 193.14 L332.80 192.14 L333.78 191.13 L334.75 190.12 L335.72 189.11 L336.68 188.11 L337.63 187.10 L338.57 186.09 L339.50 185.07 L340.42 184.06 L341.33 183.05 L342.23 182.04 L343.12 181.02 L343.99 180.01 L344.85 178.99 L345.70 177.98 L346.54 176.96 L347.36 175.94 L348.17 174.92 L348.96 173.90 L349.74 172.88 L350.50 171.86 L351.25 170.84 L351.98 169.82 L352.70 168.80 L353.40 167.78 L354.08 166.75 L354.75 165.73 L355.41 164.70 L356.04 163.68 L356.67 162.65 L357.27 161.63 L357.86 160.60 L358.44 159.57 L359.00 158.54 L359.55 157.52 L360.08 156.49 L360.59 155.46 L361.09 154.43 L361.58 153.40 L362.05 152.37 L362.51 151.34 L362.95 150.30 L363.38 149.27 L363.80 148.24 L364.20 147.21 L364.59 146.18 L364.97 145.14 L365.34 144.11 L365.70 143.07 L366.04 142.04 L366.37 141.01 L366.69 139.97 L367.00 138.94 L367.30 137.90 L367.59 136.86 L367.87 135.83 L368.14 134.79 L368.40 133.76 L368.65 132.72 L368.89 131.68 L369.13 130.65 L369.35 129.61 L369.57 128.57 L369.78 127.53 L369.98 126.50 L370.17 125.46 L370.36 124.42 L370.54 123.38 L370.72 122.34 L370.88 121.30 L371.04 120.26 L371.20 119.23 L371.35 118.19 L371.49 117.15 L371.63 116.11 L371.76 115.07 L371.89 114.03 L372.01 112.99 L372.13 111.95 L372.24 110.91 L372.35 109.87 L372.46 108.83 L372.56 107.79 L372.66 106.75 L372.75 105.71 L372.84 104.67 L372.93 103.63 L373.01 102.59 L373.09 101.54 L373.17 100.50 L373.24 99.46 L373.31 98.42 L373.38 97.38 L373.44 96.34 L373.51 95.30 L373.57 94.26 L373.62 93.22 L373.68 92.17 L373.73 91.13 L373.78 90.09 L373.83 89.05 L373.88 88.01 L373.92 86.97 L373.97 85.93 L374.01 84.88 L374.05 83.84 L374.09 82.80 L374.12 81.76 L374.16 80.72 L374.19 79.68 L374.23 78.63 L374.26 77.59 L374.29 76.55 L374.32 75.51 L374.34 74.47 L374.37 73.42 L374.40 72.38 L374.42 71.34 L374.44 70.30 L374.47 69.26 L374.49 68.21 L374.51 67.17 L374.53 66.13 L374.55 65.09 L374.57 64.04 L374.58 63.00 L374.60 61.96 L374.62 60.92 L374.63 59.88 L374.65 58.83 L374.66 57.79 L374.68 56.75 L374.69 55.71 L374.70 54.66 L374.71 53.62 L374.73 52.58 L374.74 51.54 L374.75 50.50 L374.76 49.45 L374.77 48.41 L374.78 47.37 L374.79 46.33 L374.80 45.28 L374.80 44.24 L374.81 43.20 L374.82 42.16 L374.83 41.11 L374.83 40.07 L374.84 39.03 L374.85 37.99 L374.85 36.94 L374.86 35.90 L374.86 34.86 L374.87 33.82 L374.88 32.77 L374.88 31.73 L374.89 30.69 L374.89 29.65 L374.89 28.60 L374.90 27.56 L374.90 26.52 L374.91 25.48 L374.91 24.43 L374.91 23.39 L374.92 22.35 L374.92 21.31 L374.92 20.26 L374.93 19.22 L374.93 18.18 L374.93 17.14 L374.94 16.09 L374.94 15.05 L374.94 14.01 L374.94 12.97 L374.95 11.92 L374.95 10.88 L374.95 9.84 L374.95 8.80 L374.95 7.75 L374.96 6.71 L374.96 5.67 L374.96 4.63 L374.96 3.58 L374.96 2.54 L374.96 1.50 L374.97 0.46 L374.97 -0.59 " style="fill:none;stroke:#000000;stroke-width:1;" /></g></svg>