<?xml version="1.0" standalone="no"?><!DOCTYPE svg PUBLIC "-//W3C//DTD SVG 1.1//EN" "http://www.w3.org/Graphics/SVG/1.1/DTD/svg11.dtd"><svg xmlns="http://www.w3.org/2000/svg" viewBox="0 0 650 400" version="1.1"><clipPath id="box"><rect x="0" y="0" width="650" height="400" style="fill:none;stroke:none;" /></clipPath><g clip-path="url(#box)"><rect x="0.00" y="0.00" width="650.00" height="400.00" style="fill:#FFFFFF;stroke:none;" /><path d="M0.00 400.00 L650.00 400.00 M0.00 350.00 L650.00 350.00 M0.00 300.00 L650.00 300.00 M0.00 250.00 L650.00 250.00 M0.00 200.00 L650.00 200.00 M0.00 150.00 L650.00 150.00 M0.00 100.00 L650.00 100.00 M0.00 50.00 L650.00 50.00 M0.00 0.00 L650.00 0.00 M25.00 0.00 L25.00 400.00 M75.00 0.00 L75.00 400.00 M125.00 0.00 L125.00 400.00 M175.00 0.00 L175.00 400.00 M225.00 0.00 L225.00 400.00 M275.00 0.00 L275.00 400.00 M325.00 0.00 L325.00 400.00 M374.00 0.00 L374.00 400.00 M425.00 0.00 L425.00 400.00 M475.00 0.00 L475.00 400.00 M525.00 0.00 L525.00 400.00 M575.00 0.00 L575.00 400.00 M625.00 0.00 L625.00 400.00 " style="fill:none;stroke:#D0D0D0;stroke-width:1;" /><path d="M325.00 0.00 L325.00 400.00 " style="fill:none;stroke:#000000;stroke-width:1;" /><path d="M318.50 400.00 L331.50 400.00 M318.50 350.00 L331.50 350.00 M318.50 300.00 L331.50 300.00 M318.50 250.00 L331.50 250.00 M318.50 200.00 L331.50 200.00 M318.50 150.00 L331.50 150.00 M318.50 100.00 L331.50 100.00 M318.50 50.00 L331.50 50.00 M318.50 0.00 L331.50 0.00 " style="fill:none;stroke:#000000;stroke-width:1;" /><path d="M0.00 200.00 L650.00 200.00 " style="fill:none;stroke:#000000;stroke-width:1;" /><path d="M-25.00 193.50 L-25.00 206.50 M25.00 193.50 L25.00 206.50 M75.00 193.50 L75.00 206.50 M125.00 193.50 L125.00 206.50 M175.00 193.50 L175.00 206.50 M225.00 193.50 L225.00 206.50 M275.00 193.50 L275.00 206.50 M325.00 193.50 L325.00 206.50 M375.00 193.50 L375.00 206.50 M425.00 193.50 L425.00 206.50 M475.00 193.50 L475.00 206.50 M525.00 193.50 L525.00 206.50 M575.00 193.50 L575.00 206.50 M625.00 193.50 L625.00 206.50 " style="fill:none;stroke:#000000;stroke-width:1;" /><text x="333.125" y="352.5" text-anchor="start" style="font:10px Droid Sans,Trebuchet MS,Arial,Helvetica,sans-serif;stroke:none;fill:#000000">-3</text><text x="333.125" y="302.5" text-anchor="start" style="font:10px Droid Sans,Trebuchet MS,Arial,Helvetica,sans-serif;stroke:none;fill:#000000">-2</text><text x="333.125" y="252.5" text-anchor="start" style="font:10px Droid Sans,Trebuchet MS,Arial,Helvetica,sans-serif;stroke:none;fill:#000000">-1</text><text x="333.125" y="202.5" text-anchor="start" style="font:10px Droid Sans,Trebuchet MS,Arial,Helvetica,sans-serif;stroke:none;fill:#000000">0</text><text x="333.125" y="152.5" text-anchor="start" style="font:10px Droid Sans,Trebuchet MS,Arial,Helvetica,sans-serif;stroke:none;fill:#000000">1</text><text x="333.125" y="102.5" text-anchor="start" style="font:10px Droid Sans,Trebuchet MS,Arial,Helvetica,sans-serif;stroke:none;fill:#000000">2</text><text x="333.125" y="52.5" text-anchor="start" style="font:10px Droid Sans,Trebuchet MS,Arial,Helvetica,sans-serif;stroke:none;fill:#000000">3</text><text x="25" y="216.125" text-anchor="middle" style="font:10px Droid Sans,Trebuchet MS,Arial,Helvetica,sans-serif;stroke:none;fill:#000000">-6</text><text x="75" y="216.125" text-anchor="middle" style="font:10px Droid Sans,Trebuchet MS,Arial,Helvetica,sans-serif;stroke:none;fill:#000000">-5</text><text x="125" y="216.125" text-anchor="middle" style="font:10px Droid Sans,Trebuchet MS,Arial,Helvetica,sans-serif;stroke:none;fill:#000000">-4</text><text x="175" y="216.125" text-anchor="middle" style="font:10px Droid Sans,Trebuchet MS,Arial,Helvetica,sans-serif;stroke:none;fill:#000000">-3</text><text x="225" y="216.125" text-anchor="middle" style="font:10px Droid Sans,Trebuchet MS,Arial,Helvetica,sans-serif;stroke:none;fill:#000000">-2</text><text x="275" y="216.125" text-anchor="middle" style="font:10px Droid Sans,Trebuchet MS,Arial,Helvetica,sans-serif;stroke:none;fill:#000000">-1</text><text x="325" y="216.125" text-anchor="middle" style="font:10px Droid Sans,Trebuchet MS,Arial,Helvetica,sans-serif;stroke:none;fill:#000000">0</text><text x="374.99999999999994" y="216.125" text-anchor="middle" style="font:10px Droid Sans,Trebuchet MS,Arial,Helvetica,sans-serif;stroke:none;fill:#000000">1</text><text x="425" y="216.125" text-anchor="middle" style="font:10px Droid Sans,Trebuchet MS,Arial,Helvetica,sans-serif;stroke:none;fill:#000000">2</text><text x="475" y="216.125" text-anchor="middle" style="font:10px Droid Sans,Trebuchet MS,Arial,Helvetica,sans-serif;stroke:none;fill:#000000">3</text><text x="525" y="216.125" text-anchor="middle" style="font:10px Droid Sans,Trebuchet MS,Arial,Helvetica,sans-serif;stroke:none;fill:#000000">4</text><text x="575" y="216.125" text-anchor="middle" style="font:10px Droid Sans,Trebuchet MS,Arial,Helvetica,sans-serif;stroke:none;fill:#000000">5</text><text x="625" y="216.125" text-anchor="middle" style="font:10px Droid Sans,Trebuchet MS,Arial,Helvetica,sans-serif;stroke:none;fill:#000000">6</text><path d="M-10.00 200.00 L-0.25 211.28 L0.75 210.23 L1.71 209.24 L2.67 208.24 L3.64 207.25 L4.62 206.26 L5.60 205.26 L6.59 204.27 L7.58 203.27 L8.57 202.27 L9.57 201.27 L10.57 200.27 L11.57 199.27 L12.57 198.27 L13.57 197.27 L14.56 196.27 L15.56 195.27 L16.55 194.26 L17.54 193.26 L18.53 192.25 L19.51 191.25 L20.48 190.24 L21.45 189.23 L22.40 188.23 L23.36 187.22 L24.30 186.21 L25.23 185.20 L26.16 184.18 L27.07 183.17 L27.98 182.16 L28.87 181.15 L29.75 180.13 L30.62 179.12 L31.48 178.11 L32.32 177.09 L33.16 176.08 L33.98 175.06 L34.78 174.04 L35.58 173.03 L36.36 172.01 L37.13 170.99 L37.88 169.97 L38.62 168.96 L39.35 167.94 L40.07 166.92 L40.77 165.90 L41.46 164.88 L42.13 163.86 L42.80 162.84 L43.45 161.82 L44.08 160.80 L44.71 159.78 L45.32 158.76 L45.92 157.74 L46.51 156.72 L47.09 155.70 L47.66 154.68 L48.21 153.66 L48.76 152.64 L49.29 151.62 L49.81 150.60 L50.32 149.58 L50.82 148.56 L51.31 147.54 L51.79 146.52 L52.26 145.50 L52.73 144.47 L53.18 143.45 L53.62 142.43 L54.06 141.41 L54.48 140.39 L54.90 139.37 L55.31 138.35 L55.71 137.33 L56.10 136.31 L56.49 135.29 L56.86 134.27 L57.23 133.25 L57.60 132.23 L57.95 131.21 L58.30 130.19 L58.65 129.17 L58.98 128.15 L59.31 127.14 L59.63 126.12 L59.95 125.10 L60.26 124.08 L60.57 123.06 L60.87 122.04 L61.16 121.02 L61.45 120.00 L61.73 118.98 L62.01 117.97 L62.28 116.95 L62.55 115.93 L62.82 114.91 L63.08 113.89 L63.33 112.88 L63.58 111.86 L63.83 110.84 L64.07 109.82 L64.30 108.81 L64.54 107.79 L64.77 106.77 L64.99 105.75 L65.21 104.74 L65.43 103.72 L65.65 102.70 L65.86 101.69 L66.06 100.67 L66.27 99.65 L66.47 98.64 L66.67 97.62 L66.86 96.60 L67.05 95.59 L67.24 94.57 L67.42 93.56 L67.61 92.54 L67.78 91.53 L67.96 90.51 L68.14 89.49 L68.31 88.48 L68.48 87.46 L68.64 86.45 L68.81 85.43 L68.97 84.42 L69.13 83.40 L69.28 82.39 L69.44 81.37 L69.59 80.36 L69.74 79.34 L69.89 78.33 L70.03 77.32 L70.17 76.30 L70.32 75.29 L70.45 74.27 L70.59 73.26 L70.73 72.25 L70.86 71.23 L70.99 70.22 L71.12 69.20 L71.25 68.19 L71.38 67.18 L71.50 66.16 L71.63 65.15 L71.75 64.14 L71.87 63.12 L71.99 62.11 L72.10 61.10 L72.22 60.08 L72.33 59.07 L72.45 58.06 L72.56 57.05 L72.67 56.03 L72.78 55.02 L72.88 54.01 L72.99 53.00 L73.09 51.98 L73.20 50.97 L73.30 49.96 L73.40 48.95 L73.50 47.93 L73.60 46.92 L73.69 45.91 L73.79 44.90 L73.88 43.89 L73.98 42.87 L74.07 41.86 L74.16 40.85 L74.25 39.84 L74.34 38.83 L74.43 37.82 L74.52 36.80 L74.60 35.79 L74.69 34.78 L74.77 33.77 L74.85 32.76 L74.94 31.75 L75.02 30.74 L75.10 29.73 L75.18 28.72 L75.26 27.70 L75.34 26.69 L75.41 25.68 L75.49 24.67 L75.57 23.66 L75.64 22.65 L75.71 21.64 L75.79 20.63 L75.86 19.62 L75.93 18.61 L76.00 17.60 L76.07 16.59 L76.14 15.58 L76.21 14.57 L76.28 13.56 L76.35 12.55 L76.41 11.54 L76.48 10.53 L76.55 9.52 L76.61 8.51 L76.67 7.50 L76.74 6.49 L76.80 5.48 L76.86 4.47 L76.92 3.46 L76.99 2.45 L77.05 1.44 L77.11 0.43 L77.17 -0.58 M101.63 400.01 L101.63 400.00 L101.69 399.00 L101.75 398.01 L101.81 397.02 L101.87 396.03 L101.93 395.04 L101.99 394.05 L102.05 393.06 L102.11 392.07 L102.18 391.08 L102.24 390.09 L102.31 389.10 L102.37 388.11 L102.44 387.12 L102.50 386.13 L102.57 385.14 L102.64 384.14 L102.71 383.15 L102.77 382.16 L102.84 381.17 L102.91 380.19 L102.99 379.20 L103.06 378.21 L103.13 377.22 L103.20 376.23 L103.28 375.24 L103.35 374.25 L103.43 373.26 L103.50 372.27 L103.58 371.28 L103.66 370.29 L103.74 369.30 L103.82 368.31 L103.90 367.32 L103.98 366.33 L104.06 365.34 L104.15 364.35 L104.23 363.36 L104.32 362.38 L104.40 361.39 L104.49 360.40 L104.58 359.41 L104.67 358.42 L104.76 357.43 L104.85 356.44 L104.94 355.45 L105.03 354.47 L105.13 353.48 L105.22 352.49 L105.32 351.50 L105.42 350.51 L105.52 349.52 L105.62 348.54 L105.72 347.55 L105.82 346.56 L105.92 345.57 L106.03 344.58 L106.13 343.60 L106.24 342.61 L106.35 341.62 L106.46 340.63 L106.57 339.64 L106.68 338.66 L106.80 337.67 L106.92 336.68 L107.03 335.69 L107.15 334.71 L107.27 333.72 L107.39 332.73 L107.52 331.75 L107.64 330.76 L107.77 329.77 L107.90 328.79 L108.03 327.80 L108.16 326.81 L108.29 325.83 L108.43 324.84 L108.57 323.85 L108.70 322.87 L108.85 321.88 L108.99 320.89 L109.13 319.91 L109.28 318.92 L109.43 317.94 L109.58 316.95 L109.73 315.96 L109.89 314.98 L110.05 313.99 L110.21 313.01 L110.37 312.02 L110.54 311.04 L110.70 310.05 L110.87 309.06 L111.05 308.08 L111.22 307.09 L111.40 306.11 L111.58 305.12 L111.76 304.14 L111.95 303.15 L112.14 302.17 L112.33 301.19 L112.52 300.20 L112.72 299.22 L112.92 298.23 L113.13 297.25 L113.33 296.26 L113.54 295.28 L113.76 294.30 L113.98 293.31 L114.20 292.33 L114.42 291.35 L114.65 290.36 L114.88 289.38 L115.12 288.39 L115.36 287.41 L115.60 286.43 L115.85 285.45 L116.11 284.46 L116.36 283.48 L116.62 282.50 L116.89 281.51 L117.16 280.53 L117.44 279.55 L117.72 278.57 L118.00 277.58 L118.30 276.60 L118.59 275.62 L118.89 274.64 L119.20 273.66 L119.51 272.67 L119.83 271.69 L120.15 270.71 L120.49 269.73 L120.82 268.75 L121.16 267.76 L121.51 266.78 L121.87 265.80 L122.23 264.82 L122.60 263.84 L122.98 262.86 L123.36 261.88 L123.75 260.90 L124.15 259.92 L124.56 258.93 L124.97 257.95 L125.40 256.97 L125.83 255.99 L126.27 255.01 L126.71 254.03 L127.17 253.05 L127.64 252.07 L128.11 251.09 L128.60 250.11 L129.09 249.13 L129.59 248.15 L130.11 247.17 L130.63 246.19 L131.17 245.21 L131.71 244.22 L132.27 243.24 L132.83 242.26 L133.41 241.28 L134.00 240.30 L134.60 239.32 L135.21 238.34 L135.84 237.36 L136.47 236.38 L137.12 235.40 L137.78 234.41 L138.45 233.43 L139.14 232.45 L139.83 231.47 L140.54 230.49 L141.27 229.50 L142.00 228.52 L142.75 227.54 L143.51 226.55 L144.28 225.57 L145.07 224.58 L145.87 223.60 L146.68 222.62 L147.51 221.63 L148.34 220.64 L149.19 219.66 L150.05 218.67 L150.92 217.68 L151.81 216.70 L152.70 215.71 L153.61 214.72 L154.52 213.73 L155.45 212.74 L156.38 211.75 L157.32 210.76 L158.28 209.77 L159.23 208.77 L160.20 207.78 L161.17 206.79 L162.15 205.79 L163.14 204.80 L164.13 203.80 L165.12 202.80 L166.12 201.81 L167.11 200.81 L168.11 199.81 L169.11 198.81 L170.11 197.81 L171.11 196.80 L172.11 195.80 L173.10 194.80 L174.09 193.79 L175.08 192.79 L176.06 191.78 L177.04 190.78 L178.01 189.77 L178.97 188.76 L179.93 187.75 L180.88 186.74 L181.82 185.73 L182.75 184.72 L183.67 183.71 L184.58 182.70 L185.47 181.69 L186.36 180.67 L187.24 179.66 L188.10 178.65 L188.95 177.63 L189.79 176.62 L190.62 175.60 L191.43 174.58 L192.23 173.57 L193.02 172.55 L193.80 171.53 L194.56 170.52 L195.31 169.50 L196.04 168.48 L196.77 167.46 L197.48 166.44 L198.17 165.42 L198.85 164.40 L199.52 163.39 L200.18 162.37 L200.83 161.35 L201.46 160.33 L202.08 159.31 L202.69 158.29 L203.28 157.27 L203.86 156.24 L204.44 155.22 L205.00 154.20 L205.55 153.18 L206.09 152.16 L206.61 151.14 L207.13 150.12 L207.64 149.10 L208.13 148.08 L208.62 147.06 L209.09 146.04 L209.56 145.02 L210.02 144.00 L210.47 142.98 L210.91 141.96 L211.34 140.94 L211.76 139.92 L212.17 138.90 L212.58 137.88 L212.97 136.86 L213.36 135.84 L213.74 134.82 L214.12 133.80 L214.48 132.78 L214.84 131.76 L215.20 130.74 L215.54 129.72 L215.88 128.70 L216.22 127.68 L216.54 126.66 L216.86 125.64 L217.18 124.62 L217.48 123.60 L217.79 122.58 L218.08 121.56 L218.38 120.55 L218.66 119.53 L218.94 118.51 L219.22 117.49 L219.49 116.47 L219.76 115.45 L220.02 114.44 L220.28 113.42 L220.53 112.40 L220.78 111.38 L221.02 110.37 L221.26 109.35 L221.49 108.33 L221.72 107.31 L221.95 106.30 L222.18 105.28 L222.40 104.26 L222.61 103.25 L222.82 102.23 L223.03 101.21 L223.24 100.20 L223.44 99.18 L223.64 98.16 L223.84 97.15 L224.03 96.13 L224.22 95.11 L224.40 94.10 L224.59 93.08 L224.77 92.07 L224.95 91.05 L225.12 90.04 L225.30 89.02 L225.47 88.00 L225.63 86.99 L225.80 85.97 L225.96 84.96 L226.12 83.94 L226.28 82.93 L226.43 81.91 L226.59 80.90 L226.74 79.89 L226.89 78.87 L227.03 77.86 L227.18 76.84 L227.32 75.83 L227.46 74.81 L227.60 73.80 L227.74 72.79 L227.87 71.77 L228.00 70.76 L228.13 69.74 L228.26 68.73 L228.39 67.72 L228.52 66.70 L228.64 65.69 L228.76 64.68 L228.88 63.66 L229.00 62.65 L229.12 61.64 L229.24 60.62 L229.35 59.61 L229.47 58.60 L229.58 57.59 L229.69 56.57 L229.80 55.56 L229.91 54.55 L230.01 53.54 L230.12 52.52 L230.22 51.51 L230.32 50.50 L230.42 49.49 L230.52 48.47 L230.62 47.46 L230.72 46.45 L230.82 45.44 L230.91 44.43 L231.01 43.41 L231.10 42.40 L231.19 41.39 L231.28 40.38 L231.37 39.37 L231.46 38.36 L231.55 37.34 L231.64 36.33 L231.72 35.32 L231.81 34.31 L231.89 33.30 L231.97 32.29 L232.06 31.28 L232.14 30.27 L232.22 29.25 L232.30 28.24 L232.37 27.23 L232.45 26.22 L232.53 25.21 L232.61 24.20 L232.68 23.19 L232.76 22.18 L232.83 21.17 L232.90 20.16 L232.97 19.15 L233.05 18.14 L233.12 17.13 L233.19 16.12 L233.25 15.11 L233.32 14.10 L233.39 13.08 L233.46 12.07 L233.52 11.06 L233.59 10.05 L233.66 9.04 L233.72 8.03 L233.78 7.02 L233.85 6.01 L233.91 5.01 L233.97 4.00 L234.03 2.99 L234.09 1.98 L234.15 0.97 L234.21 -0.04 M258.71 400.01 L258.71 399.99 L258.77 398.99 L258.83 398.00 L258.89 397.01 L258.95 396.02 L259.01 395.03 L259.07 394.04 L259.13 393.05 L259.19 392.06 L259.26 391.07 L259.32 390.08 L259.39 389.09 L259.45 388.10 L259.52 387.11 L259.58 386.12 L259.65 385.13 L259.72 384.14 L259.79 383.15 L259.85 382.16 L259.92 381.17 L259.99 380.18 L260.07 379.19 L260.14 378.20 L260.21 377.21 L260.28 376.22 L260.36 375.23 L260.43 374.24 L260.51 373.25 L260.58 372.26 L260.66 371.27 L260.74 370.28 L260.82 369.29 L260.90 368.30 L260.98 367.31 L261.06 366.32 L261.14 365.34 L261.23 364.35 L261.31 363.36 L261.40 362.37 L261.48 361.38 L261.57 360.39 L261.66 359.40 L261.75 358.41 L261.84 357.42 L261.93 356.44 L262.02 355.45 L262.11 354.46 L262.21 353.47 L262.30 352.48 L262.40 351.49 L262.50 350.50 L262.60 349.52 L262.70 348.53 L262.80 347.54 L262.90 346.55 L263.00 345.56 L263.11 344.58 L263.21 343.59 L263.32 342.60 L263.43 341.61 L263.54 340.62 L263.65 339.64 L263.77 338.65 L263.88 337.66 L264.00 336.67 L264.11 335.69 L264.23 334.70 L264.35 333.71 L264.47 332.73 L264.60 331.74 L264.72 330.75 L264.85 329.76 L264.98 328.78 L265.11 327.79 L265.24 326.80 L265.37 325.82 L265.51 324.83 L265.65 323.84 L265.79 322.86 L265.93 321.87 L266.07 320.89 L266.21 319.90 L266.36 318.91 L266.51 317.93 L266.66 316.94 L266.82 315.96 L266.97 314.97 L267.13 313.98 L267.29 313.00 L267.45 312.01 L267.62 311.03 L267.78 310.04 L267.95 309.06 L268.13 308.07 L268.30 307.09 L268.48 306.10 L268.66 305.12 L268.84 304.13 L269.03 303.15 L269.22 302.16 L269.41 301.18 L269.60 300.19 L269.80 299.21 L270.00 298.23 L270.21 297.24 L270.41 296.26 L270.63 295.27 L270.84 294.29 L271.06 293.31 L271.28 292.32 L271.50 291.34 L271.73 290.35 L271.96 289.37 L272.20 288.39 L272.44 287.40 L272.69 286.42 L272.93 285.44 L273.19 284.45 L273.44 283.47 L273.71 282.49 L273.97 281.51 L274.24 280.52 L274.52 279.54 L274.80 278.56 L275.09 277.58 L275.38 276.59 L275.67 275.61 L275.97 274.63 L276.28 273.65 L276.59 272.67 L276.91 271.68 L277.24 270.70 L277.57 269.72 L277.90 268.74 L278.25 267.76 L278.60 266.78 L278.95 265.79 L279.31 264.81 L279.68 263.83 L280.06 262.85 L280.44 261.87 L280.84 260.89 L281.23 259.91 L281.64 258.93 L282.06 257.95 L282.48 256.97 L282.91 255.98 L283.35 255.00 L283.80 254.02 L284.25 253.04 L284.72 252.06 L285.20 251.08 L285.68 250.10 L286.17 249.12 L286.68 248.14 L287.19 247.16 L287.72 246.18 L288.25 245.20 L288.80 244.22 L289.35 243.24 L289.92 242.26 L290.50 241.28 L291.08 240.29 L291.68 239.31 L292.30 238.33 L292.92 237.35 L293.56 236.37 L294.20 235.39 L294.86 234.41 L295.54 233.42 L296.22 232.44 L296.92 231.46 L297.63 230.48 L298.35 229.50 L299.09 228.51 L299.84 227.53 L300.60 226.55 L301.37 225.56 L302.16 224.58 L302.96 223.59 L303.77 222.61 L304.59 221.62 L305.43 220.64 L306.28 219.65 L307.14 218.66 L308.01 217.68 L308.89 216.69 L309.79 215.70 L310.69 214.71 L311.61 213.72 L312.53 212.73 L313.47 211.74 L314.41 210.75 L315.36 209.76 L316.32 208.77 L317.29 207.77 L318.26 206.78 L319.24 205.78 L320.23 204.79 L321.21 203.79 L322.21 202.80 L323.20 201.80 L324.20 200.80 L325.20 199.80 L326.20 198.80 L327.20 197.80 L328.20 196.80 L329.20 195.79 L330.19 194.79 L331.18 193.79 L332.17 192.78 L333.15 191.78 L334.13 190.77 L335.10 189.76 L336.06 188.76 L337.02 187.75 L337.96 186.74 L338.90 185.73 L339.83 184.72 L340.75 183.70 L341.66 182.69 L342.56 181.68 L343.45 180.67 L344.32 179.65 L345.19 178.64 L346.04 177.62 L346.88 176.61 L347.71 175.59 L348.52 174.58 L349.32 173.56 L350.11 172.54 L350.88 171.53 L351.65 170.51 L352.39 169.49 L353.13 168.47 L353.85 167.45 L354.56 166.44 L355.26 165.42 L355.94 164.40 L356.61 163.38 L357.27 162.36 L357.91 161.34 L358.54 160.32 L359.16 159.30 L359.77 158.28 L360.37 157.26 L360.95 156.24 L361.52 155.22 L362.08 154.20 L362.63 153.18 L363.17 152.16 L363.70 151.13 L364.21 150.11 L364.72 149.09 L365.22 148.07 L365.70 147.05 L366.18 146.03 L366.64 145.01 L367.10 143.99 L367.55 142.97 L367.99 141.95 L368.42 140.93 L368.84 139.91 L369.25 138.89 L369.66 137.87 L370.06 136.85 L370.44 135.83 L370.83 134.81 L371.20 133.79 L371.57 132.77 L371.93 131.75 L372.28 130.73 L372.63 129.71 L372.96 128.69 L373.30 127.67 L373.62 126.65 L373.94 125.63 L374.26 124.61 L374.57 123.59 L374.87 122.58 L375.17 121.56 L375.46 120.54 L375.74 119.52 L376.03 118.50 L376.30 117.48 L376.57 116.46 L376.84 115.45 L377.10 114.43 L377.36 113.41 L377.61 112.39 L377.86 111.38 L378.10 110.36 L378.34 109.34 L378.57 108.32 L378.81 107.31 L379.03 106.29 L379.26 105.27 L379.48 104.25 L379.69 103.24 L379.91 102.22 L380.11 101.20 L380.32 100.19 L380.52 99.17 L380.72 98.15 L380.92 97.14 L381.11 96.12 L381.30 95.11 L381.49 94.09 L381.67 93.07 L381.85 92.06 L382.03 91.04 L382.20 90.03 L382.38 89.01 L382.55 88.00 L382.71 86.98 L382.88 85.97 L383.04 84.95 L383.20 83.94 L383.36 82.92 L383.51 81.91 L383.67 80.89 L383.82 79.88 L383.97 78.86 L384.11 77.85 L384.26 76.83 L384.40 75.82 L384.54 74.81 L384.68 73.79 L384.82 72.78 L384.95 71.76 L385.08 70.75 L385.21 69.74 L385.34 68.72 L385.47 67.71 L385.60 66.70 L385.72 65.68 L385.84 64.67 L385.97 63.66 L386.08 62.64 L386.20 61.63 L386.32 60.62 L386.43 59.60 L386.55 58.59 L386.66 57.58 L386.77 56.57 L386.88 55.55 L386.99 54.54 L387.09 53.53 L387.20 52.52 L387.30 51.50 L387.40 50.49 L387.50 49.48 L387.60 48.47 L387.70 47.45 L387.80 46.44 L387.90 45.43 L387.99 44.42 L388.09 43.41 L388.18 42.39 L388.27 41.38 L388.36 40.37 L388.45 39.36 L388.54 38.35 L388.63 37.34 L388.72 36.32 L388.80 35.31 L388.89 34.30 L388.97 33.29 L389.05 32.28 L389.14 31.27 L389.22 30.26 L389.30 29.25 L389.38 28.24 L389.45 27.22 L389.53 26.21 L389.61 25.20 L389.69 24.19 L389.76 23.18 L389.84 22.17 L389.91 21.16 L389.98 20.15 L390.05 19.14 L390.13 18.13 L390.20 17.12 L390.27 16.11 L390.33 15.10 L390.40 14.09 L390.47 13.08 L390.54 12.07 L390.60 11.06 L390.67 10.05 L390.74 9.04 L390.80 8.03 L390.86 7.02 L390.93 6.01 L390.99 5.00 L391.05 3.99 L391.11 2.98 L391.17 1.97 L391.23 0.96 L391.29 -0.05 M415.79 400.01 L415.79 400.00 L415.85 399.00 L415.91 398.01 L415.97 397.02 L416.03 396.03 L416.09 395.04 L416.15 394.05 L416.21 393.06 L416.27 392.07 L416.34 391.08 L416.40 390.09 L416.46 389.10 L416.53 388.11 L416.60 387.12 L416.66 386.13 L416.73 385.14 L416.80 384.15 L416.86 383.16 L416.93 382.17 L417.00 381.18 L417.07 380.19 L417.14 379.20 L417.22 378.21 L417.29 377.22 L417.36 376.23 L417.44 375.24 L417.51 374.25 L417.59 373.26 L417.66 372.27 L417.74 371.28 L417.82 370.29 L417.90 369.30 L417.98 368.31 L418.06 367.32 L418.14 366.33 L418.22 365.34 L418.31 364.36 L418.39 363.37 L418.48 362.38 L418.56 361.39 L418.65 360.40 L418.74 359.41 L418.83 358.42 L418.92 357.43 L419.01 356.44 L419.10 355.46 L419.19 354.47 L419.29 353.48 L419.38 352.49 L419.48 351.50 L419.58 350.51 L419.67 349.53 L419.77 348.54 L419.88 347.55 L419.98 346.56 L420.08 345.57 L420.19 344.59 L420.29 343.60 L420.40 342.61 L420.51 341.62 L420.62 340.63 L420.73 339.65 L420.84 338.66 L420.96 337.67 L421.07 336.68 L421.19 335.70 L421.31 334.71 L421.43 333.72 L421.55 332.74 L421.68 331.75 L421.80 330.76 L421.93 329.77 L422.06 328.79 L422.19 327.80 L422.32 326.81 L422.45 325.83 L422.59 324.84 L422.72 323.85 L422.86 322.87 L423.00 321.88 L423.15 320.90 L423.29 319.91 L423.44 318.92 L423.59 317.94 L423.74 316.95 L423.89 315.97 L424.05 314.98 L424.21 313.99 L424.37 313.01 L424.53 312.02 L424.69 311.04 L424.86 310.05 L425.03 309.07 L425.20 308.08 L425.38 307.10 L425.56 306.11 L425.74 305.13 L425.92 304.14 L426.11 303.16 L426.30 302.17 L426.49 301.19 L426.68 300.20 L426.88 299.22 L427.08 298.23 L427.28 297.25 L427.49 296.27 L427.70 295.28 L427.92 294.30 L428.13 293.31 L428.36 292.33 L428.58 291.35 L428.81 290.36 L429.04 289.38 L429.28 288.40 L429.52 287.41 L429.76 286.43 L430.01 285.45 L430.26 284.46 L430.52 283.48 L430.78 282.50 L431.05 281.52 L431.32 280.53 L431.60 279.55 L431.88 278.57 L432.16 277.59 L432.45 276.60 L432.75 275.62 L433.05 274.64 L433.36 273.66 L433.67 272.68 L433.99 271.69 L434.31 270.71 L434.64 269.73 L434.98 268.75 L435.32 267.77 L435.67 266.79 L436.03 265.80 L436.39 264.82 L436.76 263.84 L437.14 262.86 L437.52 261.88 L437.91 260.90 L438.31 259.92 L438.72 258.94 L439.13 257.96 L439.55 256.97 L439.99 255.99 L440.42 255.01 L440.87 254.03 L441.33 253.05 L441.80 252.07 L442.27 251.09 L442.75 250.11 L443.25 249.13 L443.75 248.15 L444.27 247.17 L444.79 246.19 L445.32 245.21 L445.87 244.23 L446.43 243.25 L446.99 242.27 L447.57 241.28 L448.16 240.30 L448.76 239.32 L449.37 238.34 L449.99 237.36 L450.63 236.38 L451.28 235.40 L451.94 234.42 L452.61 233.43 L453.29 232.45 L453.99 231.47 L454.70 230.49 L455.42 229.50 L456.16 228.52 L456.91 227.54 L457.67 226.55 L458.44 225.57 L459.23 224.59 L460.03 223.60 L460.84 222.62 L461.66 221.63 L462.50 220.65 L463.35 219.66 L464.21 218.67 L465.08 217.69 L465.96 216.70 L466.86 215.71 L467.76 214.72 L468.68 213.73 L469.60 212.74 L470.54 211.75 L471.48 210.76 L472.43 209.77 L473.39 208.78 L474.36 207.78 L475.33 206.79 L476.31 205.79 L477.30 204.80 L478.28 203.80 L479.28 202.81 L480.27 201.81 L481.27 200.81 L482.27 199.81 L483.27 198.81 L484.27 197.81 L485.27 196.81 L486.27 195.80 L487.26 194.80 L488.25 193.80 L489.24 192.79 L490.22 191.79 L491.20 190.78 L492.17 189.77 L493.13 188.76 L494.09 187.76 L495.04 186.75 L495.97 185.74 L496.90 184.73 L497.82 183.71 L498.73 182.70 L499.63 181.69 L500.52 180.68 L501.39 179.66 L502.26 178.65 L503.11 177.63 L503.95 176.62 L504.78 175.60 L505.59 174.59 L506.39 173.57 L507.18 172.55 L507.96 171.54 L508.72 170.52 L509.47 169.50 L510.20 168.48 L510.92 167.46 L511.63 166.44 L512.33 165.43 L513.01 164.41 L513.68 163.39 L514.34 162.37 L514.98 161.35 L515.62 160.33 L516.24 159.31 L516.84 158.29 L517.44 157.27 L518.02 156.25 L518.60 155.23 L519.16 154.21 L519.71 153.19 L520.24 152.16 L520.77 151.14 L521.29 150.12 L521.79 149.10 L522.29 148.08 L522.78 147.06 L523.25 146.04 L523.72 145.02 L524.18 144.00 L524.62 142.98 L525.06 141.96 L525.49 140.94 L525.92 139.92 L526.33 138.90 L526.73 137.88 L527.13 136.86 L527.52 135.84 L527.90 134.82 L528.28 133.80 L528.64 132.78 L529.00 131.76 L529.36 130.74 L529.70 129.72 L530.04 128.70 L530.37 127.68 L530.70 126.66 L531.02 125.64 L531.33 124.62 L531.64 123.60 L531.95 122.59 L532.24 121.57 L532.53 120.55 L532.82 119.53 L533.10 118.51 L533.38 117.49 L533.65 116.47 L533.92 115.46 L534.18 114.44 L534.43 113.42 L534.69 112.40 L534.93 111.38 L535.18 110.37 L535.42 109.35 L535.65 108.33 L535.88 107.32 L536.11 106.30 L536.33 105.28 L536.55 104.26 L536.77 103.25 L536.98 102.23 L537.19 101.21 L537.40 100.20 L537.60 99.18 L537.80 98.16 L537.99 97.15 L538.19 96.13 L538.38 95.12 L538.56 94.10 L538.75 93.08 L538.93 92.07 L539.11 91.05 L539.28 90.04 L539.45 89.02 L539.62 88.01 L539.79 86.99 L539.96 85.98 L540.12 84.96 L540.28 83.95 L540.44 82.93 L540.59 81.92 L540.75 80.90 L540.90 79.89 L541.05 78.87 L541.19 77.86 L541.34 76.84 L541.48 75.83 L541.62 74.82 L541.76 73.80 L541.89 72.79 L542.03 71.77 L542.16 70.76 L542.29 69.75 L542.42 68.73 L542.55 67.72 L542.68 66.71 L542.80 65.69 L542.92 64.68 L543.04 63.67 L543.16 62.65 L543.28 61.64 L543.40 60.63 L543.51 59.61 L543.63 58.60 L543.74 57.59 L543.85 56.57 L543.96 55.56 L544.06 54.55 L544.17 53.54 L544.28 52.52 L544.38 51.51 L544.48 50.50 L544.58 49.49 L544.68 48.48 L544.78 47.46 L544.88 46.45 L544.98 45.44 L545.07 44.43 L545.17 43.42 L545.26 42.40 L545.35 41.39 L545.44 40.38 L545.53 39.37 L545.62 38.36 L545.71 37.35 L545.79 36.33 L545.88 35.32 L545.97 34.31 L546.05 33.30 L546.13 32.29 L546.21 31.28 L546.30 30.27 L546.38 29.26 L546.46 28.24 L546.53 27.23 L546.61 26.22 L546.69 25.21 L546.76 24.20 L546.84 23.19 L546.91 22.18 L546.99 21.17 L547.06 20.16 L547.13 19.15 L547.20 18.14 L547.27 17.13 L547.34 16.12 L547.41 15.11 L547.48 14.10 L547.55 13.09 L547.62 12.08 L547.68 11.07 L547.75 10.06 L547.81 9.05 L547.88 8.04 L547.94 7.03 L548.01 6.02 L548.07 5.01 L548.13 4.00 L548.19 2.99 L548.25 1.98 L548.31 0.97 L548.37 -0.04 M572.87 400.01 L572.87 399.99 L572.93 399.00 L572.99 398.00 L573.05 397.01 L573.11 396.02 L573.17 395.03 L573.23 394.04 L573.29 393.05 L573.35 392.06 L573.42 391.07 L573.48 390.08 L573.54 389.09 L573.61 388.10 L573.68 387.11 L573.74 386.12 L573.81 385.13 L573.88 384.14 L573.94 383.15 L574.01 382.16 L574.08 381.17 L574.15 380.18 L574.23 379.19 L574.30 378.20 L574.37 377.21 L574.44 376.22 L574.52 375.23 L574.59 374.24 L574.67 373.25 L574.74 372.26 L574.82 371.27 L574.90 370.28 L574.98 369.29 L575.06 368.30 L575.14 367.32 L575.22 366.33 L575.30 365.34 L575.39 364.35 L575.47 363.36 L575.56 362.37 L575.64 361.38 L575.73 360.39 L575.82 359.40 L575.91 358.41 L576.00 357.43 L576.09 356.44 L576.18 355.45 L576.27 354.46 L576.37 353.47 L576.46 352.48 L576.56 351.49 L576.66 350.51 L576.76 349.52 L576.86 348.53 L576.96 347.54 L577.06 346.55 L577.16 345.57 L577.27 344.58 L577.37 343.59 L577.48 342.60 L577.59 341.61 L577.70 340.63 L577.81 339.64 L577.92 338.65 L578.04 337.66 L578.15 336.68 L578.27 335.69 L578.39 334.70 L578.51 333.71 L578.63 332.73 L578.76 331.74 L578.88 330.75 L579.01 329.77 L579.14 328.78 L579.27 327.79 L579.40 326.81 L579.53 325.82 L579.67 324.83 L579.81 323.85 L579.94 322.86 L580.09 321.87 L580.23 320.89 L580.37 319.90 L580.52 318.92 L580.67 317.93 L580.82 316.94 L580.97 315.96 L581.13 314.97 L581.29 313.99 L581.45 313.00 L581.61 312.02 L581.78 311.03 L581.94 310.04 L582.11 309.06 L582.29 308.07 L582.46 307.09 L582.64 306.10 L582.82 305.12 L583.00 304.13 L583.19 303.15 L583.38 302.16 L583.57 301.18 L583.76 300.20 L583.96 299.21 L584.16 298.23 L584.37 297.24 L584.57 296.26 L584.78 295.27 L585.00 294.29 L585.22 293.31 L585.44 292.32 L585.66 291.34 L585.89 290.36 L586.12 289.37 L586.36 288.39 L586.60 287.41 L586.84 286.42 L587.09 285.44 L587.35 284.46 L587.60 283.47 L587.87 282.49 L588.13 281.51 L588.40 280.53 L588.68 279.54 L588.96 278.56 L589.24 277.58 L589.54 276.60 L589.83 275.61 L590.13 274.63 L590.44 273.65 L590.75 272.67 L591.07 271.69 L591.40 270.70 L591.73 269.72 L592.06 268.74 L592.41 267.76 L592.75 266.78 L593.11 265.80 L593.47 264.82 L593.84 263.83 L594.22 262.85 L594.60 261.87 L594.99 260.89 L595.39 259.91 L595.80 258.93 L596.21 257.95 L596.64 256.97 L597.07 255.99 L597.51 255.01 L597.96 254.03 L598.41 253.04 L598.88 252.06 L599.35 251.08 L599.84 250.10 L600.33 249.12 L600.84 248.14 L601.35 247.16 L601.87 246.18 L602.41 245.20 L602.95 244.22 L603.51 243.24 L604.08 242.26 L604.65 241.28 L605.24 240.30 L605.84 239.31 L606.45 238.33 L607.08 237.35 L607.71 236.37 L608.36 235.39 L609.02 234.41 L609.69 233.43 L610.38 232.44 L611.08 231.46 L611.79 230.48 L612.51 229.50 L613.25 228.51 L613.99 227.53 L614.75 226.55 L615.53 225.56 L616.31 224.58 L617.11 223.59 L617.93 222.61 L618.75 221.62 L619.59 220.64 L620.43 219.65 L621.29 218.67 L622.17 217.68 L623.05 216.69 L623.94 215.70 L624.85 214.71 L625.76 213.72 L626.69 212.73 L627.62 211.74 L628.57 210.75 L629.52 209.76 L630.48 208.77 L631.45 207.78 L632.42 206.78 L633.40 205.79 L634.38 204.79 L635.37 203.79 L636.36 202.80 L637.36 201.80 L638.36 200.80 L639.36 199.80 L640.36 198.80 L641.36 197.80 L642.36 196.80 L643.35 195.80 L644.35 194.79 L645.34 193.79 L646.33 192.78 L647.31 191.78 L648.28 190.77 L649.25 189.76 " style="fill:none;stroke:#000000;stroke-width:1;" /></g></svg>