<?xml version="1.0" standalone="no"?><!DOCTYPE svg PUBLIC "-//W3C//DTD SVG 1.1//EN" "http://www.w3.org/Graphics/SVG/1.1/DTD/svg11.dtd"><svg xmlns="http://www.w3.org/2000/svg" viewBox="0 0 650 400" version="1.1"><clipPath id="box"><rect x="0" y="0" width="650" height="400" style="fill:none;stroke:none;" /></clipPath><g clip-path="url(#box)"><rect x="0.00" y="0.00" width="650.00" height="400.00" style="fill:#FFFFFF;stroke:none;" /><path d="M0.00 383.00 L650.00 383.00 M0.00 322.00 L650.00 322.00 M0.00 261.00 L650.00 261.00 M0.00 200.00 L650.00 200.00 M0.00 138.00 L650.00 138.00 M0.00 77.00 L650.00 77.00 M0.00 16.00 L650.00 16.00 M19.00 0.00 L19.00 400.00 M80.00 0.00 L80.00 400.00 M141.00 0.00 L141.00 400.00 M202.00 0.00 L202.00 400.00 M263.00 0.00 L263.00 400.00 M325.00 0.00 L325.00 400.00 M386.00 0.00 L386.00 400.00 M447.00 0.00 L447.00 400.00 M508.00 0.00 L508.00 400.00 M569.00 0.00 L569.00 400.00 M630.00 0.00 L630.00 400.00 " style="fill:none;stroke:#D0D0D0;stroke-width:1;" /><path d="M325.00 0.00 L325.00 400.00 " style="fill:none;stroke:#000000;stroke-width:1;" /><path d="M318.50 444.14 L331.50 444.14 M318.50 383.11 L331.50 383.11 M318.50 322.07 L331.50 322.07 M318.50 261.04 L331.50 261.04 M318.50 200.00 L331.50 200.00 M318.50 138.96 L331.50 138.96 M318.50 77.93 L331.50 77.93 M318.50 16.89 L331.50 16.89 " style="fill:none;stroke:#000000;stroke-width:1;" /><path d="M0.00 200.00 L650.00 200.00 " style="fill:none;stroke:#000000;stroke-width:1;" /><path d="M-41.21 193.50 L-41.21 206.50 M19.82 193.50 L19.82 206.50 M80.86 193.50 L80.86 206.50 M141.89 193.50 L141.89 206.50 M202.93 193.50 L202.93 206.50 M263.96 193.50 L263.96 206.50 M325.00 193.50 L325.00 206.50 M386.04 193.50 L386.04 206.50 M447.07 193.50 L447.07 206.50 M508.11 193.50 L508.11 206.50 M569.14 193.50 L569.14 206.50 M630.18 193.50 L630.18 206.50 " style="fill:none;stroke:#000000;stroke-width:1;" /><text x="333.125" y="385.60546874999994" text-anchor="start" style="font:10px Droid Sans,Trebuchet MS,Arial,Helvetica,sans-serif;stroke:none;fill:#000000">-1.5</text><text x="333.125" y="324.57031249999994" text-anchor="start" style="font:10px Droid Sans,Trebuchet MS,Arial,Helvetica,sans-serif;stroke:none;fill:#000000">-1</text><text x="333.125" y="263.53515624999994" text-anchor="start" style="font:10px Droid Sans,Trebuchet MS,Arial,Helvetica,sans-serif;stroke:none;fill:#000000">-0.5</text><text x="333.125" y="202.5" text-anchor="start" style="font:10px Droid Sans,Trebuchet MS,Arial,Helvetica,sans-serif;stroke:none;fill:#000000">0</text><text x="333.125" y="141.46484375" text-anchor="start" style="font:10px Droid Sans,Trebuchet MS,Arial,Helvetica,sans-serif;stroke:none;fill:#000000">0.5</text><text x="333.125" y="80.42968750000001" text-anchor="start" style="font:10px Droid Sans,Trebuchet MS,Arial,Helvetica,sans-serif;stroke:none;fill:#000000">1</text><text x="333.125" y="19.394531250000007" text-anchor="start" style="font:10px Droid Sans,Trebuchet MS,Arial,Helvetica,sans-serif;stroke:none;fill:#000000">1.5</text><text x="19.824218749999986" y="216.125" text-anchor="middle" style="font:10px Droid Sans,Trebuchet MS,Arial,Helvetica,sans-serif;stroke:none;fill:#000000">-2.5</text><text x="80.85937499999999" y="216.125" text-anchor="middle" style="font:10px Droid Sans,Trebuchet MS,Arial,Helvetica,sans-serif;stroke:none;fill:#000000">-2</text><text x="141.89453125" y="216.125" text-anchor="middle" style="font:10px Droid Sans,Trebuchet MS,Arial,Helvetica,sans-serif;stroke:none;fill:#000000">-1.5</text><text x="202.9296875" y="216.125" text-anchor="middle" style="font:10px Droid Sans,Trebuchet MS,Arial,Helvetica,sans-serif;stroke:none;fill:#000000">-1</text><text x="263.96484375" y="216.125" text-anchor="middle" style="font:10px Droid Sans,Trebuchet MS,Arial,Helvetica,sans-serif;stroke:none;fill:#000000">-0.5</text><text x="325" y="216.125" text-anchor="middle" style="font:10px Droid Sans,Trebuchet MS,Arial,Helvetica,sans-serif;stroke:none;fill:#000000">0</text><text x="386.03515625" y="216.125" text-anchor="middle" style="font:10px Droid Sans,Trebuchet MS,Arial,Helvetica,sans-serif;stroke:none;fill:#000000">0.5</text><text x="447.0703125" y="216.125" text-anchor="middle" style="font:10px Droid Sans,Trebuchet MS,Arial,Helvetica,sans-serif;stroke:none;fill:#000000">1</text><text x="508.10546875" y="216.125" text-anchor="middle" style="font:10px Droid Sans,Trebuchet MS,Arial,Helvetica,sans-serif;stroke:none;fill:#000000">1.5</text><text x="569.140625" y="216.125" text-anchor="middle" style="font:10px Droid Sans,Trebuchet MS,Arial,Helvetica,sans-serif;stroke:none;fill:#000000">2</text><text x="630.17578125" y="216.125" text-anchor="middle" style="font:10px Droid Sans,Trebuchet MS,Arial,Helvetica,sans-serif;stroke:none;fill:#000000">2.5</text><path d="M-10.00 200.00 L-0.25 347.92 L0.75 347.80 L2.75 347.55 L4.75 347.29 L6.75 347.04 L8.75 346.78 L10.75 346.52 L12.75 346.26 L14.75 345.99 L16.75 345.72 L18.75 345.45 L20.75 345.17 L22.75 344.89 L24.75 344.61 L26.75 344.32 L28.75 344.04 L30.75 343.74 L32.75 343.45 L34.75 343.15 L36.75 342.85 L38.75 342.54 L40.75 342.23 L42.75 341.92 L44.75 341.60 L46.75 341.28 L48.75 340.96 L50.75 340.63 L52.75 340.29 L54.75 339.96 L56.75 339.62 L58.75 339.27 L60.75 338.92 L62.75 338.57 L64.75 338.21 L66.75 337.85 L68.75 337.48 L70.75 337.11 L72.75 336.73 L74.75 336.35 L76.75 335.96 L78.75 335.57 L80.75 335.17 L82.75 334.77 L84.75 334.36 L86.75 333.95 L88.75 333.53 L90.75 333.11 L92.75 332.68 L94.75 332.24 L96.75 331.80 L98.75 331.35 L100.75 330.90 L102.75 330.44 L104.75 329.97 L106.75 329.50 L108.75 329.02 L110.75 328.53 L112.75 328.04 L114.75 327.53 L116.75 327.03 L118.75 326.51 L120.75 325.99 L122.75 325.46 L124.75 324.92 L126.75 324.38 L128.75 323.82 L130.75 323.26 L132.75 322.69 L134.75 322.11 L136.75 321.52 L138.75 320.93 L140.75 320.32 L142.75 319.71 L144.75 319.08 L146.75 318.45 L148.75 317.80 L150.75 317.15 L152.75 316.49 L154.75 315.81 L156.75 315.13 L158.75 314.43 L160.75 313.73 L162.75 313.01 L164.75 312.28 L166.75 311.54 L168.75 310.79 L170.75 310.03 L172.75 309.25 L174.75 308.46 L176.75 307.66 L178.75 306.84 L180.75 306.02 L182.75 305.18 L184.75 304.32 L186.75 303.45 L188.75 302.57 L190.75 301.67 L192.75 300.76 L194.75 299.83 L196.75 298.89 L198.75 297.93 L200.75 296.95 L202.75 295.96 L204.75 294.96 L206.74 293.94 L208.69 292.92 L210.61 291.91 L212.51 290.89 L214.37 289.88 L216.21 288.86 L218.01 287.85 L219.79 286.83 L221.55 285.82 L223.28 284.80 L224.99 283.79 L226.67 282.78 L228.33 281.76 L229.97 280.75 L231.58 279.74 L233.18 278.72 L234.76 277.71 L236.31 276.70 L237.85 275.69 L239.37 274.67 L240.87 273.66 L242.35 272.65 L243.82 271.64 L245.27 270.63 L246.70 269.62 L248.12 268.61 L249.53 267.60 L250.92 266.59 L252.29 265.58 L253.65 264.57 L255.00 263.56 L256.34 262.55 L257.66 261.54 L258.97 260.53 L260.27 259.52 L261.55 258.51 L262.83 257.50 L264.09 256.49 L265.35 255.49 L266.59 254.48 L267.83 253.47 L269.05 252.46 L270.27 251.45 L271.47 250.45 L272.67 249.44 L273.86 248.43 L275.04 247.43 L276.21 246.42 L277.37 245.41 L278.53 244.41 L279.67 243.40 L280.82 242.39 L281.95 241.39 L283.08 240.38 L284.20 239.38 L285.31 238.37 L286.42 237.36 L287.53 236.36 L288.62 235.35 L289.71 234.35 L290.80 233.34 L291.88 232.34 L292.96 231.34 L294.03 230.33 L295.10 229.33 L296.16 228.32 L297.22 227.32 L298.27 226.32 L299.32 225.31 L300.37 224.31 L301.41 223.31 L302.45 222.30 L303.48 221.30 L304.51 220.30 L305.54 219.29 L306.57 218.29 L307.60 217.29 L308.62 216.29 L309.64 215.28 L310.65 214.28 L311.67 213.28 L312.68 212.28 L313.69 211.28 L314.70 210.27 L315.71 209.27 L316.72 208.27 L317.72 207.27 L318.72 206.27 L319.73 205.27 L320.73 204.27 L321.73 203.27 L322.73 202.27 L323.73 201.27 L324.73 200.27 L325.73 199.27 L326.73 198.27 L327.73 197.27 L328.73 196.27 L329.73 195.27 L330.74 194.27 L331.74 193.27 L332.74 192.27 L333.74 191.27 L334.75 190.27 L335.75 189.27 L336.76 188.28 L337.77 187.28 L338.78 186.28 L339.79 185.28 L340.81 184.28 L341.82 183.28 L342.84 182.29 L343.86 181.29 L344.88 180.29 L345.91 179.29 L346.93 178.30 L347.97 177.30 L349.00 176.30 L350.04 175.31 L351.08 174.31 L352.12 173.31 L353.17 172.32 L354.22 171.32 L355.27 170.32 L356.33 169.33 L357.40 168.33 L358.47 167.34 L359.54 166.34 L360.62 165.35 L361.70 164.35 L362.79 163.36 L363.88 162.36 L364.98 161.37 L366.08 160.37 L367.19 159.38 L368.31 158.38 L369.43 157.39 L370.56 156.39 L371.70 155.40 L372.84 154.41 L373.99 153.41 L375.15 152.42 L376.31 151.43 L377.48 150.43 L378.66 149.44 L379.85 148.45 L381.05 147.45 L382.26 146.46 L383.47 145.47 L384.70 144.48 L385.93 143.48 L387.18 142.49 L388.43 141.50 L389.70 140.51 L390.97 139.52 L392.26 138.53 L393.56 137.54 L394.86 136.54 L396.19 135.55 L397.52 134.56 L398.87 133.57 L400.23 132.58 L401.60 131.59 L402.99 130.60 L404.39 129.61 L405.80 128.62 L407.23 127.63 L408.68 126.65 L410.14 125.66 L411.62 124.67 L413.11 123.68 L414.63 122.69 L416.16 121.70 L417.70 120.71 L419.27 119.73 L420.86 118.74 L422.46 117.75 L424.09 116.76 L425.74 115.78 L427.41 114.79 L429.10 113.80 L430.82 112.82 L432.56 111.83 L434.32 110.85 L436.11 109.86 L437.92 108.87 L439.77 107.89 L441.64 106.90 L443.53 105.92 L445.46 104.94 L447.42 103.95 L449.41 102.97 L451.41 101.99 L453.41 101.04 L455.41 100.10 L457.41 99.17 L459.41 98.26 L461.41 97.36 L463.41 96.48 L465.41 95.61 L467.41 94.76 L469.41 93.92 L471.41 93.09 L473.41 92.28 L475.41 91.48 L477.41 90.69 L479.41 89.91 L481.41 89.15 L483.41 88.40 L485.41 87.66 L487.41 86.93 L489.41 86.21 L491.41 85.51 L493.41 84.82 L495.41 84.13 L497.41 83.46 L499.41 82.80 L501.41 82.14 L503.41 81.50 L505.41 80.87 L507.41 80.24 L509.41 79.63 L511.41 79.03 L513.41 78.43 L515.41 77.84 L517.41 77.26 L519.41 76.70 L521.41 76.13 L523.41 75.58 L525.41 75.04 L527.41 74.50 L529.41 73.97 L531.41 73.45 L533.41 72.93 L535.41 72.42 L537.41 71.92 L539.41 71.43 L541.41 70.95 L543.41 70.47 L545.41 69.99 L547.41 69.53 L549.41 69.07 L551.41 68.61 L553.41 68.17 L555.41 67.72 L557.41 67.29 L559.41 66.86 L561.41 66.44 L563.41 66.02 L565.41 65.61 L567.41 65.20 L569.41 64.80 L571.41 64.40 L573.41 64.01 L575.41 63.62 L577.41 63.24 L579.41 62.86 L581.41 62.49 L583.41 62.12 L585.41 61.76 L587.41 61.40 L589.41 61.05 L591.41 60.70 L593.41 60.36 L595.41 60.02 L597.41 59.68 L599.41 59.35 L601.41 59.02 L603.41 58.69 L605.41 58.37 L607.41 58.06 L609.41 57.74 L611.41 57.43 L613.41 57.13 L615.41 56.83 L617.41 56.53 L619.41 56.23 L621.41 55.94 L623.41 55.65 L625.41 55.37 L627.41 55.09 L629.41 54.81 L631.41 54.53 L633.41 54.26 L635.41 53.99 L637.41 53.72 L639.41 53.46 L641.41 53.20 L643.41 52.94 L645.41 52.69 L647.41 52.43 L649.41 52.18 " style="fill:none;stroke:#000000;stroke-width:1;" /></g></svg>