<?xml version="1.0" standalone="no"?><!DOCTYPE svg PUBLIC "-//W3C//DTD SVG 1.1//EN" "http://www.w3.org/Graphics/SVG/1.1/DTD/svg11.dtd"><svg xmlns="http://www.w3.org/2000/svg" viewBox="0 0 650 400" version="1.1"><clipPath id="box"><rect x="0" y="0" width="650" height="400" style="fill:none;stroke:none;" /></clipPath><g clip-path="url(#box)"><rect x="0.00" y="0.00" width="650.00" height="400.00" style="fill:#FFFFFF;stroke:none;" /><path d="M0.00 356.00 L650.00 356.00 M0.00 278.00 L650.00 278.00 M0.00 200.00 L650.00 200.00 M0.00 121.00 L650.00 121.00 M0.00 43.00 L650.00 43.00 M12.00 0.00 L12.00 400.00 M90.00 0.00 L90.00 400.00 M168.00 0.00 L168.00 400.00 M246.00 0.00 L246.00 400.00 M325.00 0.00 L325.00 400.00 M403.00 0.00 L403.00 400.00 M481.00 0.00 L481.00 400.00 M559.00 0.00 L559.00 400.00 M637.00 0.00 L637.00 400.00 " style="fill:none;stroke:#D0D0D0;stroke-width:1;" /><path d="M325.00 0.00 L325.00 400.00 " style="fill:none;stroke:#000000;stroke-width:1;" /><path d="M318.50 434.38 L331.50 434.38 M318.50 356.25 L331.50 356.25 M318.50 278.13 L331.50 278.13 M318.50 200.00 L331.50 200.00 M318.50 121.87 L331.50 121.87 M318.50 43.75 L331.50 43.75 " style="fill:none;stroke:#000000;stroke-width:1;" /><path d="M0.00 200.00 L650.00 200.00 " style="fill:none;stroke:#000000;stroke-width:1;" /><path d="M-65.63 193.50 L-65.63 206.50 M12.50 193.50 L12.50 206.50 M90.62 193.50 L90.62 206.50 M168.75 193.50 L168.75 206.50 M246.87 193.50 L246.87 206.50 M325.00 193.50 L325.00 206.50 M403.13 193.50 L403.13 206.50 M481.25 193.50 L481.25 206.50 M559.38 193.50 L559.38 206.50 M637.50 193.50 L637.50 206.50 " style="fill:none;stroke:#000000;stroke-width:1;" /><text x="333.125" y="358.7500000000003" text-anchor="start" style="font:10px Droid Sans,Trebuchet MS,Arial,Helvetica,sans-serif;stroke:none;fill:#000000">-2</text><text x="333.125" y="280.6250000000001" text-anchor="start" style="font:10px Droid Sans,Trebuchet MS,Arial,Helvetica,sans-serif;stroke:none;fill:#000000">-1</text><text x="333.125" y="202.5" text-anchor="start" style="font:10px Droid Sans,Trebuchet MS,Arial,Helvetica,sans-serif;stroke:none;fill:#000000">0</text><text x="333.125" y="124.37499999999989" text-anchor="start" style="font:10px Droid Sans,Trebuchet MS,Arial,Helvetica,sans-serif;stroke:none;fill:#000000">1</text><text x="333.125" y="46.24999999999979" text-anchor="start" style="font:10px Droid Sans,Trebuchet MS,Arial,Helvetica,sans-serif;stroke:none;fill:#000000">2</text><text x="12.499999999999611" y="216.125" text-anchor="middle" style="font:10px Droid Sans,Trebuchet MS,Arial,Helvetica,sans-serif;stroke:none;fill:#000000">-4</text><text x="90.62499999999972" y="216.125" text-anchor="middle" style="font:10px Droid Sans,Trebuchet MS,Arial,Helvetica,sans-serif;stroke:none;fill:#000000">-3</text><text x="168.7499999999998" y="216.125" text-anchor="middle" style="font:10px Droid Sans,Trebuchet MS,Arial,Helvetica,sans-serif;stroke:none;fill:#000000">-2</text><text x="246.87499999999991" y="216.125" text-anchor="middle" style="font:10px Droid Sans,Trebuchet MS,Arial,Helvetica,sans-serif;stroke:none;fill:#000000">-1</text><text x="325" y="216.125" text-anchor="middle" style="font:10px Droid Sans,Trebuchet MS,Arial,Helvetica,sans-serif;stroke:none;fill:#000000">0</text><text x="403.12500000000006" y="216.125" text-anchor="middle" style="font:10px Droid Sans,Trebuchet MS,Arial,Helvetica,sans-serif;stroke:none;fill:#000000">1</text><text x="481.25000000000017" y="216.125" text-anchor="middle" style="font:10px Droid Sans,Trebuchet MS,Arial,Helvetica,sans-serif;stroke:none;fill:#000000">2</text><text x="559.3750000000003" y="216.125" text-anchor="middle" style="font:10px Droid Sans,Trebuchet MS,Arial,Helvetica,sans-serif;stroke:none;fill:#000000">3</text><text x="637.5000000000005" y="216.125" text-anchor="middle" style="font:10px Droid Sans,Trebuchet MS,Arial,Helvetica,sans-serif;stroke:none;fill:#000000">4</text><path d="M331.04 400.01 L331.04 399.99 L331.12 399.00 L331.20 398.01 L331.27 397.02 L331.35 396.04 L331.43 395.05 L331.52 394.06 L331.60 393.07 L331.68 392.09 L331.77 391.10 L331.85 390.11 L331.94 389.12 L332.03 388.14 L332.12 387.15 L332.21 386.16 L332.30 385.17 L332.39 384.19 L332.49 383.20 L332.58 382.21 L332.68 381.23 L332.78 380.24 L332.88 379.25 L332.98 378.26 L333.08 377.28 L333.18 376.29 L333.29 375.30 L333.39 374.31 L333.50 373.33 L333.61 372.34 L333.71 371.35 L333.83 370.36 L333.94 369.38 L334.05 368.39 L334.17 367.40 L334.28 366.41 L334.40 365.43 L334.52 364.44 L334.64 363.45 L334.76 362.46 L334.89 361.48 L335.01 360.49 L335.14 359.50 L335.27 358.51 L335.40 357.53 L335.53 356.54 L335.67 355.55 L335.80 354.56 L335.94 353.58 L336.08 352.59 L336.22 351.60 L336.36 350.61 L336.51 349.63 L336.65 348.64 L336.80 347.65 L336.95 346.66 L337.11 345.68 L337.26 344.69 L337.42 343.70 L337.57 342.72 L337.73 341.73 L337.89 340.74 L338.06 339.75 L338.23 338.77 L338.39 337.78 L338.56 336.79 L338.74 335.80 L338.91 334.82 L339.09 333.83 L339.27 332.84 L339.45 331.85 L339.63 330.87 L339.82 329.88 L340.01 328.89 L340.20 327.90 L340.39 326.92 L340.59 325.93 L340.79 324.94 L340.99 323.95 L341.19 322.97 L341.40 321.98 L341.60 320.99 L341.81 320.00 L342.03 319.02 L342.25 318.03 L342.46 317.04 L342.69 316.05 L342.91 315.07 L343.14 314.08 L343.37 313.09 L343.60 312.10 L343.84 311.12 L344.08 310.13 L344.32 309.14 L344.57 308.15 L344.82 307.17 L345.07 306.18 L345.32 305.19 L345.58 304.20 L345.85 303.22 L346.11 302.23 L346.38 301.24 L346.65 300.26 L346.93 299.27 L347.21 298.28 L347.49 297.29 L347.77 296.31 L348.06 295.32 L348.36 294.33 L348.65 293.34 L348.95 292.36 L349.26 291.37 L349.57 290.38 L349.88 289.39 L350.20 288.41 L350.52 287.42 L350.84 286.43 L351.17 285.44 L351.50 284.46 L351.84 283.47 L352.18 282.48 L352.53 281.49 L352.88 280.51 L353.23 279.52 L353.59 278.53 L353.96 277.54 L354.32 276.56 L354.70 275.57 L355.07 274.58 L355.46 273.59 L355.84 272.61 L356.24 271.62 L356.63 270.63 L357.04 269.64 L357.44 268.66 L357.86 267.67 L358.27 266.68 L358.70 265.69 L359.13 264.71 L359.56 263.72 L360.00 262.73 L360.44 261.74 L360.90 260.76 L361.35 259.77 L361.81 258.78 L362.28 257.80 L362.76 256.81 L363.24 255.82 L363.72 254.83 L364.22 253.85 L364.71 252.86 L365.22 251.87 L365.73 250.88 L366.25 249.90 L366.77 248.91 L367.31 247.92 L367.84 246.93 L368.39 245.95 L368.94 244.96 L369.50 243.97 L370.07 242.98 L370.64 242.00 L371.22 241.01 L371.81 240.02 L372.40 239.03 L373.01 238.05 L373.62 237.06 L374.23 236.07 L374.86 235.08 L375.49 234.10 L376.14 233.11 L376.79 232.12 L377.45 231.13 L378.11 230.15 L378.79 229.16 L379.47 228.17 L380.17 227.18 L380.87 226.20 L381.58 225.21 L382.30 224.22 L383.03 223.23 L383.76 222.25 L384.51 221.26 L385.27 220.27 L386.04 219.28 L386.81 218.30 L387.60 217.31 L388.39 216.32 L389.20 215.34 L390.02 214.35 L390.84 213.36 L391.68 212.37 L392.53 211.39 L393.39 210.40 L394.26 209.41 L395.14 208.42 L396.03 207.44 L396.94 206.45 L397.85 205.46 L398.78 204.47 L399.72 203.49 L400.67 202.50 L401.63 201.51 L402.60 200.52 L403.59 199.54 L404.59 198.55 L405.60 197.56 L406.63 196.57 L407.67 195.59 L408.72 194.60 L409.78 193.61 L410.86 192.62 L411.95 191.64 L413.06 190.65 L414.18 189.66 L415.31 188.67 L416.46 187.69 L417.62 186.70 L418.80 185.71 L420.00 184.72 L421.20 183.74 L422.43 182.75 L423.67 181.76 L424.92 180.77 L426.19 179.79 L427.48 178.80 L428.78 177.81 L430.10 176.83 L431.44 175.84 L432.79 174.85 L434.17 173.86 L435.55 172.88 L436.96 171.89 L438.38 170.90 L439.83 169.91 L441.29 168.93 L442.77 167.94 L444.26 166.95 L445.78 165.96 L447.32 164.98 L448.87 163.99 L450.45 163.00 L452.04 162.01 L453.66 161.03 L455.30 160.04 L456.95 159.05 L458.63 158.06 L460.33 157.08 L462.05 156.09 L463.80 155.10 L465.56 154.11 L467.35 153.13 L469.16 152.14 L470.99 151.15 L472.85 150.16 L474.73 149.18 L476.64 148.19 L478.57 147.20 L480.52 146.21 L482.50 145.23 L484.50 144.24 L486.50 143.27 L488.50 142.31 L490.50 141.36 L492.50 140.42 L494.50 139.49 L496.50 138.57 L498.50 137.67 L500.50 136.77 L502.50 135.89 L504.50 135.01 L506.50 134.15 L508.50 133.29 L510.50 132.44 L512.50 131.61 L514.50 130.78 L516.50 129.96 L518.50 129.14 L520.50 128.34 L522.50 127.55 L524.50 126.76 L526.50 125.98 L528.50 125.21 L530.50 124.44 L532.50 123.69 L534.50 122.94 L536.50 122.20 L538.50 121.46 L540.50 120.73 L542.50 120.01 L544.50 119.29 L546.50 118.59 L548.50 117.88 L550.50 117.19 L552.50 116.50 L554.50 115.81 L556.50 115.14 L558.50 114.46 L560.50 113.80 L562.50 113.14 L564.50 112.48 L566.50 111.83 L568.50 111.19 L570.50 110.55 L572.50 109.92 L574.50 109.29 L576.50 108.66 L578.50 108.04 L580.50 107.43 L582.50 106.82 L584.50 106.22 L586.50 105.62 L588.50 105.02 L590.50 104.43 L592.50 103.84 L594.50 103.26 L596.50 102.68 L598.50 102.11 L600.50 101.54 L602.50 100.98 L604.50 100.42 L606.50 99.86 L608.50 99.31 L610.50 98.76 L612.50 98.21 L614.50 97.67 L616.50 97.13 L618.50 96.60 L620.50 96.07 L622.50 95.54 L624.50 95.02 L626.50 94.50 L628.50 93.98 L630.50 93.47 L632.50 92.96 L634.50 92.45 L636.50 91.95 L638.50 91.45 L640.50 90.95 L642.50 90.46 L644.50 89.97 L646.50 89.48 L648.50 88.99 " style="fill:none;stroke:#000000;stroke-width:1;" /></g></svg>